<?xml version="1.0" encoding="utf-8"?>
<svg xmlns="http://www.w3.org/2000/svg" version="1.1" fill="none" stroke-miterlimit="10.000000" stroke-width="0.566929" x="-161.352pt" height="162.725pt" viewBox="-161.352 -81.3626 322.704 162.725" width="322.704pt" y="-81.3626pt">
 <path fill="#00f" d="M-1.25884e-14 -80.1759L-8.43957 -80.3626L-16.8791 -80.0598L-25.3187 -79.2673L-33.7583 -77.9852L-42.1978 -76.2135L-50.6374 -73.9522L-59.077 -71.2012L-67.5165 -67.9607L-75.9561 -64.2305L-84.3957 -60.0107L-92.8352 -55.3013L-101.275 -50.1023L-109.714 -44.4137L-118.154 -38.2354L-126.594 -31.5676L-135.033 -24.4101L-143.473 -16.763L-151.912 -8.62632L-160.352 6.29418e-15L-160.352 6.29418e-15L-151.912 8.62632L-143.473 16.763L-135.033 24.4101L-126.594 31.5676L-118.154 38.2354L-109.714 44.4137L-101.275 50.1023L-92.8352 55.3013L-84.3957 60.0107L-75.9561 64.2305L-67.5165 67.9607L-59.077 71.2012L-50.6374 73.9522L-42.1978 76.2135L-33.7583 77.9852L-25.3187 79.2673L-16.8791 80.0598L-8.43957 80.3626L1.25884e-14 80.1759L1.25884e-14 80.1759L8.43957 71.5496L16.8791 63.4129L25.3187 55.7658L33.7583 48.6083L42.1978 41.9404L50.6374 35.7622L59.077 30.0736L67.5165 24.8746L75.9561 20.1652L84.3957 15.9454L92.8352 12.2152L101.275 8.97466L109.714 6.22372L118.154 3.96239L126.594 2.19068L135.033 0.908591L143.473 0.116112L151.912 -0.186751L160.352 -6.29418e-15L160.352 -6.29418e-15L151.912 0.186751L143.473 -0.116112L135.033 -0.908591L126.594 -2.19068L118.154 -3.96239L109.714 -6.22372L101.275 -8.97466L92.8352 -12.2152L84.3957 -15.9454L75.9561 -20.1652L67.5165 -24.8746L59.077 -30.0736L50.6374 -35.7622L42.1978 -41.9404L33.7583 -48.6083L25.3187 -55.7658L16.8791 -63.4129L8.43957 -71.5496L-1.25884e-14 -80.1759L-40.0879 25.5674L-45.9994 21.8083L-50.7194 17.0809L-54.1259 11.5708L-56.1305 5.51947L-56.6814 -0.793222L-55.7643 -7.06824L-53.4029 -13.0093L-49.6584 -18.3444L-44.6277 -22.8448L-38.4413 -26.3404L-31.2592 -28.7297L-23.2675 -29.9835L-14.6732 -30.1423L-5.69889 -29.3077L3.42303 -27.629L12.4563 -25.2859L21.1669 -22.4704L29.3294 -19.3676L36.7322 -16.1399L43.1837 -12.9142L48.5167 -9.7739L52.5932 -6.75723L55.3076 -3.86028L56.5895 -1.04574L56.4058 1.74461L54.7611 4.57487L51.6983 7.49937L47.2964 10.5481L41.6696 13.7151L34.9636 16.9509L27.352 20.1608L19.0321 23.2081L10.2192 25.9235L1.14163 28.1183L-7.96549 29.602L-16.8663 30.2006L-25.3303 29.7754L-33.1383 28.2389L-40.0879 25.5674Z" opacity="0.150000"/>
 <path stroke-width="1.603518" fill="none" d="M-40.0879 25.5674L-45.9994 21.8083L-50.7194 17.0809L-54.1259 11.5708L-56.1305 5.51947L-56.6814 -0.793222L-55.7643 -7.06824L-53.4029 -13.0093L-49.6584 -18.3444L-44.6277 -22.8448L-38.4413 -26.3404L-31.2592 -28.7297L-23.2675 -29.9835L-14.6732 -30.1423L-5.69889 -29.3077L3.42303 -27.629L12.4563 -25.2859L21.1669 -22.4704L29.3294 -19.3676L36.7322 -16.1399L43.1837 -12.9142L48.5167 -9.7739L52.5932 -6.75723L55.3076 -3.86028L56.5895 -1.04574L56.4058 1.74461L54.7611 4.57487L51.6983 7.49937L47.2964 10.5481L41.6696 13.7151L34.9636 16.9509L27.352 20.1608L19.0321 23.2081L10.2192 25.9235L1.14163 28.1183L-7.96549 29.602L-16.8663 30.2006L-25.3303 29.7754L-33.1383 28.2389L-40.0879 25.5674" stroke="#00f"/>
 <path stroke-width="1.603518" fill="#00f" d="M-40.0879 25.5674L-45.9994 21.8083L-50.7194 17.0809L-54.1259 11.5708L-56.1305 5.51947L-56.6814 -0.793222L-55.7643 -7.06824L-53.4029 -13.0093L-49.6584 -18.3444L-44.6277 -22.8448L-38.4413 -26.3404L-31.2592 -28.7297L-23.2675 -29.9835L-14.6732 -30.1423L-5.69889 -29.3077L3.42303 -27.629L12.4563 -25.2859L21.1669 -22.4704L29.3294 -19.3676L36.7322 -16.1399L43.1837 -12.9142L48.5167 -9.7739L52.5932 -6.75723L55.3076 -3.86028L56.5895 -1.04574L56.4058 1.74461L54.7611 4.57487L51.6983 7.49937L47.2964 10.5481L41.6696 13.7151L34.9636 16.9509L27.352 20.1608L19.0321 23.2081L10.2192 25.9235L1.14163 28.1183L-7.96549 29.602L-16.8663 30.2006L-25.3303 29.7754L-33.1383 28.2389L-40.0879 25.5674" opacity="0.500000" stroke="none"/>
 <g transform="matrix(1.400000,-0.000000,-0.000000,1.400000,91.400511,-0.000000)">
  <g transform="matrix(1.000000,0.000000,0.000000,1.000000,0.000000,-0.000000)">
   <path fill="#000" d="M0.191283 3.999M6.64707 1.60796L6.43188 1.54819C6.15691 2.63611 5.61893 2.91108 4.53101 2.91108L1.51831 2.91108L4.268 -0.328775L1.85305 -3.42516L4.55492 -3.42516C5.64284 -3.42516 5.98954 -2.99478 6.06127 -1.93077L6.27646 -1.93077L6.12105 -3.91533L0.191283 -3.91533L0.191283 -3.71209L3.23985 0.197253L0.191283 3.7838L0.191283 3.999L6.31233 3.999ZM6.31233 3.999"/>
  </g>
 </g>
 <g transform="matrix(1.400000,-0.000000,-0.000000,1.400000,-1.304343,-31.427690)">
  <g transform="matrix(1.000000,0.000000,0.000000,1.000000,0.000000,-0.000000)">
   <path fill="#000" d="M0.143462 -0M6.52752 -6.20473L6.49166 -7.91432L0.143462 -7.91432L0.143462 -7.68717C0.980324 -7.6274 1.18356 -7.47198 1.18356 -6.61121L1.18356 -1.43462C1.18356 -0.537983 1.08792 -0.274969 0.143462 -0.227148L0.143462 -0L3.49091 -0L3.49091 -0.227148C2.64209 -0.263014 2.40299 -0.430386 2.40299 -1.30311L2.40299 -7.05355C2.40299 -7.36438 2.46276 -7.46002 2.78555 -7.46002L4.41146 -7.46002C5.49938 -7.46002 6.0254 -7.4122 6.22864 -6.20473ZM6.22864 -6.20473"/>
  </g>
 </g>
 <path stroke-width="1.133858" d="M-21.3125 30.1154L-0.611534 31.1918" stroke="#ff6321"/>
 <g stroke-linecap="butt" stroke-dasharray="none">
  <path fill="#ff6321" d="M-1.77838 28.4156L4.61914 31.4638L-2.06003 33.8321L-0.611534 31.1918Z"/>
 </g>
 <path stroke-width="1.133858" d="M-21.3125 30.1154L-25.7932 12.4127" stroke="#ff6321"/>
 <g stroke-linecap="butt" stroke-dasharray="none">
  <path fill="#ff6321" d="M-28.101 14.3475L-27.0784 7.33503L-22.8429 13.0166L-25.7932 12.4127Z"/>
 </g>
 <path stroke-width="1.133858" d="M-21.3125 30.1154L-28.5477 42.4161" stroke="#ff6321"/>
 <g stroke-linecap="butt" stroke-dasharray="none">
  <path fill="#ff6321" d="M-25.5463 42.6624L-31.2032 46.9308L-30.2214 39.9125L-28.5477 42.4161Z"/>
 </g>
 <g transform="matrix(1.400000,-0.000000,-0.000000,1.400000,4.619142,31.463819)">
  <g transform="matrix(1.000000,0.000000,0.000000,1.000000,0.000000,-0.000000)">
   <path fill="#ff6321" d="M0.37061 2.65669M4.17235 -1.5037L6.38406 -1.5037C6.63512 -1.5037 6.79054 -1.5037 6.98182 -1.68303C7.22092 -1.88627 7.22092 -2.16124 7.22092 -2.18515C7.22092 -2.6514 6.79054 -2.6514 6.5873 -2.6514L2.65405 -2.6514C2.40299 -2.6514 1.88892 -2.6514 1.25529 -2.07755C0.836862 -1.69499 0.37061 -1.08527 0.37061 -0.965722C0.37061 -0.79835 0.514072 -0.79835 0.645579 -0.79835C0.824907 -0.79835 0.836862 -0.810305 0.944458 -0.941812C1.39875 -1.5037 2.1878 -1.5037 2.41494 -1.5037L3.49091 -1.5037L3.06052 -0.236457C2.95293 0.0624224 2.68991 0.827553 2.59427 1.13839C2.46276 1.509 2.23562 2.14262 2.23562 2.27413C2.23562 2.60887 2.49863 2.80016 2.79751 2.80016C2.8812 2.80016 3.49091 2.80016 3.61046 2.01111ZM3.61046 2.01111"/>
  </g>
 </g>
 <g transform="matrix(1.400000,-0.000000,-0.000000,1.400000,-27.078434,7.335033)">
  <g transform="matrix(1.000000,0.000000,0.000000,1.000000,0.000000,-0.000000)">
   <path fill="#ff6321" d="M-3.07248 -0M-0.78904 -5.51133L-3.07248 -5.51133L-3.07248 -5.22441C-2.54645 -5.14072 -2.43885 -5.02117 -2.43885 -4.51905L-2.43885 -1.00423C-2.43885 -0.502117 -2.53449 -0.394521 -3.07248 -0.286924L-3.07248 -0L-0.191281 -0L-0.191281 -0.286924C-0.633622 -0.3467 -0.777084 -0.526027 -0.777084 -0.968369L-0.777084 -4.1604C-0.777084 -4.20822 -0.693398 -4.32777 -0.573847 -4.43537C-0.310833 -4.71034 -0.0239089 -4.8538 0.25106 -4.8538C0.669491 -4.8538 0.872729 -4.53101 0.872729 -3.86152L0.872729 -0.968369C0.872729 -0.526027 0.717312 -0.334745 0.310836 -0.286924L0.310836 -0L3.1203 -0L3.1203 -0.286924C2.65405 -0.32279 2.5345 -0.466252 2.5345 -0.968369L2.5345 -3.96912C2.5345 -4.99726 1.90087 -5.65479 0.920549 -5.65479C0.203239 -5.65479 -0.346698 -5.32005 -0.78904 -4.61469ZM-0.78904 -4.61469"/>
  </g>
 </g>
 <g transform="matrix(1.400000,-0.000000,-0.000000,1.400000,-31.203222,46.930804)">
  <g transform="matrix(1.000000,0.000000,0.000000,1.000000,0.000000,-0.000000)">
   <path fill="#ff6321" d="M0.537983 5.3134M3.09639 0.12486C3.09639 -0.102288 2.86924 -0.090333 2.71382 -0.0783778L1.21943 -0.00664683C1.0401 0.00530834 0.824907 0.0172635 0.824907 0.352008C0.824907 0.567201 1.0401 0.567201 1.1477 0.567201C1.29116 0.567201 1.50635 0.579156 1.64981 0.591112L0.537983 5.09821C0.537983 5.26558 0.681445 5.3134 0.812951 5.3134L1.1477 5.3134C2.4269 5.11017 4.02889 4.51241 5.35592 3.40058C6.94595 2.0616 7.20897 0.567201 7.20897 0.435694C7.20897 0.172681 7.01768 -0.090333 6.64707 -0.090333C6.4797 -0.090333 6.0254 -0.00664683 5.85803 0.543291C5.58306 1.52361 5.11681 2.38439 4.3995 3.11365C4.01694 3.48426 3.18007 4.2733 1.9726 4.66782ZM1.9726 4.66782"/>
  </g>
 </g>
</svg>
