<?xml version="1.0" encoding="utf-8"?>
<svg xmlns="http://www.w3.org/2000/svg" version="1.1" fill="none" stroke-miterlimit="10.000000" stroke-width="0.566929" x="-57.7862pt" height="127.163pt" viewBox="-57.7862 -63.801 140.456 127.163" width="140.456pt" y="-63.801pt">
 <path stroke-width="1.603518" d="M-43.3879 9.2549L-48.7272 5.73911L-52.8046 1.20589L-55.5143 -4.16391L-56.7862 -10.1328L-56.5874 -16.4228L-54.9231 -22.7356L-51.8362 -28.7738L-47.4068 -34.263L-41.7496 -38.9705L-35.0111 -42.7207L-27.3659 -45.4056L-19.0118 -46.9884L-10.1654 -47.5009L-1.05573 -47.0357L8.08131 -45.7323L17.0091 -43.7611L25.4963 -41.3041L33.3231 -38.5372L40.287 -35.6142L46.2074 -32.654L50.931 -29.7333L54.3356 -26.8844L56.3329 -24.0992L56.8713 -21.3374L55.9366 -18.5395L53.5533 -15.6415L49.7829 -12.591L44.7232 -9.36104L38.5052 -5.96249L31.29 -2.45066L23.2643 1.07253L14.6361 4.46231L5.62883 7.54038L-3.52422 10.1088L-12.586 11.9673L-21.3218 12.9323L-29.5054 12.8555L-36.9248 11.6403L-43.3879 9.2549Z" stroke="#00bf28"/>
 <path stroke-width="1.603518" d="M-56.6929 15.6291L-55.1516 22.1201L-52.1058 28.3522L-47.6388 34.0258L-41.8723 38.8863L-34.9636 42.7419L-27.1012 45.4752L-18.4996 47.0479L-9.3933 47.4976L-0.0308083 46.9286L9.33252 45.4957L18.4413 43.3855L27.047 40.795L34.915 37.9112L41.8305 34.8934L47.6051 31.8602L52.0811 28.882L55.1364 25.981L56.6878 23.1363L56.6929 20.2959" stroke="#00bf28"/>
 <path stroke-width="1.603518" d="M-56.6929 -15.6291L-56.6929 15.6291" stroke="#00bf28"/>
 <path stroke-width="1.603518" d="M56.6929 -20.2959L56.6929 20.2959" stroke="#00bf28"/>
 <path stroke-width="0.566929" d="M-56.6929 1.41459e-07L-55.9197 6.45914L-53.6211 12.5967L-49.8599 18.1155L-44.7387 22.7652L-38.3971 26.3598L-31.0081 28.7889L-22.7733 30.0227L-13.9173 30.1079L-4.68166 29.1588L4.68166 27.3405L13.9173 24.8502L22.7733 21.8952L31.0081 18.6725L38.3971 15.3506L44.7387 12.0563L49.8599 8.86736L53.6211 5.81149L55.9197 2.87221L56.6929 -1.5585e-09" stroke="#00f"/>
 <g stroke-width="0.566929">
  <path d="M-10.1654 -47.5009L-6.79657 -45.0613L-3.43133 -42.7081L-0.0694212 -40.4409L3.28947 -38.2593L6.64566 -36.163L9.9995 -34.1518L13.3513 -32.2252L16.7015 -30.383L20.0505 -28.6251L23.3985 -26.951L26.7461 -25.3608L30.0935 -23.8541L33.4411 -22.4309L36.7895 -21.0911L40.1388 -19.8346L43.4895 -18.6614L46.8419 -17.5715L50.1964 -16.5648L53.5533 -15.6415L55.969 24.7913" stroke="#00bf28"/>
 </g>
 <g stroke-width="0.566929">
  <path d="M-36.788 -41.88L-32.9013 -38.9219L-29.0192 -36.08L-25.1413 -33.3536L-21.267 -30.7422L-17.3958 -28.2451L-13.5273 -25.862L-9.6609 -23.5923L-5.79595 -21.4356L-1.93188 -19.3915L1.93188 -17.4596L5.79595 -15.6397L9.6609 -13.9314L13.5273 -12.3347L17.3958 -10.8493L21.267 -9.47519L25.1413 -8.21235L29.0192 -7.0608L32.9013 -6.02062L36.788 -5.09196L43.3879 34.133" stroke="#00bf28"/>
 </g>
 <g stroke-width="0.566929">
  <path d="M-53.5533 -25.8069L-50.1964 -23.3614L-46.8419 -21.0028L-43.4895 -18.7308L-40.1388 -16.5452L-36.7895 -14.4455L-33.4411 -12.4314L-30.0935 -10.5028L-26.7461 -8.65924L-23.3985 -6.90057L-20.0505 -5.22655L-16.7015 -3.63699L-13.3513 -2.13172L-9.9995 -0.710622L-6.64566 0.626421L-3.28947 1.87948L0.0694212 3.04861L3.43133 4.13382L6.79657 5.1351L10.1654 6.05241L19.181 43.1853" stroke="#00bf28"/>
 </g>
 <g stroke-width="0.566929">
  <path d="M-43.3879 9.2549L-43.3879 9.2549L-43.3879 9.2549L-43.3879 9.2549L-43.3879 9.2549L-43.3879 9.2549L-43.3879 9.2549L-43.3879 9.2549L-43.3879 9.2549L-43.3879 9.2549L-43.3879 9.2549L-43.3879 9.2549L-43.3879 9.2549L-43.3879 9.2549L-43.3879 9.2549L-43.3879 9.2549L-43.3879 9.2549L-43.3879 9.2549L-43.3879 9.2549L-43.3879 9.2549L-36.788 41.88" stroke="#00bf28"/>
 </g>
 <g stroke-width="0.566929">
  <path d="M19.181 -43.1853L15.241 -42.1006L11.2973 -40.9163L7.35035 -39.6323L3.40036 -38.2486L-0.552326 -36.7653L-4.50737 -35.1823L-8.46441 -33.4998L-12.4231 -31.7178L-16.383 -29.8365L-20.3439 -27.8561L-24.3052 -25.7767L-28.2667 -23.5986L-32.2279 -21.322L-36.1885 -18.9472L-40.148 -16.4744L-44.1062 -13.904L-48.0626 -11.2363L-52.017 -8.4716L-55.969 -5.61028L-53.5533 25.8069" stroke="#00bf28"/>
 </g>
 <g stroke-width="0.566929">
  <path d="M43.3879 -34.133L38.835 -33.0451L34.2776 -31.824L29.7159 -30.4694L25.1506 -28.9813L20.5822 -27.3596L16.0111 -25.6045L11.438 -23.7159L6.8634 -21.694L2.2879 -19.5389L-2.2879 -17.251L-6.8634 -14.8305L-11.438 -12.2779L-16.0111 -9.59334L-20.5822 -6.77744L-25.1506 -3.83064L-29.7159 -0.753445L-34.2776 2.45359L-38.835 5.7899L-43.3879 9.2549L-36.788 41.88" stroke="#00bf28"/>
 </g>
 <g stroke-width="0.566929">
  <path d="M55.969 -24.7913L52.017 -23.7126L48.0626 -22.5336L44.1062 -21.2544L40.148 -19.8748L36.1885 -18.3949L32.2279 -16.8147L28.2667 -15.1342L24.3052 -13.3536L20.3439 -11.4731L16.383 -9.49266L12.4231 -7.41259L8.46441 -5.23309L4.50737 -2.9544L0.552326 -0.576807L-3.40036 1.8994L-7.35035 4.47391L-11.2973 7.14637L-15.241 9.91644L-19.181 12.7837L-10.1654 47.5009" stroke="#00bf28"/>
 </g>
 <path stroke-width="1.133858" d="M-23.4747 21.5728L-30.7099 33.8735" stroke="#ff6321"/>
 <g stroke-linecap="butt" stroke-dasharray="none">
  <path fill="#ff6321" d="M-27.7085 34.1198L-33.3655 38.3881L-32.3836 31.3699L-30.7099 33.8735Z"/>
 </g>
 <g transform="matrix(1.400000,-0.000000,-0.000000,1.400000,-33.365462,38.388149)">
  <g transform="matrix(1.000000,0.000000,0.000000,1.000000,0.000000,-0.000000)">
   <path fill="#ff6321" d="M-3.32251 5.3134M-0.764104 0.12486C-0.764104 -0.102288 -0.991252 -0.090333 -1.14667 -0.0783778L-2.64107 -0.00664683C-2.82039 0.00530834 -3.03559 0.0172635 -3.03559 0.352008C-3.03559 0.567201 -2.82039 0.567201 -2.7128 0.567201C-2.56933 0.567201 -2.35414 0.579156 -2.21068 0.591112L-3.32251 5.09821C-3.32251 5.26558 -3.17905 5.3134 -3.04754 5.3134L-2.7128 5.3134C-1.43359 5.11017 0.168399 4.51241 1.49542 3.40058C3.08546 2.0616 3.34847 0.567201 3.34847 0.435694C3.34847 0.172681 3.15719 -0.090333 2.78658 -0.090333C2.61921 -0.090333 2.16491 -0.00664683 1.99754 0.543291C1.72257 1.52361 1.25632 2.38439 0.539009 3.11365C0.156444 3.48426 -0.680418 4.2733 -1.88789 4.66782ZM-1.88789 4.66782"/>
  </g>
 </g>
 <g transform="matrix(1.400000,-0.000000,-0.000000,1.400000,-5.669291,-51.023622)">
  <g transform="matrix(1.000000,0.000000,0.000000,1.000000,0.000000,-0.000000)">
   <path fill="#000" d="M-6.07123 -0M0.384562 -2.39103L0.169369 -2.45081C-0.105599 -1.36289 -0.643582 -1.08792 -1.7315 -1.08792L-4.7442 -1.08792L-1.99452 -4.32777L-4.40946 -7.42416L-1.70759 -7.42416C-0.619672 -7.42416 -0.272972 -6.99377 -0.201241 -5.92976L0.0139522 -5.92976L-0.141465 -7.91432L-6.07123 -7.91432L-6.07123 -7.71108L-3.02266 -3.80174L-6.07123 -0.215193L-6.07123 -0L0.0498177 -0ZM0.0498177 -0"/>
   <path fill="#000" d="M1.18954 -4.33971M5.27023 -6.16487L5.27023 -6.6112L3.45305 -6.6112L3.45305 -8.41244L3.00672 -8.41244L3.00672 -6.6112L1.18954 -6.6112L1.18954 -6.16487L3.00672 -6.16487L3.00672 -4.33971L3.45305 -4.33971L3.45305 -6.16487ZM3.45305 -6.16487"/>
  </g>
 </g>
 <g transform="matrix(1.400000,-0.000000,-0.000000,1.400000,-5.669291,62.362205)">
  <g transform="matrix(1.000000,0.000000,0.000000,1.000000,0.000000,-0.000000)">
   <path fill="#000" d="M-6.07123 -0M0.384562 -2.39103L0.169369 -2.45081C-0.105599 -1.36289 -0.643582 -1.08792 -1.7315 -1.08792L-4.7442 -1.08792L-1.99452 -4.32777L-4.40946 -7.42416L-1.70759 -7.42416C-0.619672 -7.42416 -0.272972 -6.99377 -0.201241 -5.92976L0.0139522 -5.92976L-0.141465 -7.91432L-6.07123 -7.91432L-6.07123 -7.71108L-3.02266 -3.80174L-6.07123 -0.215193L-6.07123 -0L0.0498177 -0ZM0.0498177 -0"/>
   <path fill="#000" d="M1.18954 -4.33971M5.27023 -6.16487L5.27023 -6.6112L1.18954 -6.6112L1.18954 -6.16487ZM1.18954 -6.16487"/>
  </g>
 </g>
 <g transform="matrix(1.400000,-0.000000,-0.000000,1.400000,70.866142,-0.000000)">
  <g transform="matrix(1.000000,0.000000,0.000000,1.000000,0.000000,-0.000000)">
   <path fill="#000" d="M-7.52577 4.88965M-1.06997 2.49862L-1.28517 2.43884C-1.56014 3.52676 -2.09812 3.80173 -3.18604 3.80173L-6.19874 3.80173L-3.44905 0.561882L-5.864 -2.53451L-3.16213 -2.53451C-2.07421 -2.53451 -1.72751 -2.10412 -1.65578 -1.04011L-1.44058 -1.04011L-1.596 -3.02467L-7.52577 -3.02467L-7.52577 -2.82143L-4.4772 1.08791L-7.52577 4.67446L-7.52577 4.88965L-1.40472 4.88965ZM-1.40472 4.88965"/>
   <path fill="#000" d="M-0.607714 0.54994M-0.607714 -4.41544L-0.559894 -4.41544C-0.472223 -4.42341 -0.376581 -4.43138 -0.31282 -4.43138C-0.0577767 -4.43138 0.0219244 -4.3198 0.0219244 -3.9452L0.0219244 -0.14346C0.0219244 0.286926 -0.0896572 0.390537 -0.591774 0.430388L-0.591774 0.54994L1.28917 0.54994L1.28917 0.430388C0.787055 0.398508 0.691414 0.318806 0.691414 -0.11955L0.691414 -4.87771L0.659533 -4.89365C0.245088 -4.75815 -0.0577767 -4.67845 -0.607714 -4.54296ZM-0.607714 -4.54296"/>
   <path fill="#000" d="M1.75144 0.54994M4.97933 0.0239123C4.84384 0.135494 4.7482 0.175344 4.62865 0.175344C4.44534 0.175344 4.38954 0.0637628 4.38954 -0.286922L4.38954 -1.84109C4.38954 -2.25554 4.34969 -2.48667 4.23014 -2.67796C4.0548 -2.96488 3.71209 -3.11631 3.24185 -3.11631C2.49266 -3.11631 1.90287 -2.72578 1.90287 -2.22366C1.90287 -2.04035 2.06227 -1.88094 2.24558 -1.88094C2.43687 -1.88094 2.60424 -2.04035 2.60424 -2.21569C2.60424 -2.24757 2.59627 -2.28742 2.5883 -2.34321C2.57236 -2.41494 2.56439 -2.4787 2.56439 -2.53449C2.56439 -2.74969 2.81943 -2.92503 3.13824 -2.92503C3.52877 -2.92503 3.74397 -2.6939 3.74397 -2.26351L3.74397 -1.77733C2.51657 -1.28319 2.38108 -1.21943 2.03836 -0.916561C1.86302 -0.757159 1.75144 -0.486175 1.75144 -0.223161C1.75144 0.278956 2.10212 0.629641 2.5883 0.629641C2.93898 0.629641 3.26576 0.462268 3.75194 0.0478226C3.79179 0.462268 3.93525 0.629641 4.26202 0.629641C4.53301 0.629641 4.70038 0.533999 4.97933 0.231135ZM4.97933 0.231135M3.74397 -0.430384C3.74397 -0.183311 3.70412 -0.11158 3.53674 -0.0159383C3.34546 0.0956433 3.1223 0.167374 2.95492 0.167374C2.67597 0.167374 2.45281 -0.10361 2.45281 -0.446324L2.45281 -0.478205C2.45281 -0.948441 2.77958 -1.23537 3.74397 -1.58605ZM3.74397 -1.58605"/>
   <path fill="#000" d="M5.09889 0.54994M7.02765 -3.03661L6.22267 -3.03661L6.22267 -3.96114C6.22267 -4.04084 6.2147 -4.06476 6.16688 -4.06476C6.11109 -3.99302 6.06327 -3.92129 6.00748 -3.84159C5.70462 -3.40324 5.3619 -3.02067 5.23438 -2.98879C5.14671 -2.933 5.09889 -2.87721 5.09889 -2.83736C5.09889 -2.81345 5.10686 -2.79751 5.13077 -2.78157L5.55318 -2.78157L5.55318 -0.382563C5.55318 0.286926 5.79229 0.629641 6.26252 0.629641C6.65306 0.629641 6.95592 0.438358 7.21894 0.0239123L7.11533 -0.063759C6.94795 0.135494 6.81246 0.215195 6.63712 0.215195C6.34222 0.215195 6.22267 1.94583e-06 6.22267 -0.502115L6.22267 -2.78157L7.02765 -2.78157ZM7.02765 -2.78157"/>
  </g>
 </g>
</svg>
