<?xml version="1.0" encoding="utf-8"?>
<svg xmlns="http://www.w3.org/2000/svg" version="1.1" fill="none" stroke-miterlimit="10.000000" stroke-width="0.566929" x="-161.352pt" height="162.725pt" viewBox="-161.352 -81.3626 322.704 162.725" width="322.704pt" y="-81.3626pt">
 <path fill="#00f" d="M-1.25884e-14 -80.1759L-8.43957 -80.3626L-16.8791 -80.0598L-25.3187 -79.2673L-33.7583 -77.9852L-42.1978 -76.2135L-50.6374 -73.9522L-59.077 -71.2012L-67.5165 -67.9607L-75.9561 -64.2305L-84.3957 -60.0107L-92.8352 -55.3013L-101.275 -50.1023L-109.714 -44.4137L-118.154 -38.2354L-126.594 -31.5676L-135.033 -24.4101L-143.473 -16.763L-151.912 -8.62632L-160.352 6.29418e-15L-160.352 6.29418e-15L-151.912 8.62632L-143.473 16.763L-135.033 24.4101L-126.594 31.5676L-118.154 38.2354L-109.714 44.4137L-101.275 50.1023L-92.8352 55.3013L-84.3957 60.0107L-75.9561 64.2305L-67.5165 67.9607L-59.077 71.2012L-50.6374 73.9522L-42.1978 76.2135L-33.7583 77.9852L-25.3187 79.2673L-16.8791 80.0598L-8.43957 80.3626L1.25884e-14 80.1759L1.25884e-14 80.1759L8.43957 71.5496L16.8791 63.4129L25.3187 55.7658L33.7583 48.6083L42.1978 41.9404L50.6374 35.7622L59.077 30.0736L67.5165 24.8746L75.9561 20.1652L84.3957 15.9454L92.8352 12.2152L101.275 8.97466L109.714 6.22372L118.154 3.96239L126.594 2.19068L135.033 0.908591L143.473 0.116112L151.912 -0.186751L160.352 -6.29418e-15L160.352 -6.29418e-15L151.912 0.186751L143.473 -0.116112L135.033 -0.908591L126.594 -2.19068L118.154 -3.96239L109.714 -6.22372L101.275 -8.97466L92.8352 -12.2152L84.3957 -15.9454L75.9561 -20.1652L67.5165 -24.8746L59.077 -30.0736L50.6374 -35.7622L42.1978 -41.9404L33.7583 -48.6083L25.3187 -55.7658L16.8791 -63.4129L8.43957 -71.5496L-1.25884e-14 -80.1759L-40.0879 25.5674L-45.9994 21.8083L-50.7194 17.0809L-54.1259 11.5708L-56.1305 5.51947L-56.6814 -0.793222L-55.7643 -7.06824L-53.4029 -13.0093L-49.6584 -18.3444L-44.6277 -22.8448L-38.4413 -26.3404L-31.2592 -28.7297L-23.2675 -29.9835L-14.6732 -30.1423L-5.69889 -29.3077L3.42303 -27.629L12.4563 -25.2859L21.1669 -22.4704L29.3294 -19.3676L36.7322 -16.1399L43.1837 -12.9142L48.5167 -9.7739L52.5932 -6.75723L55.3076 -3.86028L56.5895 -1.04574L56.4058 1.74461L54.7611 4.57487L51.6983 7.49937L47.2964 10.5481L41.6696 13.7151L34.9636 16.9509L27.352 20.1608L19.0321 23.2081L10.2192 25.9235L1.14163 28.1183L-7.96549 29.602L-16.8663 30.2006L-25.3303 29.7754L-33.1383 28.2389L-40.0879 25.5674Z" opacity="0.150000"/>
 <path stroke-width="1.603518" fill="none" d="M-40.0879 25.5674L-45.9994 21.8083L-50.7194 17.0809L-54.1259 11.5708L-56.1305 5.51947L-56.6814 -0.793222L-55.7643 -7.06824L-53.4029 -13.0093L-49.6584 -18.3444L-44.6277 -22.8448L-38.4413 -26.3404L-31.2592 -28.7297L-23.2675 -29.9835L-14.6732 -30.1423L-5.69889 -29.3077L3.42303 -27.629L12.4563 -25.2859L21.1669 -22.4704L29.3294 -19.3676L36.7322 -16.1399L43.1837 -12.9142L48.5167 -9.7739L52.5932 -6.75723L55.3076 -3.86028L56.5895 -1.04574L56.4058 1.74461L54.7611 4.57487L51.6983 7.49937L47.2964 10.5481L41.6696 13.7151L34.9636 16.9509L27.352 20.1608L19.0321 23.2081L10.2192 25.9235L1.14163 28.1183L-7.96549 29.602L-16.8663 30.2006L-25.3303 29.7754L-33.1383 28.2389L-40.0879 25.5674" stroke="#00f"/>
 <path stroke-width="1.603518" fill="#00f" d="M-40.0879 25.5674L-45.9994 21.8083L-50.7194 17.0809L-54.1259 11.5708L-56.1305 5.51947L-56.6814 -0.793222L-55.7643 -7.06824L-53.4029 -13.0093L-49.6584 -18.3444L-44.6277 -22.8448L-38.4413 -26.3404L-31.2592 -28.7297L-23.2675 -29.9835L-14.6732 -30.1423L-5.69889 -29.3077L3.42303 -27.629L12.4563 -25.2859L21.1669 -22.4704L29.3294 -19.3676L36.7322 -16.1399L43.1837 -12.9142L48.5167 -9.7739L52.5932 -6.75723L55.3076 -3.86028L56.5895 -1.04574L56.4058 1.74461L54.7611 4.57487L51.6983 7.49937L47.2964 10.5481L41.6696 13.7151L34.9636 16.9509L27.352 20.1608L19.0321 23.2081L10.2192 25.9235L1.14163 28.1183L-7.96549 29.602L-16.8663 30.2006L-25.3303 29.7754L-33.1383 28.2389L-40.0879 25.5674" opacity="0.500000" stroke="none"/>
 <path stroke-width="1.133858" d="M-40.0879 25.5674L-43.4493 8.95114" stroke="#ff6321"/>
 <g stroke-linecap="butt" stroke-dasharray="none">
  <path fill="#ff6321" d="M-45.8478 10.7723L-44.4878 3.81739L-40.5316 9.69686L-43.4493 8.95114Z"/>
 </g>
 <path stroke-width="1.133858" d="M-25.738 29.7255L-30.0311 12.274" stroke="#ff6321"/>
 <g stroke-linecap="butt" stroke-dasharray="none">
  <path fill="#ff6321" d="M-32.3517 14.1934L-31.2822 7.18791L-27.0849 12.8977L-30.0311 12.274Z"/>
 </g>
 <path stroke-width="1.133858" d="M-8.86873 29.7043L-13.6874 11.3078" stroke="#ff6321"/>
 <g stroke-linecap="butt" stroke-dasharray="none">
  <path fill="#ff6321" d="M-15.979 13.2617L-15.0145 6.24101L-10.7321 11.8874L-13.6874 11.3078Z"/>
 </g>
 <path stroke-width="1.133858" d="M8.86873 26.2906L4.00044 6.93348" stroke="#ff6321"/>
 <g stroke-linecap="butt" stroke-dasharray="none">
  <path fill="#ff6321" d="M1.68979 8.86482L2.72294 1.85392L6.94984 7.54192L4.00044 6.93348Z"/>
 </g>
 <path stroke-width="1.133858" d="M25.738 20.7883L21.3124 0.542755" stroke="#ff6321"/>
 <g stroke-linecap="butt" stroke-dasharray="none">
  <path fill="#ff6321" d="M18.9427 2.40113L20.1939 -4.57416L24.2414 1.24284L21.3124 0.542755Z"/>
 </g>
 <path stroke-width="1.133858" d="M40.0879 14.5205L36.5571 -6.46431" stroke="#ff6321"/>
 <g stroke-linecap="butt" stroke-dasharray="none">
  <path fill="#ff6321" d="M34.1 -4.72305L35.688 -11.6294L39.4487 -5.623L36.5571 -6.46431Z"/>
 </g>
 <path stroke-width="1.133858" d="M50.5138 8.40044L48.2395 -13.1129" stroke="#ff6321"/>
 <g stroke-linecap="butt" stroke-dasharray="none">
  <path fill="#ff6321" d="M45.6802 -11.5257L47.6888 -18.3217L51.074 -12.0959L48.2395 -13.1129Z"/>
 </g>
 <path stroke-width="1.133858" d="M55.9949 2.72752L55.2101 -19.061" stroke="#ff6321"/>
 <g stroke-linecap="butt" stroke-dasharray="none">
  <path fill="#ff6321" d="M52.547 -17.6548L55.0215 -24.2954L57.9674 -17.8501L55.2101 -19.061Z"/>
 </g>
 <path stroke-width="1.133858" d="M55.9949 -2.72752L56.7798 -24.5161" stroke="#ff6321"/>
 <g stroke-linecap="butt" stroke-dasharray="none">
  <path fill="#ff6321" d="M54.0225 -23.3051L56.9683 -29.7504L59.4428 -23.1099L56.7798 -24.5161Z"/>
 </g>
 <path stroke-width="1.133858" d="M50.5138 -8.40044L52.788 -29.9138" stroke="#ff6321"/>
 <g stroke-linecap="butt" stroke-dasharray="none">
  <path fill="#ff6321" d="M49.9535 -28.8967L53.3387 -35.1225L55.3473 -28.3265L52.788 -29.9138Z"/>
 </g>
 <path stroke-width="1.133858" d="M40.0879 -14.5205L43.6188 -35.5053" stroke="#ff6321"/>
 <g stroke-linecap="butt" stroke-dasharray="none">
  <path fill="#ff6321" d="M40.7272 -34.664L44.4878 -40.6705L46.0758 -33.7641L43.6188 -35.5053Z"/>
 </g>
 <path stroke-width="1.133858" d="M25.738 -20.7883L30.1637 -41.0338" stroke="#ff6321"/>
 <g stroke-linecap="butt" stroke-dasharray="none">
  <path fill="#ff6321" d="M27.2347 -40.3338L31.2822 -46.1508L32.5334 -39.1755L30.1637 -41.0338Z"/>
 </g>
 <path stroke-width="1.133858" d="M8.86873 -26.2906L13.737 -45.6478" stroke="#ff6321"/>
 <g stroke-linecap="butt" stroke-dasharray="none">
  <path fill="#ff6321" d="M10.7876 -45.0393L15.0145 -50.7273L16.0477 -43.7164L13.737 -45.6478Z"/>
 </g>
 <path stroke-width="1.133858" d="M-8.86873 -29.7043L-4.0501 -48.1008" stroke="#ff6321"/>
 <g stroke-linecap="butt" stroke-dasharray="none">
  <path fill="#ff6321" d="M-7.00532 -47.5213L-2.72294 -53.1676L-1.75846 -46.1469L-4.0501 -48.1008Z"/>
 </g>
 <path stroke-width="1.133858" d="M-25.738 -29.7255L-21.445 -47.1769" stroke="#ff6321"/>
 <g stroke-linecap="butt" stroke-dasharray="none">
  <path fill="#ff6321" d="M-24.3912 -46.5532L-20.1939 -52.263L-19.1244 -45.2576L-21.445 -47.1769Z"/>
 </g>
 <path stroke-width="1.133858" d="M-40.0879 -25.5674L-36.7266 -42.1837" stroke="#ff6321"/>
 <g stroke-linecap="butt" stroke-dasharray="none">
  <path fill="#ff6321" d="M-39.6443 -41.438L-35.688 -47.3175L-34.3281 -40.3626L-36.7266 -42.1837Z"/>
 </g>
 <path stroke-width="1.133858" d="M-50.5138 -17.3376L-48.3814 -33.3237" stroke="#ff6321"/>
 <g stroke-linecap="butt" stroke-dasharray="none">
  <path fill="#ff6321" d="M-51.2426 -32.3844L-47.6888 -38.5155L-45.8664 -31.6672L-48.3814 -33.3237Z"/>
 </g>
 <path stroke-width="1.133858" d="M-55.9949 -6.14121L-55.2655 -21.7863" stroke="#ff6321"/>
 <g stroke-linecap="butt" stroke-dasharray="none">
  <path fill="#ff6321" d="M-58.0355 -20.6046L-55.0215 -27.0183L-52.6175 -20.3519L-55.2655 -21.7863Z"/>
 </g>
 <path stroke-width="1.133858" d="M-55.9949 6.14121L-56.7244 -9.50384" stroke="#ff6321"/>
 <g stroke-linecap="butt" stroke-dasharray="none">
  <path fill="#ff6321" d="M-59.3724 -8.06952L-56.9683 -14.7359L-53.9544 -8.32213L-56.7244 -9.50384Z"/>
 </g>
 <path stroke-width="1.133858" d="M-50.5138 17.3376L-52.6461 1.35146" stroke="#ff6321"/>
 <g stroke-linecap="butt" stroke-dasharray="none">
  <path fill="#ff6321" d="M-55.1611 3.00796L-53.3387 -3.8403L-49.7849 2.29083L-52.6461 1.35146Z"/>
 </g>
 <g transform="matrix(1.400000,-0.000000,-0.000000,1.400000,91.400511,-0.000000)">
  <g transform="matrix(1.000000,0.000000,0.000000,1.000000,0.000000,-0.000000)">
   <path fill="#000" d="M0.191283 3.999M6.64707 1.60796L6.43188 1.54819C6.15691 2.63611 5.61893 2.91108 4.53101 2.91108L1.51831 2.91108L4.268 -0.328775L1.85305 -3.42516L4.55492 -3.42516C5.64284 -3.42516 5.98954 -2.99478 6.06127 -1.93077L6.27646 -1.93077L6.12105 -3.91533L0.191283 -3.91533L0.191283 -3.71209L3.23985 0.197253L0.191283 3.7838L0.191283 3.999L6.31233 3.999ZM6.31233 3.999"/>
  </g>
 </g>
 <g transform="matrix(1.400000,-0.000000,-0.000000,1.400000,-1.304343,-31.427690)">
  <g transform="matrix(1.000000,0.000000,0.000000,1.000000,0.000000,-0.000000)">
   <path fill="#000" d="M0.143462 -0M6.52752 -6.20473L6.49166 -7.91432L0.143462 -7.91432L0.143462 -7.68717C0.980324 -7.6274 1.18356 -7.47198 1.18356 -6.61121L1.18356 -1.43462C1.18356 -0.537983 1.08792 -0.274969 0.143462 -0.227148L0.143462 -0L3.49091 -0L3.49091 -0.227148C2.64209 -0.263014 2.40299 -0.430386 2.40299 -1.30311L2.40299 -7.05355C2.40299 -7.36438 2.46276 -7.46002 2.78555 -7.46002L4.41146 -7.46002C5.49938 -7.46002 6.0254 -7.4122 6.22864 -6.20473ZM6.22864 -6.20473"/>
  </g>
 </g>
</svg>
