<?xml version="1.0" encoding="utf-8"?>
<svg xmlns="http://www.w3.org/2000/svg" version="1.1" fill="none" stroke-miterlimit="10.000000" stroke-width="0.566929" x="-161.352pt" height="193.638pt" viewBox="-161.352 -96.8189 322.704 193.638" width="322.704pt" y="-96.8189pt">
 <path fill="#00bf28" d="M-11.4143 -64.643L-19.412 -64.9063L-27.381 -64.7049L-35.3218 -64.0403L-43.235 -62.9136L-51.122 -61.3257L-58.9843 -59.2771L-66.8244 -56.768L-74.6446 -53.798L-82.4483 -50.366L-90.2386 -46.4708L-98.0193 -42.1106L-105.794 -37.2832L-113.567 -31.9859L-121.341 -26.2161L-129.121 -19.9707L-136.909 -13.2468L-144.708 -6.04138L-152.522 1.64856L-160.352 9.82575L-160.352 9.82575L-151.303 18.9012L-142.237 27.4847L-133.157 35.5734L-124.066 43.1644L-114.967 50.2548L-105.862 56.8415L-96.7555 62.9215L-87.6512 68.492L-78.5527 73.5506L-69.4639 78.095L-60.3884 82.1234L-51.3296 85.6344L-42.2905 88.6272L-33.2737 91.1013L-24.2815 93.0569L-15.3156 94.4943L-6.37724 95.4146L2.53284 95.8189L11.4143 95.7088L11.4143 95.7088L19.412 87.6154L27.381 80.0032L35.3218 72.8684L43.235 66.2071L51.122 60.0155L58.9843 54.2897L66.8244 49.0261L74.6446 44.2214L82.4483 39.8726L90.2386 35.9775L98.0193 32.534L105.794 29.5412L113.567 26.9984L121.341 24.9059L129.121 23.2643L136.909 22.0749L144.708 21.3396L152.522 21.0605L160.352 21.2401L160.352 21.2401L151.303 21.434L142.237 21.1074L133.157 20.2578L124.066 18.8829L114.967 16.9811L105.862 14.551L96.7555 11.5919L87.6512 8.10361L78.5527 4.0867L69.4639 -0.457696L60.3884 -5.52775L51.3296 -11.1211L42.2905 -17.2347L33.2737 -23.8654L24.2815 -31.0095L15.3156 -38.6632L6.37724 -46.8225L-2.53284 -55.4837L-11.4143 -64.643L-36.788 41.88L-43.2715 37.8776L-48.6343 32.9558L-52.7375 27.3056L-55.4748 21.1717L-56.7754 14.8364L-56.6055 8.59908L-54.9695 2.75519L-51.9099 -2.42576L-47.5058 -6.71907L-41.8714 -9.96005L-35.1525 -12.0538L-27.5231 -12.9787L-19.181 -12.7837L-10.342 -11.5798L-1.23525 -9.52557L7.90354 -6.81073L16.8376 -3.63667L25.3356 -0.197922L33.1775 3.33444L40.16 6.82571L46.1024 10.1855L50.8508 13.3699L54.2822 16.3786L56.3077 19.2459L56.8749 22.0287L55.969 24.7913L53.6136 27.5897L49.8696 30.4573L44.834 33.3926L38.6372 36.3524L31.4398 39.2491L23.428 41.954L14.8095 44.3066L5.80748 46.1278L-3.34499 47.2366L-12.4108 47.469L-21.1552 46.6954L-29.3517 44.8375L-36.788 41.88" opacity="0.150000"/>
 <path fill="#00bf28" d="M11.4143 -95.7088L2.53284 -95.8189L-6.37724 -95.4146L-15.3156 -94.4943L-24.2815 -93.0569L-33.2737 -91.1013L-42.2905 -88.6272L-51.3296 -85.6344L-60.3884 -82.1234L-69.4639 -78.095L-78.5527 -73.5506L-87.6512 -68.492L-96.7555 -62.9215L-105.862 -56.8415L-114.967 -50.2548L-124.066 -43.1644L-133.157 -35.5734L-142.237 -27.4847L-151.303 -18.9012L-160.352 -9.82575L-160.352 -9.82575L-152.522 -1.64856L-144.708 6.04138L-136.909 13.2468L-129.121 19.9707L-121.341 26.2161L-113.567 31.9859L-105.794 37.2832L-98.0193 42.1106L-90.2386 46.4708L-82.4483 50.366L-74.6446 53.798L-66.8244 56.768L-58.9843 59.2771L-51.122 61.3257L-43.235 62.9136L-35.3218 64.0403L-27.381 64.7049L-19.412 64.9063L-11.4143 64.643L-11.4143 64.643L-2.53284 55.4837L6.37724 46.8225L15.3156 38.6632L24.2815 31.0095L33.2737 23.8654L42.2905 17.2347L51.3296 11.1211L60.3884 5.52775L69.4639 0.457696L78.5527 -4.0867L87.6512 -8.10361L96.7555 -11.5919L105.862 -14.551L114.967 -16.9811L124.066 -18.8829L133.157 -20.2578L142.237 -21.1074L151.303 -21.434L160.352 -21.2401L160.352 -21.2401L152.522 -21.0605L144.708 -21.3396L136.909 -22.0749L129.121 -23.2643L121.341 -24.9059L113.567 -26.9984L105.794 -29.5412L98.0193 -32.534L90.2386 -35.9775L82.4483 -39.8726L74.6446 -44.2214L66.8244 -49.0261L58.9843 -54.2897L51.122 -60.0155L43.235 -66.2071L35.3218 -72.8684L27.381 -80.0032L19.412 -87.6154L11.4143 -95.7088L-43.3879 9.2549L-48.7272 5.73911L-52.8046 1.20589L-55.5143 -4.16391L-56.7862 -10.1328L-56.5874 -16.4228L-54.9231 -22.7356L-51.8362 -28.7738L-47.4068 -34.263L-41.7496 -38.9705L-35.0111 -42.7207L-27.3659 -45.4056L-19.0118 -46.9884L-10.1654 -47.5009L-1.05573 -47.0357L8.08131 -45.7323L17.0091 -43.7611L25.4963 -41.3041L33.3231 -38.5372L40.287 -35.6142L46.2074 -32.654L50.931 -29.7333L54.3356 -26.8844L56.3329 -24.0992L56.8713 -21.3374L55.9366 -18.5395L53.5533 -15.6415L49.7829 -12.591L44.7232 -9.36104L38.5052 -5.96249L31.29 -2.45066L23.2643 1.07253L14.6361 4.46231L5.62883 7.54038L-3.52422 10.1088L-12.586 11.9673L-21.3218 12.9323L-29.5054 12.8555L-36.9248 11.6403L-43.3879 9.2549" opacity="0.150000"/>
 <path stroke-width="1.603518" fill="none" d="M-43.3879 9.2549L-48.7272 5.73911L-52.8046 1.20589L-55.5143 -4.16391L-56.7862 -10.1328L-56.5874 -16.4228L-54.9231 -22.7356L-51.8362 -28.7738L-47.4068 -34.263L-41.7496 -38.9705L-35.0111 -42.7207L-27.3659 -45.4056L-19.0118 -46.9884L-10.1654 -47.5009L-1.05573 -47.0357L8.08131 -45.7323L17.0091 -43.7611L25.4963 -41.3041L33.3231 -38.5372L40.287 -35.6142L46.2074 -32.654L50.931 -29.7333L54.3356 -26.8844L56.3329 -24.0992L56.8713 -21.3374L55.9366 -18.5395L53.5533 -15.6415L49.7829 -12.591L44.7232 -9.36104L38.5052 -5.96249L31.29 -2.45066L23.2643 1.07253L14.6361 4.46231L5.62883 7.54038L-3.52422 10.1088L-12.586 11.9673L-21.3218 12.9323L-29.5054 12.8555L-36.9248 11.6403L-43.3879 9.2549" stroke="#00bf28"/>
 <path stroke-width="1.603518" fill="#00bf28" d="M-43.3879 9.2549L-48.7272 5.73911L-52.8046 1.20589L-55.5143 -4.16391L-56.7862 -10.1328L-56.5874 -16.4228L-54.9231 -22.7356L-51.8362 -28.7738L-47.4068 -34.263L-41.7496 -38.9705L-35.0111 -42.7207L-27.3659 -45.4056L-19.0118 -46.9884L-10.1654 -47.5009L-1.05573 -47.0357L8.08131 -45.7323L17.0091 -43.7611L25.4963 -41.3041L33.3231 -38.5372L40.287 -35.6142L46.2074 -32.654L50.931 -29.7333L54.3356 -26.8844L56.3329 -24.0992L56.8713 -21.3374L55.9366 -18.5395L53.5533 -15.6415L49.7829 -12.591L44.7232 -9.36104L38.5052 -5.96249L31.29 -2.45066L23.2643 1.07253L14.6361 4.46231L5.62883 7.54038L-3.52422 10.1088L-12.586 11.9673L-21.3218 12.9323L-29.5054 12.8555L-36.9248 11.6403L-43.3879 9.2549" opacity="0.500000" stroke="none"/>
 <path stroke-width="1.603518" fill="none" d="M-36.788 41.88L-43.2715 37.8776L-48.6343 32.9558L-52.7375 27.3056L-55.4748 21.1717L-56.7754 14.8364L-56.6055 8.59908L-54.9695 2.75519L-51.9099 -2.42576L-47.5058 -6.71907L-41.8714 -9.96005L-35.1525 -12.0538L-27.5231 -12.9787L-19.181 -12.7837L-10.342 -11.5798L-1.23525 -9.52557L7.90354 -6.81073L16.8376 -3.63667L25.3356 -0.197922L33.1775 3.33444L40.16 6.82571L46.1024 10.1855L50.8508 13.3699L54.2822 16.3786L56.3077 19.2459L56.8749 22.0287L55.969 24.7913L53.6136 27.5897L49.8696 30.4573L44.834 33.3926L38.6372 36.3524L31.4398 39.2491L23.428 41.954L14.8095 44.3066L5.80748 46.1278L-3.34499 47.2366L-12.4108 47.469L-21.1552 46.6954L-29.3517 44.8375L-36.788 41.88" stroke="#00bf28"/>
 <path stroke-width="1.603518" fill="#00bf28" d="M-36.788 41.88L-43.2715 37.8776L-48.6343 32.9558L-52.7375 27.3056L-55.4748 21.1717L-56.7754 14.8364L-56.6055 8.59908L-54.9695 2.75519L-51.9099 -2.42576L-47.5058 -6.71907L-41.8714 -9.96005L-35.1525 -12.0538L-27.5231 -12.9787L-19.181 -12.7837L-10.342 -11.5798L-1.23525 -9.52557L7.90354 -6.81073L16.8376 -3.63667L25.3356 -0.197922L33.1775 3.33444L40.16 6.82571L46.1024 10.1855L50.8508 13.3699L54.2822 16.3786L56.3077 19.2459L56.8749 22.0287L55.969 24.7913L53.6136 27.5897L49.8696 30.4573L44.834 33.3926L38.6372 36.3524L31.4398 39.2491L23.428 41.954L14.8095 44.3066L5.80748 46.1278L-3.34499 47.2366L-12.4108 47.469L-21.1552 46.6954L-29.3517 44.8375L-36.788 41.88" opacity="0.500000" stroke="none"/>
 <path stroke-width="1.133858" d="M-36.788 41.88L-43.3879 9.2549" stroke="#ff6321"/>
 <path stroke-width="1.133858" d="M-21.5799 46.6286L-29.8962 12.8223" stroke="#ff6321"/>
 <path stroke-width="1.133858" d="M-4.25939 47.3018L-13.4781 12.1068" stroke="#ff6321"/>
 <path stroke-width="1.133858" d="M13.4781 44.6181L4.25939 7.96309" stroke="#ff6321"/>
 <path stroke-width="1.133858" d="M29.8962 39.8101L21.5799 1.76646" stroke="#ff6321"/>
 <path stroke-width="1.133858" d="M43.3879 34.133L36.788 -5.09196" stroke="#ff6321"/>
 <path stroke-width="1.133858" d="M52.6324 28.442L48.3951 -11.6411" stroke="#ff6321"/>
 <path stroke-width="1.133858" d="M56.725 22.9947L55.2649 -17.5397" stroke="#ff6321"/>
 <path stroke-width="1.133858" d="M55.2649 17.5397L56.725 -22.9947" stroke="#ff6321"/>
 <path stroke-width="1.133858" d="M48.3951 11.6411L52.6324 -28.442" stroke="#ff6321"/>
 <path stroke-width="1.133858" d="M36.788 5.09196L43.3879 -34.133" stroke="#ff6321"/>
 <path stroke-width="1.133858" d="M21.5799 -1.76646L29.8962 -39.8101" stroke="#ff6321"/>
 <path stroke-width="1.133858" d="M4.25939 -7.96309L13.4781 -44.6181" stroke="#ff6321"/>
 <path stroke-width="1.133858" d="M-13.4781 -12.1068L-4.25939 -47.3018" stroke="#ff6321"/>
 <path stroke-width="1.133858" d="M-29.8962 -12.8223L-21.5799 -46.6286" stroke="#ff6321"/>
 <path stroke-width="1.133858" d="M-43.3879 -9.2549L-36.788 -41.88" stroke="#ff6321"/>
 <path stroke-width="1.133858" d="M-52.6324 -1.45417L-48.3951 -33.221" stroke="#ff6321"/>
 <path stroke-width="1.133858" d="M-56.725 9.51662L-55.2649 -21.799" stroke="#ff6321"/>
 <path stroke-width="1.133858" d="M-55.2649 21.799L-56.725 -9.51662" stroke="#ff6321"/>
 <path stroke-width="1.133858" d="M-48.3951 33.221L-52.6324 1.45417" stroke="#ff6321"/>
 <g transform="matrix(1.400000,-0.000000,-0.000000,1.400000,91.400511,-20.932852)">
  <g transform="matrix(1.000000,0.000000,0.000000,1.000000,0.000000,-0.000000)">
   <path fill="#000" d="M0.191283 4.20621M6.64707 1.81518L6.43188 1.7554C6.15691 2.84332 5.61893 3.11829 4.53101 3.11829L1.51831 3.11829L4.268 -0.121559L1.85305 -3.21795L4.55492 -3.21795C5.64284 -3.21795 5.98954 -2.78756 6.06127 -1.72355L6.27646 -1.72355L6.12105 -3.70811L0.191283 -3.70811L0.191283 -3.50487L3.23985 0.404468L0.191283 3.99102L0.191283 4.20621L6.31233 4.20621ZM6.31233 4.20621"/>
   <path fill="#000" d="M7.45205 -0.133502M11.5327 -1.95866L11.5327 -2.40498L9.71556 -2.40498L9.71556 -4.20623L9.26923 -4.20623L9.26923 -2.40498L7.45205 -2.40498L7.45205 -1.95866L9.26923 -1.95866L9.26923 -0.133502L9.71556 -0.133502L9.71556 -1.95866ZM9.71556 -1.95866"/>
  </g>
 </g>
 <g transform="matrix(1.400000,-0.000000,-0.000000,1.400000,91.400511,20.932852)">
  <g transform="matrix(1.000000,0.000000,0.000000,1.000000,0.000000,-0.000000)">
   <path fill="#000" d="M0.191283 4.21418M6.64707 1.82314L6.43188 1.76337C6.15691 2.85129 5.61893 3.12626 4.53101 3.12626L1.51831 3.12626L4.268 -0.113594L1.85305 -3.20998L4.55492 -3.20998C5.64284 -3.20998 5.98954 -2.7796 6.06127 -1.71559L6.27646 -1.71559L6.12105 -3.70014L0.191283 -3.70014L0.191283 -3.49691L3.23985 0.412434L0.191283 3.99898L0.191283 4.21418L6.31233 4.21418ZM6.31233 4.21418"/>
   <path fill="#000" d="M7.45205 -0.125536M11.5327 -1.95069L11.5327 -2.39702L7.45205 -2.39702L7.45205 -1.95069ZM7.45205 -1.95069"/>
  </g>
 </g>
</svg>
