<?xml version="1.0" encoding="utf-8" standalone="no"?>
<!DOCTYPE svg PUBLIC "-//W3C//DTD SVG 1.1//EN"
  "http://www.w3.org/Graphics/SVG/1.1/DTD/svg11.dtd">
<!-- Created with matplotlib (https://matplotlib.org/) -->
<svg height="216pt" version="1.1" viewBox="0 0 576 216" width="576pt" xmlns="http://www.w3.org/2000/svg" xmlns:xlink="http://www.w3.org/1999/xlink">
 <defs>
  <style type="text/css">
*{stroke-linecap:butt;stroke-linejoin:round;}
  </style>
 </defs>
 <g id="figure_1">
  <g id="patch_1">
   <path d="M 0 216 
L 576 216 
L 576 0 
L 0 0 
z
" style="fill:none;"/>
  </g>
  <g id="axes_1">
   <g id="patch_2">
    <path d="M 61.55 169.66 
L 553.59 169.66 
L 553.59 16.56 
L 61.55 16.56 
z
" style="fill:none;"/>
   </g>
   <g id="patch_3">
    <path clip-path="url(#pf62fded504)" d="M 61.55 169.66 
L 61.55 169.66 
L 63.51816 169.66 
L 63.51816 169.66 
L 65.48632 169.66 
L 65.48632 169.66 
L 67.45448 169.66 
L 67.45448 169.66 
L 69.42264 169.66 
L 69.42264 169.66 
L 71.3908 169.66 
L 71.3908 169.66 
L 73.35896 169.66 
L 73.35896 169.66 
L 75.32712 169.66 
L 75.32712 169.66 
L 77.29528 169.66 
L 77.29528 169.66 
L 79.26344 169.66 
L 79.26344 169.66 
L 81.2316 169.66 
L 81.2316 169.66 
L 83.19976 169.66 
L 83.19976 169.66 
L 85.16792 169.66 
L 85.16792 169.66 
L 87.13608 169.66 
L 87.13608 169.66 
L 89.10424 169.66 
L 89.10424 169.66 
L 91.0724 169.66 
L 91.0724 169.66 
L 93.04056 169.66 
L 93.04056 169.66 
L 95.00872 169.66 
L 95.00872 169.66 
L 96.97688 169.66 
L 96.97688 169.66 
L 98.94504 169.66 
L 98.94504 169.66 
L 100.9132 169.66 
L 100.9132 169.66 
L 102.88136 169.66 
L 102.88136 169.66 
L 104.84952 169.66 
L 104.84952 169.66 
L 106.81768 169.66 
L 106.81768 169.66 
L 108.78584 169.66 
L 108.78584 169.66 
L 110.754 169.66 
L 110.754 169.66 
L 112.72216 169.66 
L 112.72216 169.641896 
L 114.69032 169.641896 
L 114.69032 169.587584 
L 116.65848 169.587584 
L 116.65848 168.899632 
L 118.62664 168.899632 
L 118.62664 167.342689 
L 120.5948 167.342689 
L 120.5948 164.518467 
L 122.56296 164.518467 
L 122.56296 159.594182 
L 124.53112 159.594182 
L 124.53112 151.700843 
L 126.49928 151.700843 
L 126.49928 142.413497 
L 128.46744 142.413497 
L 128.46744 131.044192 
L 130.4356 131.044192 
L 130.4356 120.399047 
L 132.40376 120.399047 
L 132.40376 113.247972 
L 134.37192 113.247972 
L 134.37192 109.373718 
L 136.34008 109.373718 
L 136.34008 112.578124 
L 138.30824 112.578124 
L 138.30824 116.886873 
L 140.2764 116.886873 
L 140.2764 125.848348 
L 142.24456 125.848348 
L 142.24456 133.506335 
L 144.21272 133.506335 
L 144.21272 138.901323 
L 146.18088 138.901323 
L 146.18088 144.314416 
L 148.14904 144.314416 
L 148.14904 147.82659 
L 150.1172 147.82659 
L 150.1172 149.96286 
L 152.08536 149.96286 
L 152.08536 152.877603 
L 154.05352 152.877603 
L 154.05352 154.00005 
L 156.02168 154.00005 
L 156.02168 156.625128 
L 157.98984 156.625128 
L 157.98984 157.150144 
L 159.958 157.150144 
L 159.958 158.182071 
L 161.92616 158.182071 
L 161.92616 158.688983 
L 163.89432 158.688983 
L 163.89432 159.431246 
L 165.86248 159.431246 
L 165.86248 160.318342 
L 167.83064 160.318342 
L 167.83064 160.608006 
L 169.7988 160.608006 
L 169.7988 161.114917 
L 171.76696 161.114917 
L 171.76696 161.820973 
L 173.73512 161.820973 
L 173.73512 162.146845 
L 175.70328 162.146845 
L 175.70328 162.508925 
L 177.67144 162.508925 
L 177.67144 162.76238 
L 179.6396 162.76238 
L 179.6396 162.76238 
L 181.60776 162.76238 
L 181.60776 163.160668 
L 183.57592 163.160668 
L 183.57592 163.595164 
L 185.54408 163.595164 
L 185.54408 163.84862 
L 187.51224 163.84862 
L 187.51224 163.233084 
L 189.4804 163.233084 
L 189.4804 164.283115 
L 191.44856 164.283115 
L 191.44856 164.083972 
L 193.41672 164.083972 
L 193.41672 164.011556 
L 195.38488 164.011556 
L 195.38488 164.808131 
L 197.35304 164.808131 
L 197.35304 164.12018 
L 199.3212 164.12018 
L 199.3212 164.645195 
L 201.28936 164.645195 
L 201.28936 164.427947 
L 203.25752 164.427947 
L 203.25752 164.608987 
L 205.22568 164.608987 
L 205.22568 165.296939 
L 207.19384 165.296939 
L 207.19384 164.699507 
L 209.162 164.699507 
L 209.162 165.315043 
L 211.13016 165.315043 
L 211.13016 165.550395 
L 213.09832 165.550395 
L 213.09832 165.477979 
L 215.06648 165.477979 
L 215.06648 165.242627 
L 217.03464 165.242627 
L 217.03464 165.152107 
L 219.0028 165.152107 
L 219.0028 165.496083 
L 220.97096 165.496083 
L 220.97096 165.387459 
L 222.93912 165.387459 
L 222.93912 165.695227 
L 224.90728 165.695227 
L 224.90728 165.441771 
L 226.87544 165.441771 
L 226.87544 165.477979 
L 228.8436 165.477979 
L 228.8436 165.659019 
L 230.81176 165.659019 
L 230.81176 165.459875 
L 232.77992 165.459875 
L 232.77992 165.695227 
L 234.74808 165.695227 
L 234.74808 166.039202 
L 236.71624 166.039202 
L 236.71624 165.369355 
L 238.6844 165.369355 
L 238.6844 165.966786 
L 240.65256 165.966786 
L 240.65256 166.129722 
L 242.62072 166.129722 
L 242.62072 166.057306 
L 244.58888 166.057306 
L 244.58888 165.930578 
L 246.55704 165.930578 
L 246.55704 165.749538 
L 248.5252 165.749538 
L 248.5252 165.966786 
L 250.49336 165.966786 
L 250.49336 165.767642 
L 252.46152 165.767642 
L 252.46152 166.328866 
L 254.42968 166.328866 
L 254.42968 166.093514 
L 256.39784 166.093514 
L 256.39784 166.383178 
L 258.366 166.383178 
L 258.366 166.491802 
L 260.33416 166.491802 
L 260.33416 166.745258 
L 262.30232 166.745258 
L 262.30232 165.568499 
L 264.27048 165.568499 
L 264.27048 166.021098 
L 266.23864 166.021098 
L 266.23864 166.039202 
L 268.2068 166.039202 
L 268.2068 166.310762 
L 270.17496 166.310762 
L 270.17496 166.021098 
L 272.14312 166.021098 
L 272.14312 166.636634 
L 274.11128 166.636634 
L 274.11128 166.672842 
L 276.07944 166.672842 
L 276.07944 166.34697 
L 278.0476 166.34697 
L 278.0476 166.202138 
L 280.01576 166.202138 
L 280.01576 166.129722 
L 281.98392 166.129722 
L 281.98392 166.61853 
L 283.95208 166.61853 
L 283.95208 166.220242 
L 285.92024 166.220242 
L 285.92024 166.383178 
L 287.8884 166.383178 
L 287.8884 166.021098 
L 289.85656 166.021098 
L 289.85656 166.292658 
L 291.82472 166.292658 
L 291.82472 166.817674 
L 293.79288 166.817674 
L 293.79288 166.401282 
L 295.76104 166.401282 
L 295.76104 166.202138 
L 297.7292 166.202138 
L 297.7292 166.636634 
L 299.69736 166.636634 
L 299.69736 166.16593 
L 301.66552 166.16593 
L 301.66552 165.80385 
L 303.63368 165.80385 
L 303.63368 166.401282 
L 305.60184 166.401282 
L 305.60184 166.129722 
L 307.57 166.129722 
L 307.57 166.274554 
L 309.53816 166.274554 
L 309.53816 166.654738 
L 311.50632 166.654738 
L 311.50632 166.292658 
L 313.47448 166.292658 
L 313.47448 166.202138 
L 315.44264 166.202138 
L 315.44264 165.948682 
L 317.4108 165.948682 
L 317.4108 166.274554 
L 319.37896 166.274554 
L 319.37896 166.401282 
L 321.34712 166.401282 
L 321.34712 166.093514 
L 323.31528 166.093514 
L 323.31528 166.129722 
L 325.28344 166.129722 
L 325.28344 166.52801 
L 327.2516 166.52801 
L 327.2516 166.292658 
L 329.21976 166.292658 
L 329.21976 166.365074 
L 331.18792 166.365074 
L 331.18792 166.220242 
L 333.15608 166.220242 
L 333.15608 166.202138 
L 335.12424 166.202138 
L 335.12424 166.202138 
L 337.0924 166.202138 
L 337.0924 166.129722 
L 339.06056 166.129722 
L 339.06056 165.966786 
L 341.02872 165.966786 
L 341.02872 166.093514 
L 342.99688 166.093514 
L 342.99688 166.310762 
L 344.96504 166.310762 
L 344.96504 166.002994 
L 346.9332 166.002994 
L 346.9332 166.365074 
L 348.90136 166.365074 
L 348.90136 166.184034 
L 350.86952 166.184034 
L 350.86952 165.840058 
L 352.83768 165.840058 
L 352.83768 166.292658 
L 354.80584 166.292658 
L 354.80584 166.07541 
L 356.774 166.07541 
L 356.774 166.111618 
L 358.74216 166.111618 
L 358.74216 165.731434 
L 360.71032 165.731434 
L 360.71032 166.184034 
L 362.67848 166.184034 
L 362.67848 165.188315 
L 364.64664 165.188315 
L 364.64664 165.98489 
L 366.6148 165.98489 
L 366.6148 165.351251 
L 368.58296 165.351251 
L 368.58296 165.767642 
L 370.55112 165.767642 
L 370.55112 165.695227 
L 372.51928 165.695227 
L 372.51928 165.89437 
L 374.48744 165.89437 
L 374.48744 165.659019 
L 376.4556 165.659019 
L 376.4556 165.622811 
L 378.42376 165.622811 
L 378.42376 165.532291 
L 380.39192 165.532291 
L 380.39192 165.876266 
L 382.36008 165.876266 
L 382.36008 165.351251 
L 384.32824 165.351251 
L 384.32824 165.532291 
L 386.2964 165.532291 
L 386.2964 165.351251 
L 388.26456 165.351251 
L 388.26456 165.315043 
L 390.23272 165.315043 
L 390.23272 164.826235 
L 392.20088 164.826235 
L 392.20088 165.315043 
L 394.16904 165.315043 
L 394.16904 164.790027 
L 396.1372 164.790027 
L 396.1372 164.862443 
L 398.10536 164.862443 
L 398.10536 165.369355 
L 400.07352 165.369355 
L 400.07352 165.097795 
L 402.04168 165.097795 
L 402.04168 164.844339 
L 404.00984 164.844339 
L 404.00984 164.391739 
L 405.978 164.391739 
L 405.978 164.536571 
L 407.94616 164.536571 
L 407.94616 164.011556 
L 409.91432 164.011556 
L 409.91432 164.174491 
L 411.88248 164.174491 
L 411.88248 163.957244 
L 413.85064 163.957244 
L 413.85064 164.011556 
L 415.8188 164.011556 
L 415.8188 164.065868 
L 417.78696 164.065868 
L 417.78696 163.884828 
L 419.75512 163.884828 
L 419.75512 162.816692 
L 421.72328 162.816692 
L 421.72328 163.052044 
L 423.69144 163.052044 
L 423.69144 162.744276 
L 425.6596 162.744276 
L 425.6596 162.834796 
L 427.62776 162.834796 
L 427.62776 162.038221 
L 429.59592 162.038221 
L 429.59592 162.110637 
L 431.56408 162.110637 
L 431.56408 161.531309 
L 433.53224 161.531309 
L 433.53224 160.879566 
L 435.5004 160.879566 
L 435.5004 160.662318 
L 437.46856 160.662318 
L 437.46856 159.612286 
L 439.43672 159.612286 
L 439.43672 160.35455 
L 441.40488 160.35455 
L 441.40488 159.53987 
L 443.37304 159.53987 
L 443.37304 158.399319 
L 445.3412 158.399319 
L 445.3412 157.331184 
L 447.30936 157.331184 
L 447.30936 156.824272 
L 449.27752 156.824272 
L 449.27752 156.190633 
L 451.24568 156.190633 
L 451.24568 153.348306 
L 453.21384 153.348306 
L 453.21384 151.501699 
L 455.182 151.501699 
L 455.182 150.487876 
L 457.15016 150.487876 
L 457.15016 146.161023 
L 459.11832 146.161023 
L 459.11832 143.753192 
L 461.08648 143.753192 
L 461.08648 136.855573 
L 463.05464 136.855573 
L 463.05464 130.193305 
L 465.0228 130.193305 
L 465.0228 114.841123 
L 466.99096 114.841123 
L 466.99096 96.592302 
L 468.95912 96.592302 
L 468.95912 70.757911 
L 470.92728 70.757911 
L 470.92728 43.095016 
L 472.89544 43.095016 
L 472.89544 23.850476 
L 474.8636 23.850476 
L 474.8636 24.900508 
L 476.83176 24.900508 
L 476.83176 46.824438 
L 478.79992 46.824438 
L 478.79992 82.489295 
L 480.76808 82.489295 
L 480.76808 120.833543 
L 482.73624 120.833543 
L 482.73624 146.903286 
L 484.7044 146.903286 
L 484.7044 161.893389 
L 486.67256 161.893389 
L 486.67256 166.908194 
L 488.64072 166.908194 
L 488.64072 168.972048 
L 490.60888 168.972048 
L 490.60888 169.47896 
L 492.57704 169.47896 
L 492.57704 169.641896 
L 494.5452 169.641896 
L 494.5452 169.66 
L 496.51336 169.66 
L 496.51336 169.66 
L 498.48152 169.66 
L 498.48152 169.66 
L 500.44968 169.66 
L 500.44968 169.66 
L 502.41784 169.66 
L 502.41784 169.66 
L 504.386 169.66 
L 504.386 169.66 
L 506.35416 169.66 
L 506.35416 169.66 
L 508.32232 169.66 
L 508.32232 169.66 
L 510.29048 169.66 
L 510.29048 169.641896 
L 512.25864 169.641896 
L 512.25864 169.66 
L 514.2268 169.66 
L 514.2268 169.66 
L 516.19496 169.66 
L 516.19496 169.66 
L 518.16312 169.66 
L 518.16312 169.66 
L 520.13128 169.66 
L 520.13128 169.66 
L 522.09944 169.66 
L 522.09944 169.66 
L 524.0676 169.66 
L 524.0676 169.66 
L 526.03576 169.66 
L 526.03576 169.66 
L 528.00392 169.66 
L 528.00392 169.66 
L 529.97208 169.66 
L 529.97208 169.66 
L 531.94024 169.66 
L 531.94024 169.66 
L 533.9084 169.66 
L 533.9084 169.66 
L 535.87656 169.66 
L 535.87656 169.66 
L 537.84472 169.66 
L 537.84472 169.66 
L 539.81288 169.66 
L 539.81288 169.66 
L 541.78104 169.66 
L 541.78104 169.66 
L 543.7492 169.66 
L 543.7492 169.66 
L 545.71736 169.66 
L 545.71736 169.66 
L 547.68552 169.66 
L 547.68552 169.66 
L 549.65368 169.66 
L 549.65368 169.66 
L 551.62184 169.66 
L 551.62184 169.66 
L 553.59 169.66 
L 553.59 169.66 
L 555.55816 169.66 
L 555.55816 169.66 
L 557.52632 169.66 
L 557.52632 169.66 
L 559.49448 169.66 
L 559.49448 169.66 
L 561.46264 169.66 
L 561.46264 169.66 
L 563.4308 169.66 
L 563.4308 169.66 
L 565.39896 169.66 
L 565.39896 169.66 
L 563.4308 169.66 
L 563.4308 169.66 
L 561.46264 169.66 
L 561.46264 169.66 
L 559.49448 169.66 
L 559.49448 169.66 
L 557.52632 169.66 
L 557.52632 169.66 
L 555.55816 169.66 
L 555.55816 169.66 
L 553.59 169.66 
L 553.59 169.66 
L 551.62184 169.66 
L 551.62184 169.66 
L 549.65368 169.66 
L 549.65368 169.66 
L 547.68552 169.66 
L 547.68552 169.66 
L 545.71736 169.66 
L 545.71736 169.66 
L 543.7492 169.66 
L 543.7492 169.66 
L 541.78104 169.66 
L 541.78104 169.66 
L 539.81288 169.66 
L 539.81288 169.66 
L 537.84472 169.66 
L 537.84472 169.66 
L 535.87656 169.66 
L 535.87656 169.66 
L 533.9084 169.66 
L 533.9084 169.66 
L 531.94024 169.66 
L 531.94024 169.66 
L 529.97208 169.66 
L 529.97208 169.66 
L 528.00392 169.66 
L 528.00392 169.66 
L 526.03576 169.66 
L 526.03576 169.66 
L 524.0676 169.66 
L 524.0676 169.66 
L 522.09944 169.66 
L 522.09944 169.66 
L 520.13128 169.66 
L 520.13128 169.66 
L 518.16312 169.66 
L 518.16312 169.66 
L 516.19496 169.66 
L 516.19496 169.66 
L 514.2268 169.66 
L 514.2268 169.66 
L 512.25864 169.66 
L 512.25864 169.66 
L 510.29048 169.66 
L 510.29048 169.66 
L 508.32232 169.66 
L 508.32232 169.66 
L 506.35416 169.66 
L 506.35416 169.66 
L 504.386 169.66 
L 504.386 169.66 
L 502.41784 169.66 
L 502.41784 169.66 
L 500.44968 169.66 
L 500.44968 169.66 
L 498.48152 169.66 
L 498.48152 169.66 
L 496.51336 169.66 
L 496.51336 169.66 
L 494.5452 169.66 
L 494.5452 169.66 
L 492.57704 169.66 
L 492.57704 169.66 
L 490.60888 169.66 
L 490.60888 169.66 
L 488.64072 169.66 
L 488.64072 169.66 
L 486.67256 169.66 
L 486.67256 169.66 
L 484.7044 169.66 
L 484.7044 169.66 
L 482.73624 169.66 
L 482.73624 169.66 
L 480.76808 169.66 
L 480.76808 169.66 
L 478.79992 169.66 
L 478.79992 169.66 
L 476.83176 169.66 
L 476.83176 169.66 
L 474.8636 169.66 
L 474.8636 169.66 
L 472.89544 169.66 
L 472.89544 169.66 
L 470.92728 169.66 
L 470.92728 169.66 
L 468.95912 169.66 
L 468.95912 169.66 
L 466.99096 169.66 
L 466.99096 169.66 
L 465.0228 169.66 
L 465.0228 169.66 
L 463.05464 169.66 
L 463.05464 169.66 
L 461.08648 169.66 
L 461.08648 169.66 
L 459.11832 169.66 
L 459.11832 169.66 
L 457.15016 169.66 
L 457.15016 169.66 
L 455.182 169.66 
L 455.182 169.66 
L 453.21384 169.66 
L 453.21384 169.66 
L 451.24568 169.66 
L 451.24568 169.66 
L 449.27752 169.66 
L 449.27752 169.66 
L 447.30936 169.66 
L 447.30936 169.66 
L 445.3412 169.66 
L 445.3412 169.66 
L 443.37304 169.66 
L 443.37304 169.66 
L 441.40488 169.66 
L 441.40488 169.66 
L 439.43672 169.66 
L 439.43672 169.66 
L 437.46856 169.66 
L 437.46856 169.66 
L 435.5004 169.66 
L 435.5004 169.66 
L 433.53224 169.66 
L 433.53224 169.66 
L 431.56408 169.66 
L 431.56408 169.66 
L 429.59592 169.66 
L 429.59592 169.66 
L 427.62776 169.66 
L 427.62776 169.66 
L 425.6596 169.66 
L 425.6596 169.66 
L 423.69144 169.66 
L 423.69144 169.66 
L 421.72328 169.66 
L 421.72328 169.66 
L 419.75512 169.66 
L 419.75512 169.66 
L 417.78696 169.66 
L 417.78696 169.66 
L 415.8188 169.66 
L 415.8188 169.66 
L 413.85064 169.66 
L 413.85064 169.66 
L 411.88248 169.66 
L 411.88248 169.66 
L 409.91432 169.66 
L 409.91432 169.66 
L 407.94616 169.66 
L 407.94616 169.66 
L 405.978 169.66 
L 405.978 169.66 
L 404.00984 169.66 
L 404.00984 169.66 
L 402.04168 169.66 
L 402.04168 169.66 
L 400.07352 169.66 
L 400.07352 169.66 
L 398.10536 169.66 
L 398.10536 169.66 
L 396.1372 169.66 
L 396.1372 169.66 
L 394.16904 169.66 
L 394.16904 169.66 
L 392.20088 169.66 
L 392.20088 169.66 
L 390.23272 169.66 
L 390.23272 169.66 
L 388.26456 169.66 
L 388.26456 169.66 
L 386.2964 169.66 
L 386.2964 169.66 
L 384.32824 169.66 
L 384.32824 169.66 
L 382.36008 169.66 
L 382.36008 169.66 
L 380.39192 169.66 
L 380.39192 169.66 
L 378.42376 169.66 
L 378.42376 169.66 
L 376.4556 169.66 
L 376.4556 169.66 
L 374.48744 169.66 
L 374.48744 169.66 
L 372.51928 169.66 
L 372.51928 169.66 
L 370.55112 169.66 
L 370.55112 169.66 
L 368.58296 169.66 
L 368.58296 169.66 
L 366.6148 169.66 
L 366.6148 169.66 
L 364.64664 169.66 
L 364.64664 169.66 
L 362.67848 169.66 
L 362.67848 169.66 
L 360.71032 169.66 
L 360.71032 169.66 
L 358.74216 169.66 
L 358.74216 169.66 
L 356.774 169.66 
L 356.774 169.66 
L 354.80584 169.66 
L 354.80584 169.66 
L 352.83768 169.66 
L 352.83768 169.66 
L 350.86952 169.66 
L 350.86952 169.66 
L 348.90136 169.66 
L 348.90136 169.66 
L 346.9332 169.66 
L 346.9332 169.66 
L 344.96504 169.66 
L 344.96504 169.66 
L 342.99688 169.66 
L 342.99688 169.66 
L 341.02872 169.66 
L 341.02872 169.66 
L 339.06056 169.66 
L 339.06056 169.66 
L 337.0924 169.66 
L 337.0924 169.66 
L 335.12424 169.66 
L 335.12424 169.66 
L 333.15608 169.66 
L 333.15608 169.66 
L 331.18792 169.66 
L 331.18792 169.66 
L 329.21976 169.66 
L 329.21976 169.66 
L 327.2516 169.66 
L 327.2516 169.66 
L 325.28344 169.66 
L 325.28344 169.66 
L 323.31528 169.66 
L 323.31528 169.66 
L 321.34712 169.66 
L 321.34712 169.66 
L 319.37896 169.66 
L 319.37896 169.66 
L 317.4108 169.66 
L 317.4108 169.66 
L 315.44264 169.66 
L 315.44264 169.66 
L 313.47448 169.66 
L 313.47448 169.66 
L 311.50632 169.66 
L 311.50632 169.66 
L 309.53816 169.66 
L 309.53816 169.66 
L 307.57 169.66 
L 307.57 169.66 
L 305.60184 169.66 
L 305.60184 169.66 
L 303.63368 169.66 
L 303.63368 169.66 
L 301.66552 169.66 
L 301.66552 169.66 
L 299.69736 169.66 
L 299.69736 169.66 
L 297.7292 169.66 
L 297.7292 169.66 
L 295.76104 169.66 
L 295.76104 169.66 
L 293.79288 169.66 
L 293.79288 169.66 
L 291.82472 169.66 
L 291.82472 169.66 
L 289.85656 169.66 
L 289.85656 169.66 
L 287.8884 169.66 
L 287.8884 169.66 
L 285.92024 169.66 
L 285.92024 169.66 
L 283.95208 169.66 
L 283.95208 169.66 
L 281.98392 169.66 
L 281.98392 169.66 
L 280.01576 169.66 
L 280.01576 169.66 
L 278.0476 169.66 
L 278.0476 169.66 
L 276.07944 169.66 
L 276.07944 169.66 
L 274.11128 169.66 
L 274.11128 169.66 
L 272.14312 169.66 
L 272.14312 169.66 
L 270.17496 169.66 
L 270.17496 169.66 
L 268.2068 169.66 
L 268.2068 169.66 
L 266.23864 169.66 
L 266.23864 169.66 
L 264.27048 169.66 
L 264.27048 169.66 
L 262.30232 169.66 
L 262.30232 169.66 
L 260.33416 169.66 
L 260.33416 169.66 
L 258.366 169.66 
L 258.366 169.66 
L 256.39784 169.66 
L 256.39784 169.66 
L 254.42968 169.66 
L 254.42968 169.66 
L 252.46152 169.66 
L 252.46152 169.66 
L 250.49336 169.66 
L 250.49336 169.66 
L 248.5252 169.66 
L 248.5252 169.66 
L 246.55704 169.66 
L 246.55704 169.66 
L 244.58888 169.66 
L 244.58888 169.66 
L 242.62072 169.66 
L 242.62072 169.66 
L 240.65256 169.66 
L 240.65256 169.66 
L 238.6844 169.66 
L 238.6844 169.66 
L 236.71624 169.66 
L 236.71624 169.66 
L 234.74808 169.66 
L 234.74808 169.66 
L 232.77992 169.66 
L 232.77992 169.66 
L 230.81176 169.66 
L 230.81176 169.66 
L 228.8436 169.66 
L 228.8436 169.66 
L 226.87544 169.66 
L 226.87544 169.66 
L 224.90728 169.66 
L 224.90728 169.66 
L 222.93912 169.66 
L 222.93912 169.66 
L 220.97096 169.66 
L 220.97096 169.66 
L 219.0028 169.66 
L 219.0028 169.66 
L 217.03464 169.66 
L 217.03464 169.66 
L 215.06648 169.66 
L 215.06648 169.66 
L 213.09832 169.66 
L 213.09832 169.66 
L 211.13016 169.66 
L 211.13016 169.66 
L 209.162 169.66 
L 209.162 169.66 
L 207.19384 169.66 
L 207.19384 169.66 
L 205.22568 169.66 
L 205.22568 169.66 
L 203.25752 169.66 
L 203.25752 169.66 
L 201.28936 169.66 
L 201.28936 169.66 
L 199.3212 169.66 
L 199.3212 169.66 
L 197.35304 169.66 
L 197.35304 169.66 
L 195.38488 169.66 
L 195.38488 169.66 
L 193.41672 169.66 
L 193.41672 169.66 
L 191.44856 169.66 
L 191.44856 169.66 
L 189.4804 169.66 
L 189.4804 169.66 
L 187.51224 169.66 
L 187.51224 169.66 
L 185.54408 169.66 
L 185.54408 169.66 
L 183.57592 169.66 
L 183.57592 169.66 
L 181.60776 169.66 
L 181.60776 169.66 
L 179.6396 169.66 
L 179.6396 169.66 
L 177.67144 169.66 
L 177.67144 169.66 
L 175.70328 169.66 
L 175.70328 169.66 
L 173.73512 169.66 
L 173.73512 169.66 
L 171.76696 169.66 
L 171.76696 169.66 
L 169.7988 169.66 
L 169.7988 169.66 
L 167.83064 169.66 
L 167.83064 169.66 
L 165.86248 169.66 
L 165.86248 169.66 
L 163.89432 169.66 
L 163.89432 169.66 
L 161.92616 169.66 
L 161.92616 169.66 
L 159.958 169.66 
L 159.958 169.66 
L 157.98984 169.66 
L 157.98984 169.66 
L 156.02168 169.66 
L 156.02168 169.66 
L 154.05352 169.66 
L 154.05352 169.66 
L 152.08536 169.66 
L 152.08536 169.66 
L 150.1172 169.66 
L 150.1172 169.66 
L 148.14904 169.66 
L 148.14904 169.66 
L 146.18088 169.66 
L 146.18088 169.66 
L 144.21272 169.66 
L 144.21272 169.66 
L 142.24456 169.66 
L 142.24456 169.66 
L 140.2764 169.66 
L 140.2764 169.66 
L 138.30824 169.66 
L 138.30824 169.66 
L 136.34008 169.66 
L 136.34008 169.66 
L 134.37192 169.66 
L 134.37192 169.66 
L 132.40376 169.66 
L 132.40376 169.66 
L 130.4356 169.66 
L 130.4356 169.66 
L 128.46744 169.66 
L 128.46744 169.66 
L 126.49928 169.66 
L 126.49928 169.66 
L 124.53112 169.66 
L 124.53112 169.66 
L 122.56296 169.66 
L 122.56296 169.66 
L 120.5948 169.66 
L 120.5948 169.66 
L 118.62664 169.66 
L 118.62664 169.66 
L 116.65848 169.66 
L 116.65848 169.66 
L 114.69032 169.66 
L 114.69032 169.66 
L 112.72216 169.66 
L 112.72216 169.66 
L 110.754 169.66 
L 110.754 169.66 
L 108.78584 169.66 
L 108.78584 169.66 
L 106.81768 169.66 
L 106.81768 169.66 
L 104.84952 169.66 
L 104.84952 169.66 
L 102.88136 169.66 
L 102.88136 169.66 
L 100.9132 169.66 
L 100.9132 169.66 
L 98.94504 169.66 
L 98.94504 169.66 
L 96.97688 169.66 
L 96.97688 169.66 
L 95.00872 169.66 
L 95.00872 169.66 
L 93.04056 169.66 
L 93.04056 169.66 
L 91.0724 169.66 
L 91.0724 169.66 
L 89.10424 169.66 
L 89.10424 169.66 
L 87.13608 169.66 
L 87.13608 169.66 
L 85.16792 169.66 
L 85.16792 169.66 
L 83.19976 169.66 
L 83.19976 169.66 
L 81.2316 169.66 
L 81.2316 169.66 
L 79.26344 169.66 
L 79.26344 169.66 
L 77.29528 169.66 
L 77.29528 169.66 
L 75.32712 169.66 
L 75.32712 169.66 
L 73.35896 169.66 
L 73.35896 169.66 
L 71.3908 169.66 
L 71.3908 169.66 
L 69.42264 169.66 
L 69.42264 169.66 
L 67.45448 169.66 
L 67.45448 169.66 
L 65.48632 169.66 
L 65.48632 169.66 
L 63.51816 169.66 
L 63.51816 169.66 
z
" style="fill:#0000ff;opacity:0.5;"/>
   </g>
   <g id="matplotlib.axis_1">
    <g id="xtick_1">
     <g id="line2d_1">
      <defs>
       <path d="M 0 0 
L 0 5 
" id="m4de1b5ed3d" style="stroke:#000000;stroke-width:1.5;"/>
      </defs>
      <g>
       <use style="stroke:#000000;stroke-width:1.5;" x="61.55" xlink:href="#m4de1b5ed3d" y="169.66"/>
      </g>
     </g>
     <g id="text_1">
      <!-- 0 -->
      <defs>
       <path d="M 31.78125 66.40625 
Q 24.171875 66.40625 20.328125 58.90625 
Q 16.5 51.421875 16.5 36.375 
Q 16.5 21.390625 20.328125 13.890625 
Q 24.171875 6.390625 31.78125 6.390625 
Q 39.453125 6.390625 43.28125 13.890625 
Q 47.125 21.390625 47.125 36.375 
Q 47.125 51.421875 43.28125 58.90625 
Q 39.453125 66.40625 31.78125 66.40625 
z
M 31.78125 74.21875 
Q 44.046875 74.21875 50.515625 64.515625 
Q 56.984375 54.828125 56.984375 36.375 
Q 56.984375 17.96875 50.515625 8.265625 
Q 44.046875 -1.421875 31.78125 -1.421875 
Q 19.53125 -1.421875 13.0625 8.265625 
Q 6.59375 17.96875 6.59375 36.375 
Q 6.59375 54.828125 13.0625 64.515625 
Q 19.53125 74.21875 31.78125 74.21875 
z
" id="DejaVuSans-48"/>
      </defs>
      <g transform="translate(58.370022 185.755398)scale(0.09996 -0.09996)">
       <use xlink:href="#DejaVuSans-48"/>
      </g>
     </g>
    </g>
    <g id="xtick_2">
     <g id="line2d_2">
      <g>
       <use style="stroke:#000000;stroke-width:1.5;" x="159.958" xlink:href="#m4de1b5ed3d" y="169.66"/>
      </g>
     </g>
     <g id="text_2">
      <!-- 50 -->
      <defs>
       <path d="M 10.796875 72.90625 
L 49.515625 72.90625 
L 49.515625 64.59375 
L 19.828125 64.59375 
L 19.828125 46.734375 
Q 21.96875 47.46875 24.109375 47.828125 
Q 26.265625 48.1875 28.421875 48.1875 
Q 40.625 48.1875 47.75 41.5 
Q 54.890625 34.8125 54.890625 23.390625 
Q 54.890625 11.625 47.5625 5.09375 
Q 40.234375 -1.421875 26.90625 -1.421875 
Q 22.3125 -1.421875 17.546875 -0.640625 
Q 12.796875 0.140625 7.71875 1.703125 
L 7.71875 11.625 
Q 12.109375 9.234375 16.796875 8.0625 
Q 21.484375 6.890625 26.703125 6.890625 
Q 35.15625 6.890625 40.078125 11.328125 
Q 45.015625 15.765625 45.015625 23.390625 
Q 45.015625 31 40.078125 35.4375 
Q 35.15625 39.890625 26.703125 39.890625 
Q 22.75 39.890625 18.8125 39.015625 
Q 14.890625 38.140625 10.796875 36.28125 
z
" id="DejaVuSans-53"/>
      </defs>
      <g transform="translate(153.598045 185.755398)scale(0.09996 -0.09996)">
       <use xlink:href="#DejaVuSans-53"/>
       <use x="63.623047" xlink:href="#DejaVuSans-48"/>
      </g>
     </g>
    </g>
    <g id="xtick_3">
     <g id="line2d_3">
      <g>
       <use style="stroke:#000000;stroke-width:1.5;" x="258.366" xlink:href="#m4de1b5ed3d" y="169.66"/>
      </g>
     </g>
     <g id="text_3">
      <!-- 100 -->
      <defs>
       <path d="M 12.40625 8.296875 
L 28.515625 8.296875 
L 28.515625 63.921875 
L 10.984375 60.40625 
L 10.984375 69.390625 
L 28.421875 72.90625 
L 38.28125 72.90625 
L 38.28125 8.296875 
L 54.390625 8.296875 
L 54.390625 0 
L 12.40625 0 
z
" id="DejaVuSans-49"/>
      </defs>
      <g transform="translate(248.826067 185.755398)scale(0.09996 -0.09996)">
       <use xlink:href="#DejaVuSans-49"/>
       <use x="63.623047" xlink:href="#DejaVuSans-48"/>
       <use x="127.246094" xlink:href="#DejaVuSans-48"/>
      </g>
     </g>
    </g>
    <g id="xtick_4">
     <g id="line2d_4">
      <g>
       <use style="stroke:#000000;stroke-width:1.5;" x="356.774" xlink:href="#m4de1b5ed3d" y="169.66"/>
      </g>
     </g>
     <g id="text_4">
      <!-- 150 -->
      <g transform="translate(347.234068 185.755398)scale(0.09996 -0.09996)">
       <use xlink:href="#DejaVuSans-49"/>
       <use x="63.623047" xlink:href="#DejaVuSans-53"/>
       <use x="127.246094" xlink:href="#DejaVuSans-48"/>
      </g>
     </g>
    </g>
    <g id="xtick_5">
     <g id="line2d_5">
      <g>
       <use style="stroke:#000000;stroke-width:1.5;" x="455.182" xlink:href="#m4de1b5ed3d" y="169.66"/>
      </g>
     </g>
     <g id="text_5">
      <!-- 200 -->
      <defs>
       <path d="M 19.1875 8.296875 
L 53.609375 8.296875 
L 53.609375 0 
L 7.328125 0 
L 7.328125 8.296875 
Q 12.9375 14.109375 22.625 23.890625 
Q 32.328125 33.6875 34.8125 36.53125 
Q 39.546875 41.84375 41.421875 45.53125 
Q 43.3125 49.21875 43.3125 52.78125 
Q 43.3125 58.59375 39.234375 62.25 
Q 35.15625 65.921875 28.609375 65.921875 
Q 23.96875 65.921875 18.8125 64.3125 
Q 13.671875 62.703125 7.8125 59.421875 
L 7.8125 69.390625 
Q 13.765625 71.78125 18.9375 73 
Q 24.125 74.21875 28.421875 74.21875 
Q 39.75 74.21875 46.484375 68.546875 
Q 53.21875 62.890625 53.21875 53.421875 
Q 53.21875 48.921875 51.53125 44.890625 
Q 49.859375 40.875 45.40625 35.40625 
Q 44.1875 33.984375 37.640625 27.21875 
Q 31.109375 20.453125 19.1875 8.296875 
z
" id="DejaVuSans-50"/>
      </defs>
      <g transform="translate(445.642067 185.755398)scale(0.09996 -0.09996)">
       <use xlink:href="#DejaVuSans-50"/>
       <use x="63.623047" xlink:href="#DejaVuSans-48"/>
       <use x="127.246094" xlink:href="#DejaVuSans-48"/>
      </g>
     </g>
    </g>
    <g id="xtick_6">
     <g id="line2d_6">
      <g>
       <use style="stroke:#000000;stroke-width:1.5;" x="553.59" xlink:href="#m4de1b5ed3d" y="169.66"/>
      </g>
     </g>
     <g id="text_6">
      <!-- 250 -->
      <g transform="translate(544.050068 185.755398)scale(0.09996 -0.09996)">
       <use xlink:href="#DejaVuSans-50"/>
       <use x="63.623047" xlink:href="#DejaVuSans-53"/>
       <use x="127.246094" xlink:href="#DejaVuSans-48"/>
      </g>
     </g>
    </g>
    <g id="xtick_7">
     <g id="line2d_7">
      <defs>
       <path d="M 0 0 
L 0 3 
" id="mcd2165a494" style="stroke:#000000;stroke-width:1.5;"/>
      </defs>
      <g>
       <use style="stroke:#000000;stroke-width:1.5;" x="81.2316" xlink:href="#mcd2165a494" y="169.66"/>
      </g>
     </g>
    </g>
    <g id="xtick_8">
     <g id="line2d_8">
      <g>
       <use style="stroke:#000000;stroke-width:1.5;" x="100.9132" xlink:href="#mcd2165a494" y="169.66"/>
      </g>
     </g>
    </g>
    <g id="xtick_9">
     <g id="line2d_9">
      <g>
       <use style="stroke:#000000;stroke-width:1.5;" x="120.5948" xlink:href="#mcd2165a494" y="169.66"/>
      </g>
     </g>
    </g>
    <g id="xtick_10">
     <g id="line2d_10">
      <g>
       <use style="stroke:#000000;stroke-width:1.5;" x="140.2764" xlink:href="#mcd2165a494" y="169.66"/>
      </g>
     </g>
    </g>
    <g id="xtick_11">
     <g id="line2d_11">
      <g>
       <use style="stroke:#000000;stroke-width:1.5;" x="179.6396" xlink:href="#mcd2165a494" y="169.66"/>
      </g>
     </g>
    </g>
    <g id="xtick_12">
     <g id="line2d_12">
      <g>
       <use style="stroke:#000000;stroke-width:1.5;" x="199.3212" xlink:href="#mcd2165a494" y="169.66"/>
      </g>
     </g>
    </g>
    <g id="xtick_13">
     <g id="line2d_13">
      <g>
       <use style="stroke:#000000;stroke-width:1.5;" x="219.0028" xlink:href="#mcd2165a494" y="169.66"/>
      </g>
     </g>
    </g>
    <g id="xtick_14">
     <g id="line2d_14">
      <g>
       <use style="stroke:#000000;stroke-width:1.5;" x="238.6844" xlink:href="#mcd2165a494" y="169.66"/>
      </g>
     </g>
    </g>
    <g id="xtick_15">
     <g id="line2d_15">
      <g>
       <use style="stroke:#000000;stroke-width:1.5;" x="278.0476" xlink:href="#mcd2165a494" y="169.66"/>
      </g>
     </g>
    </g>
    <g id="xtick_16">
     <g id="line2d_16">
      <g>
       <use style="stroke:#000000;stroke-width:1.5;" x="297.7292" xlink:href="#mcd2165a494" y="169.66"/>
      </g>
     </g>
    </g>
    <g id="xtick_17">
     <g id="line2d_17">
      <g>
       <use style="stroke:#000000;stroke-width:1.5;" x="317.4108" xlink:href="#mcd2165a494" y="169.66"/>
      </g>
     </g>
    </g>
    <g id="xtick_18">
     <g id="line2d_18">
      <g>
       <use style="stroke:#000000;stroke-width:1.5;" x="337.0924" xlink:href="#mcd2165a494" y="169.66"/>
      </g>
     </g>
    </g>
    <g id="xtick_19">
     <g id="line2d_19">
      <g>
       <use style="stroke:#000000;stroke-width:1.5;" x="376.4556" xlink:href="#mcd2165a494" y="169.66"/>
      </g>
     </g>
    </g>
    <g id="xtick_20">
     <g id="line2d_20">
      <g>
       <use style="stroke:#000000;stroke-width:1.5;" x="396.1372" xlink:href="#mcd2165a494" y="169.66"/>
      </g>
     </g>
    </g>
    <g id="xtick_21">
     <g id="line2d_21">
      <g>
       <use style="stroke:#000000;stroke-width:1.5;" x="415.8188" xlink:href="#mcd2165a494" y="169.66"/>
      </g>
     </g>
    </g>
    <g id="xtick_22">
     <g id="line2d_22">
      <g>
       <use style="stroke:#000000;stroke-width:1.5;" x="435.5004" xlink:href="#mcd2165a494" y="169.66"/>
      </g>
     </g>
    </g>
    <g id="xtick_23">
     <g id="line2d_23">
      <g>
       <use style="stroke:#000000;stroke-width:1.5;" x="474.8636" xlink:href="#mcd2165a494" y="169.66"/>
      </g>
     </g>
    </g>
    <g id="xtick_24">
     <g id="line2d_24">
      <g>
       <use style="stroke:#000000;stroke-width:1.5;" x="494.5452" xlink:href="#mcd2165a494" y="169.66"/>
      </g>
     </g>
    </g>
    <g id="xtick_25">
     <g id="line2d_25">
      <g>
       <use style="stroke:#000000;stroke-width:1.5;" x="514.2268" xlink:href="#mcd2165a494" y="169.66"/>
      </g>
     </g>
    </g>
    <g id="xtick_26">
     <g id="line2d_26">
      <g>
       <use style="stroke:#000000;stroke-width:1.5;" x="533.9084" xlink:href="#mcd2165a494" y="169.66"/>
      </g>
     </g>
    </g>
    <g id="text_7">
     <!-- Gray value -->
     <defs>
      <path d="M 59.515625 10.40625 
L 59.515625 29.984375 
L 43.40625 29.984375 
L 43.40625 38.09375 
L 69.28125 38.09375 
L 69.28125 6.78125 
Q 63.578125 2.734375 56.6875 0.65625 
Q 49.8125 -1.421875 42 -1.421875 
Q 24.90625 -1.421875 15.25 8.5625 
Q 5.609375 18.5625 5.609375 36.375 
Q 5.609375 54.25 15.25 64.234375 
Q 24.90625 74.21875 42 74.21875 
Q 49.125 74.21875 55.546875 72.453125 
Q 61.96875 70.703125 67.390625 67.28125 
L 67.390625 56.78125 
Q 61.921875 61.421875 55.765625 63.765625 
Q 49.609375 66.109375 42.828125 66.109375 
Q 29.4375 66.109375 22.71875 58.640625 
Q 16.015625 51.171875 16.015625 36.375 
Q 16.015625 21.625 22.71875 14.15625 
Q 29.4375 6.6875 42.828125 6.6875 
Q 48.046875 6.6875 52.140625 7.59375 
Q 56.25 8.5 59.515625 10.40625 
z
" id="DejaVuSans-71"/>
      <path d="M 41.109375 46.296875 
Q 39.59375 47.171875 37.8125 47.578125 
Q 36.03125 48 33.890625 48 
Q 26.265625 48 22.1875 43.046875 
Q 18.109375 38.09375 18.109375 28.8125 
L 18.109375 0 
L 9.078125 0 
L 9.078125 54.6875 
L 18.109375 54.6875 
L 18.109375 46.1875 
Q 20.953125 51.171875 25.484375 53.578125 
Q 30.03125 56 36.53125 56 
Q 37.453125 56 38.578125 55.875 
Q 39.703125 55.765625 41.0625 55.515625 
z
" id="DejaVuSans-114"/>
      <path d="M 34.28125 27.484375 
Q 23.390625 27.484375 19.1875 25 
Q 14.984375 22.515625 14.984375 16.5 
Q 14.984375 11.71875 18.140625 8.90625 
Q 21.296875 6.109375 26.703125 6.109375 
Q 34.1875 6.109375 38.703125 11.40625 
Q 43.21875 16.703125 43.21875 25.484375 
L 43.21875 27.484375 
z
M 52.203125 31.203125 
L 52.203125 0 
L 43.21875 0 
L 43.21875 8.296875 
Q 40.140625 3.328125 35.546875 0.953125 
Q 30.953125 -1.421875 24.3125 -1.421875 
Q 15.921875 -1.421875 10.953125 3.296875 
Q 6 8.015625 6 15.921875 
Q 6 25.140625 12.171875 29.828125 
Q 18.359375 34.515625 30.609375 34.515625 
L 43.21875 34.515625 
L 43.21875 35.40625 
Q 43.21875 41.609375 39.140625 45 
Q 35.0625 48.390625 27.6875 48.390625 
Q 23 48.390625 18.546875 47.265625 
Q 14.109375 46.140625 10.015625 43.890625 
L 10.015625 52.203125 
Q 14.9375 54.109375 19.578125 55.046875 
Q 24.21875 56 28.609375 56 
Q 40.484375 56 46.34375 49.84375 
Q 52.203125 43.703125 52.203125 31.203125 
z
" id="DejaVuSans-97"/>
      <path d="M 32.171875 -5.078125 
Q 28.375 -14.84375 24.75 -17.8125 
Q 21.140625 -20.796875 15.09375 -20.796875 
L 7.90625 -20.796875 
L 7.90625 -13.28125 
L 13.1875 -13.28125 
Q 16.890625 -13.28125 18.9375 -11.515625 
Q 21 -9.765625 23.484375 -3.21875 
L 25.09375 0.875 
L 2.984375 54.6875 
L 12.5 54.6875 
L 29.59375 11.921875 
L 46.6875 54.6875 
L 56.203125 54.6875 
z
" id="DejaVuSans-121"/>
      <path id="DejaVuSans-32"/>
      <path d="M 2.984375 54.6875 
L 12.5 54.6875 
L 29.59375 8.796875 
L 46.6875 54.6875 
L 56.203125 54.6875 
L 35.6875 0 
L 23.484375 0 
z
" id="DejaVuSans-118"/>
      <path d="M 9.421875 75.984375 
L 18.40625 75.984375 
L 18.40625 0 
L 9.421875 0 
z
" id="DejaVuSans-108"/>
      <path d="M 8.5 21.578125 
L 8.5 54.6875 
L 17.484375 54.6875 
L 17.484375 21.921875 
Q 17.484375 14.15625 20.5 10.265625 
Q 23.53125 6.390625 29.59375 6.390625 
Q 36.859375 6.390625 41.078125 11.03125 
Q 45.3125 15.671875 45.3125 23.6875 
L 45.3125 54.6875 
L 54.296875 54.6875 
L 54.296875 0 
L 45.3125 0 
L 45.3125 8.40625 
Q 42.046875 3.421875 37.71875 1 
Q 33.40625 -1.421875 27.6875 -1.421875 
Q 18.265625 -1.421875 13.375 4.4375 
Q 8.5 10.296875 8.5 21.578125 
z
M 31.109375 56 
z
" id="DejaVuSans-117"/>
      <path d="M 56.203125 29.59375 
L 56.203125 25.203125 
L 14.890625 25.203125 
Q 15.484375 15.921875 20.484375 11.0625 
Q 25.484375 6.203125 34.421875 6.203125 
Q 39.59375 6.203125 44.453125 7.46875 
Q 49.3125 8.734375 54.109375 11.28125 
L 54.109375 2.78125 
Q 49.265625 0.734375 44.1875 -0.34375 
Q 39.109375 -1.421875 33.890625 -1.421875 
Q 20.796875 -1.421875 13.15625 6.1875 
Q 5.515625 13.8125 5.515625 26.8125 
Q 5.515625 40.234375 12.765625 48.109375 
Q 20.015625 56 32.328125 56 
Q 43.359375 56 49.78125 48.890625 
Q 56.203125 41.796875 56.203125 29.59375 
z
M 47.21875 32.234375 
Q 47.125 39.59375 43.09375 43.984375 
Q 39.0625 48.390625 32.421875 48.390625 
Q 24.90625 48.390625 20.390625 44.140625 
Q 15.875 39.890625 15.1875 32.171875 
z
" id="DejaVuSans-101"/>
     </defs>
     <g transform="translate(274.93 200.952379)scale(0.12 -0.12)">
      <use xlink:href="#DejaVuSans-71"/>
      <use x="77.490234" xlink:href="#DejaVuSans-114"/>
      <use x="118.603516" xlink:href="#DejaVuSans-97"/>
      <use x="179.882812" xlink:href="#DejaVuSans-121"/>
      <use x="239.0625" xlink:href="#DejaVuSans-32"/>
      <use x="270.849609" xlink:href="#DejaVuSans-118"/>
      <use x="330.029297" xlink:href="#DejaVuSans-97"/>
      <use x="391.308594" xlink:href="#DejaVuSans-108"/>
      <use x="419.091797" xlink:href="#DejaVuSans-117"/>
      <use x="482.470703" xlink:href="#DejaVuSans-101"/>
     </g>
    </g>
   </g>
   <g id="matplotlib.axis_2">
    <g id="ytick_1">
     <g id="line2d_27">
      <defs>
       <path d="M 0 0 
L -5 0 
" id="m657b480133" style="stroke:#000000;stroke-width:1.5;"/>
      </defs>
      <g>
       <use style="stroke:#000000;stroke-width:1.5;" x="61.55" xlink:href="#m657b480133" y="169.66"/>
      </g>
     </g>
     <g id="text_8">
      <!-- 0 -->
      <g transform="translate(46.690045 173.457699)scale(0.09996 -0.09996)">
       <use xlink:href="#DejaVuSans-48"/>
      </g>
     </g>
    </g>
    <g id="ytick_2">
     <g id="line2d_28">
      <g>
       <use style="stroke:#000000;stroke-width:1.5;" x="61.55" xlink:href="#m657b480133" y="133.452023"/>
      </g>
     </g>
     <g id="text_9">
      <!-- 2000 -->
      <g transform="translate(27.61018 137.249722)scale(0.09996 -0.09996)">
       <use xlink:href="#DejaVuSans-50"/>
       <use x="63.623047" xlink:href="#DejaVuSans-48"/>
       <use x="127.246094" xlink:href="#DejaVuSans-48"/>
       <use x="190.869141" xlink:href="#DejaVuSans-48"/>
      </g>
     </g>
    </g>
    <g id="ytick_3">
     <g id="line2d_29">
      <g>
       <use style="stroke:#000000;stroke-width:1.5;" x="61.55" xlink:href="#m657b480133" y="97.244046"/>
      </g>
     </g>
     <g id="text_10">
      <!-- 4000 -->
      <defs>
       <path d="M 37.796875 64.3125 
L 12.890625 25.390625 
L 37.796875 25.390625 
z
M 35.203125 72.90625 
L 47.609375 72.90625 
L 47.609375 25.390625 
L 58.015625 25.390625 
L 58.015625 17.1875 
L 47.609375 17.1875 
L 47.609375 0 
L 37.796875 0 
L 37.796875 17.1875 
L 4.890625 17.1875 
L 4.890625 26.703125 
z
" id="DejaVuSans-52"/>
      </defs>
      <g transform="translate(27.61018 101.041745)scale(0.09996 -0.09996)">
       <use xlink:href="#DejaVuSans-52"/>
       <use x="63.623047" xlink:href="#DejaVuSans-48"/>
       <use x="127.246094" xlink:href="#DejaVuSans-48"/>
       <use x="190.869141" xlink:href="#DejaVuSans-48"/>
      </g>
     </g>
    </g>
    <g id="ytick_4">
     <g id="line2d_30">
      <g>
       <use style="stroke:#000000;stroke-width:1.5;" x="61.55" xlink:href="#m657b480133" y="61.036069"/>
      </g>
     </g>
     <g id="text_11">
      <!-- 6000 -->
      <defs>
       <path d="M 33.015625 40.375 
Q 26.375 40.375 22.484375 35.828125 
Q 18.609375 31.296875 18.609375 23.390625 
Q 18.609375 15.53125 22.484375 10.953125 
Q 26.375 6.390625 33.015625 6.390625 
Q 39.65625 6.390625 43.53125 10.953125 
Q 47.40625 15.53125 47.40625 23.390625 
Q 47.40625 31.296875 43.53125 35.828125 
Q 39.65625 40.375 33.015625 40.375 
z
M 52.59375 71.296875 
L 52.59375 62.3125 
Q 48.875 64.0625 45.09375 64.984375 
Q 41.3125 65.921875 37.59375 65.921875 
Q 27.828125 65.921875 22.671875 59.328125 
Q 17.53125 52.734375 16.796875 39.40625 
Q 19.671875 43.65625 24.015625 45.921875 
Q 28.375 48.1875 33.59375 48.1875 
Q 44.578125 48.1875 50.953125 41.515625 
Q 57.328125 34.859375 57.328125 23.390625 
Q 57.328125 12.15625 50.6875 5.359375 
Q 44.046875 -1.421875 33.015625 -1.421875 
Q 20.359375 -1.421875 13.671875 8.265625 
Q 6.984375 17.96875 6.984375 36.375 
Q 6.984375 53.65625 15.1875 63.9375 
Q 23.390625 74.21875 37.203125 74.21875 
Q 40.921875 74.21875 44.703125 73.484375 
Q 48.484375 72.75 52.59375 71.296875 
z
" id="DejaVuSans-54"/>
      </defs>
      <g transform="translate(27.61018 64.833768)scale(0.09996 -0.09996)">
       <use xlink:href="#DejaVuSans-54"/>
       <use x="63.623047" xlink:href="#DejaVuSans-48"/>
       <use x="127.246094" xlink:href="#DejaVuSans-48"/>
       <use x="190.869141" xlink:href="#DejaVuSans-48"/>
      </g>
     </g>
    </g>
    <g id="ytick_5">
     <g id="line2d_31">
      <g>
       <use style="stroke:#000000;stroke-width:1.5;" x="61.55" xlink:href="#m657b480133" y="24.828092"/>
      </g>
     </g>
     <g id="text_12">
      <!-- 8000 -->
      <defs>
       <path d="M 31.78125 34.625 
Q 24.75 34.625 20.71875 30.859375 
Q 16.703125 27.09375 16.703125 20.515625 
Q 16.703125 13.921875 20.71875 10.15625 
Q 24.75 6.390625 31.78125 6.390625 
Q 38.8125 6.390625 42.859375 10.171875 
Q 46.921875 13.96875 46.921875 20.515625 
Q 46.921875 27.09375 42.890625 30.859375 
Q 38.875 34.625 31.78125 34.625 
z
M 21.921875 38.8125 
Q 15.578125 40.375 12.03125 44.71875 
Q 8.5 49.078125 8.5 55.328125 
Q 8.5 64.0625 14.71875 69.140625 
Q 20.953125 74.21875 31.78125 74.21875 
Q 42.671875 74.21875 48.875 69.140625 
Q 55.078125 64.0625 55.078125 55.328125 
Q 55.078125 49.078125 51.53125 44.71875 
Q 48 40.375 41.703125 38.8125 
Q 48.828125 37.15625 52.796875 32.3125 
Q 56.78125 27.484375 56.78125 20.515625 
Q 56.78125 9.90625 50.3125 4.234375 
Q 43.84375 -1.421875 31.78125 -1.421875 
Q 19.734375 -1.421875 13.25 4.234375 
Q 6.78125 9.90625 6.78125 20.515625 
Q 6.78125 27.484375 10.78125 32.3125 
Q 14.796875 37.15625 21.921875 38.8125 
z
M 18.3125 54.390625 
Q 18.3125 48.734375 21.84375 45.5625 
Q 25.390625 42.390625 31.78125 42.390625 
Q 38.140625 42.390625 41.71875 45.5625 
Q 45.3125 48.734375 45.3125 54.390625 
Q 45.3125 60.0625 41.71875 63.234375 
Q 38.140625 66.40625 31.78125 66.40625 
Q 25.390625 66.40625 21.84375 63.234375 
Q 18.3125 60.0625 18.3125 54.390625 
z
" id="DejaVuSans-56"/>
      </defs>
      <g transform="translate(27.61018 28.625791)scale(0.09996 -0.09996)">
       <use xlink:href="#DejaVuSans-56"/>
       <use x="63.623047" xlink:href="#DejaVuSans-48"/>
       <use x="127.246094" xlink:href="#DejaVuSans-48"/>
       <use x="190.869141" xlink:href="#DejaVuSans-48"/>
      </g>
     </g>
    </g>
    <g id="text_13">
     <!-- Pixel count -->
     <defs>
      <path d="M 19.671875 64.796875 
L 19.671875 37.40625 
L 32.078125 37.40625 
Q 38.96875 37.40625 42.71875 40.96875 
Q 46.484375 44.53125 46.484375 51.125 
Q 46.484375 57.671875 42.71875 61.234375 
Q 38.96875 64.796875 32.078125 64.796875 
z
M 9.8125 72.90625 
L 32.078125 72.90625 
Q 44.34375 72.90625 50.609375 67.359375 
Q 56.890625 61.8125 56.890625 51.125 
Q 56.890625 40.328125 50.609375 34.8125 
Q 44.34375 29.296875 32.078125 29.296875 
L 19.671875 29.296875 
L 19.671875 0 
L 9.8125 0 
z
" id="DejaVuSans-80"/>
      <path d="M 9.421875 54.6875 
L 18.40625 54.6875 
L 18.40625 0 
L 9.421875 0 
z
M 9.421875 75.984375 
L 18.40625 75.984375 
L 18.40625 64.59375 
L 9.421875 64.59375 
z
" id="DejaVuSans-105"/>
      <path d="M 54.890625 54.6875 
L 35.109375 28.078125 
L 55.90625 0 
L 45.3125 0 
L 29.390625 21.484375 
L 13.484375 0 
L 2.875 0 
L 24.125 28.609375 
L 4.6875 54.6875 
L 15.28125 54.6875 
L 29.78125 35.203125 
L 44.28125 54.6875 
z
" id="DejaVuSans-120"/>
      <path d="M 48.78125 52.59375 
L 48.78125 44.1875 
Q 44.96875 46.296875 41.140625 47.34375 
Q 37.3125 48.390625 33.40625 48.390625 
Q 24.65625 48.390625 19.8125 42.84375 
Q 14.984375 37.3125 14.984375 27.296875 
Q 14.984375 17.28125 19.8125 11.734375 
Q 24.65625 6.203125 33.40625 6.203125 
Q 37.3125 6.203125 41.140625 7.25 
Q 44.96875 8.296875 48.78125 10.40625 
L 48.78125 2.09375 
Q 45.015625 0.34375 40.984375 -0.53125 
Q 36.96875 -1.421875 32.421875 -1.421875 
Q 20.0625 -1.421875 12.78125 6.34375 
Q 5.515625 14.109375 5.515625 27.296875 
Q 5.515625 40.671875 12.859375 48.328125 
Q 20.21875 56 33.015625 56 
Q 37.15625 56 41.109375 55.140625 
Q 45.0625 54.296875 48.78125 52.59375 
z
" id="DejaVuSans-99"/>
      <path d="M 30.609375 48.390625 
Q 23.390625 48.390625 19.1875 42.75 
Q 14.984375 37.109375 14.984375 27.296875 
Q 14.984375 17.484375 19.15625 11.84375 
Q 23.34375 6.203125 30.609375 6.203125 
Q 37.796875 6.203125 41.984375 11.859375 
Q 46.1875 17.53125 46.1875 27.296875 
Q 46.1875 37.015625 41.984375 42.703125 
Q 37.796875 48.390625 30.609375 48.390625 
z
M 30.609375 56 
Q 42.328125 56 49.015625 48.375 
Q 55.71875 40.765625 55.71875 27.296875 
Q 55.71875 13.875 49.015625 6.21875 
Q 42.328125 -1.421875 30.609375 -1.421875 
Q 18.84375 -1.421875 12.171875 6.21875 
Q 5.515625 13.875 5.515625 27.296875 
Q 5.515625 40.765625 12.171875 48.375 
Q 18.84375 56 30.609375 56 
z
" id="DejaVuSans-111"/>
      <path d="M 54.890625 33.015625 
L 54.890625 0 
L 45.90625 0 
L 45.90625 32.71875 
Q 45.90625 40.484375 42.875 44.328125 
Q 39.84375 48.1875 33.796875 48.1875 
Q 26.515625 48.1875 22.3125 43.546875 
Q 18.109375 38.921875 18.109375 30.90625 
L 18.109375 0 
L 9.078125 0 
L 9.078125 54.6875 
L 18.109375 54.6875 
L 18.109375 46.1875 
Q 21.34375 51.125 25.703125 53.5625 
Q 30.078125 56 35.796875 56 
Q 45.21875 56 50.046875 50.171875 
Q 54.890625 44.34375 54.890625 33.015625 
z
" id="DejaVuSans-110"/>
      <path d="M 18.3125 70.21875 
L 18.3125 54.6875 
L 36.8125 54.6875 
L 36.8125 47.703125 
L 18.3125 47.703125 
L 18.3125 18.015625 
Q 18.3125 11.328125 20.140625 9.421875 
Q 21.96875 7.515625 27.59375 7.515625 
L 36.8125 7.515625 
L 36.8125 0 
L 27.59375 0 
Q 17.1875 0 13.234375 3.875 
Q 9.28125 7.765625 9.28125 18.015625 
L 9.28125 47.703125 
L 2.6875 47.703125 
L 2.6875 54.6875 
L 9.28125 54.6875 
L 9.28125 70.21875 
z
" id="DejaVuSans-116"/>
     </defs>
     <g transform="translate(21.114555 126.134375)rotate(-90)scale(0.12 -0.12)">
      <use xlink:href="#DejaVuSans-80"/>
      <use x="60.271484" xlink:href="#DejaVuSans-105"/>
      <use x="88.054688" xlink:href="#DejaVuSans-120"/>
      <use x="147.1875" xlink:href="#DejaVuSans-101"/>
      <use x="208.710938" xlink:href="#DejaVuSans-108"/>
      <use x="236.494141" xlink:href="#DejaVuSans-32"/>
      <use x="268.28125" xlink:href="#DejaVuSans-99"/>
      <use x="323.261719" xlink:href="#DejaVuSans-111"/>
      <use x="384.443359" xlink:href="#DejaVuSans-117"/>
      <use x="447.822266" xlink:href="#DejaVuSans-110"/>
      <use x="511.201172" xlink:href="#DejaVuSans-116"/>
     </g>
    </g>
   </g>
   <g id="patch_4">
    <path d="M 61.55 169.66 
L 61.55 16.56 
" style="fill:none;stroke:#000000;stroke-linecap:square;stroke-linejoin:miter;stroke-width:1.5;"/>
   </g>
   <g id="patch_5">
    <path d="M 553.59 169.66 
L 553.59 16.56 
" style="fill:none;stroke:#000000;stroke-linecap:square;stroke-linejoin:miter;stroke-width:1.5;"/>
   </g>
   <g id="patch_6">
    <path d="M 61.55 169.66 
L 553.59 169.66 
" style="fill:none;stroke:#000000;stroke-linecap:square;stroke-linejoin:miter;stroke-width:1.5;"/>
   </g>
   <g id="patch_7">
    <path d="M 61.55 16.56 
L 553.59 16.56 
" style="fill:none;stroke:#000000;stroke-linecap:square;stroke-linejoin:miter;stroke-width:1.5;"/>
   </g>
  </g>
 </g>
 <defs>
  <clipPath id="pf62fded504">
   <rect height="153.1" width="492.04" x="61.55" y="16.56"/>
  </clipPath>
 </defs>
</svg>
