<?xml version="1.0" encoding="utf-8" standalone="no"?>
<!DOCTYPE svg PUBLIC "-//W3C//DTD SVG 1.1//EN"
  "http://www.w3.org/Graphics/SVG/1.1/DTD/svg11.dtd">
<!-- Created with matplotlib (http://matplotlib.org/) -->
<svg height="216pt" version="1.1" viewBox="0 0 576 216" width="576pt" xmlns="http://www.w3.org/2000/svg" xmlns:xlink="http://www.w3.org/1999/xlink">
 <defs>
  <style type="text/css">
*{stroke-linecap:butt;stroke-linejoin:round;}
  </style>
 </defs>
 <g id="figure_1">
  <g id="patch_1">
   <path d="
M0 216
L576 216
L576 0
L0 0
L0 216" style="fill:none;"/>
  </g>
  <g id="axes_1">
   <g id="patch_2">
    <path d="
M58.0725 173.34
L554.181 173.34
L554.181 17.46
L58.0725 17.46
L58.0725 173.34" style="fill:none;"/>
   </g>
   <g id="patch_3">
    <path clip-path="url(#pb7aa02d353)" d="
M58.0725 173.34
L58.0725 173.34
L60.0569 173.34
L60.0569 173.34
L62.0414 173.34
L62.0414 173.34
L64.0258 173.34
L64.0258 173.34
L66.0102 173.34
L66.0102 173.34
L67.9947 173.34
L67.9947 173.34
L69.9791 173.34
L69.9791 173.34
L71.9635 173.34
L71.9635 173.34
L73.948 173.34
L73.948 173.34
L75.9324 173.34
L75.9324 173.34
L77.9168 173.34
L77.9168 173.34
L79.9013 173.34
L79.9013 173.34
L81.8857 173.34
L81.8857 173.34
L83.8701 173.34
L83.8701 173.34
L85.8546 173.34
L85.8546 173.34
L87.839 173.34
L87.839 173.34
L89.8234 173.34
L89.8234 173.34
L91.8079 173.34
L91.8079 173.34
L93.7923 173.34
L93.7923 173.34
L95.7767 173.34
L95.7767 173.34
L97.7611 173.34
L97.7611 173.34
L99.7456 173.34
L99.7456 173.34
L101.73 173.34
L101.73 173.34
L103.714 173.34
L103.714 173.34
L105.699 173.34
L105.699 173.34
L107.683 173.34
L107.683 173.34
L109.668 173.34
L109.668 173.323
L111.652 173.323
L111.652 173.271
L113.637 173.271
L113.637 172.613
L115.621 172.613
L115.621 171.123
L117.605 171.123
L117.605 168.421
L119.59 168.421
L119.59 163.71
L121.574 163.71
L121.574 156.159
L123.559 156.159
L123.559 147.273
L125.543 147.273
L125.543 136.396
L127.528 136.396
L127.528 126.212
L129.512 126.212
L129.512 119.371
L131.497 119.371
L131.497 115.664
L133.481 115.664
L133.481 118.73
L135.465 118.73
L135.465 122.852
L137.45 122.852
L137.45 131.426
L139.434 131.426
L139.434 138.752
L141.419 138.752
L141.419 143.913
L143.403 143.913
L143.403 149.092
L145.388 149.092
L145.388 152.452
L147.372 152.452
L147.372 154.496
L149.356 154.496
L149.356 157.284
L151.341 157.284
L151.341 158.358
L153.325 158.358
L153.325 160.87
L155.31 160.87
L155.31 161.372
L157.294 161.372
L157.294 162.359
L159.279 162.359
L159.279 162.844
L161.263 162.844
L161.263 163.554
L163.247 163.554
L163.247 164.403
L165.232 164.403
L165.232 164.68
L167.216 164.68
L167.216 165.165
L169.201 165.165
L169.201 165.84
L171.185 165.84
L171.185 166.152
L173.17 166.152
L173.17 166.499
L175.154 166.499
L175.154 166.741
L177.138 166.741
L177.138 166.741
L179.123 166.741
L179.123 167.122
L181.107 167.122
L181.107 167.538
L183.092 167.538
L183.092 167.78
L185.076 167.78
L185.076 167.191
L187.061 167.191
L187.061 168.196
L189.045 168.196
L189.045 168.005
L191.029 168.005
L191.029 167.936
L193.014 167.936
L193.014 168.698
L194.998 168.698
L194.998 168.04
L196.983 168.04
L196.983 168.542
L198.967 168.542
L198.967 168.335
L200.952 168.335
L200.952 168.508
L202.936 168.508
L202.936 169.166
L204.921 169.166
L204.921 168.594
L206.905 168.594
L206.905 169.183
L208.889 169.183
L208.889 169.408
L210.874 169.408
L210.874 169.339
L212.858 169.339
L212.858 169.114
L214.843 169.114
L214.843 169.027
L216.827 169.027
L216.827 169.356
L218.812 169.356
L218.812 169.252
L220.796 169.252
L220.796 169.547
L222.78 169.547
L222.78 169.304
L224.765 169.304
L224.765 169.339
L226.749 169.339
L226.749 169.512
L228.734 169.512
L228.734 169.322
L230.718 169.322
L230.718 169.547
L232.703 169.547
L232.703 169.876
L234.687 169.876
L234.687 169.235
L236.671 169.235
L236.671 169.807
L238.656 169.807
L238.656 169.963
L240.64 169.963
L240.64 169.893
L242.625 169.893
L242.625 169.772
L244.609 169.772
L244.609 169.599
L246.594 169.599
L246.594 169.807
L248.578 169.807
L248.578 169.616
L250.562 169.616
L250.562 170.153
L252.547 170.153
L252.547 169.928
L254.531 169.928
L254.531 170.205
L256.516 170.205
L256.516 170.309
L258.5 170.309
L258.5 170.551
L260.485 170.551
L260.485 169.426
L262.469 169.426
L262.469 169.859
L264.453 169.859
L264.453 169.876
L266.438 169.876
L266.438 170.136
L268.422 170.136
L268.422 169.859
L270.407 169.859
L270.407 170.448
L272.391 170.448
L272.391 170.482
L274.376 170.482
L274.376 170.17
L276.36 170.17
L276.36 170.032
L278.345 170.032
L278.345 169.963
L280.329 169.963
L280.329 170.43
L282.313 170.43
L282.313 170.049
L284.298 170.049
L284.298 170.205
L286.282 170.205
L286.282 169.859
L288.267 169.859
L288.267 170.118
L290.251 170.118
L290.251 170.621
L292.236 170.621
L292.236 170.222
L294.22 170.222
L294.22 170.032
L296.204 170.032
L296.204 170.448
L298.189 170.448
L298.189 169.997
L300.173 169.997
L300.173 169.651
L302.158 169.651
L302.158 170.222
L304.142 170.222
L304.142 169.963
L306.127 169.963
L306.127 170.101
L308.111 170.101
L308.111 170.465
L310.095 170.465
L310.095 170.118
L312.08 170.118
L312.08 170.032
L314.064 170.032
L314.064 169.789
L316.049 169.789
L316.049 170.101
L318.033 170.101
L318.033 170.222
L320.018 170.222
L320.018 169.928
L322.002 169.928
L322.002 169.963
L323.986 169.963
L323.986 170.344
L325.971 170.344
L325.971 170.118
L327.955 170.118
L327.955 170.188
L329.94 170.188
L329.94 170.049
L331.924 170.049
L331.924 170.032
L333.909 170.032
L333.909 170.032
L335.893 170.032
L335.893 169.963
L337.877 169.963
L337.877 169.807
L339.862 169.807
L339.862 169.928
L341.846 169.928
L341.846 170.136
L343.831 170.136
L343.831 169.841
L345.815 169.841
L345.815 170.188
L347.8 170.188
L347.8 170.015
L349.784 170.015
L349.784 169.685
L351.769 169.685
L351.769 170.118
L353.753 170.118
L353.753 169.911
L355.737 169.911
L355.737 169.945
L357.722 169.945
L357.722 169.582
L359.706 169.582
L359.706 170.015
L361.691 170.015
L361.691 169.062
L363.675 169.062
L363.675 169.824
L365.66 169.824
L365.66 169.218
L367.644 169.218
L367.644 169.616
L369.628 169.616
L369.628 169.547
L371.613 169.547
L371.613 169.737
L373.597 169.737
L373.597 169.512
L375.582 169.512
L375.582 169.478
L377.566 169.478
L377.566 169.391
L379.551 169.391
L379.551 169.72
L381.535 169.72
L381.535 169.218
L383.519 169.218
L383.519 169.391
L385.504 169.391
L385.504 169.218
L387.488 169.218
L387.488 169.183
L389.473 169.183
L389.473 168.716
L391.457 168.716
L391.457 169.183
L393.442 169.183
L393.442 168.681
L395.426 168.681
L395.426 168.75
L397.41 168.75
L397.41 169.235
L399.395 169.235
L399.395 168.975
L401.379 168.975
L401.379 168.733
L403.364 168.733
L403.364 168.3
L405.348 168.3
L405.348 168.438
L407.333 168.438
L407.333 167.936
L409.317 167.936
L409.317 168.092
L411.301 168.092
L411.301 167.884
L413.286 167.884
L413.286 167.936
L415.27 167.936
L415.27 167.988
L417.255 167.988
L417.255 167.815
L419.239 167.815
L419.239 166.793
L421.224 166.793
L421.224 167.018
L423.208 167.018
L423.208 166.724
L425.193 166.724
L425.193 166.81
L427.177 166.81
L427.177 166.048
L429.161 166.048
L429.161 166.118
L431.146 166.118
L431.146 165.563
L433.13 165.563
L433.13 164.94
L435.115 164.94
L435.115 164.732
L437.099 164.732
L437.099 163.727
L439.084 163.727
L439.084 164.438
L441.068 164.438
L441.068 163.658
L443.052 163.658
L443.052 162.567
L445.037 162.567
L445.037 161.545
L447.021 161.545
L447.021 161.06
L449.006 161.06
L449.006 160.454
L450.99 160.454
L450.99 157.735
L452.975 157.735
L452.975 155.968
L454.959 155.968
L454.959 154.998
L456.943 154.998
L456.943 150.859
L458.928 150.859
L458.928 148.555
L460.912 148.555
L460.912 141.956
L462.897 141.956
L462.897 135.582
L464.881 135.582
L464.881 120.895
L466.866 120.895
L466.866 103.436
L468.85 103.436
L468.85 78.7208
L470.834 78.7208
L470.834 52.2559
L472.819 52.2559
L472.819 33.8447
L474.803 33.8447
L474.803 34.8493
L476.788 34.8493
L476.788 55.8238
L478.772 55.8238
L478.772 89.9442
L480.757 89.9442
L480.757 126.628
L482.741 126.628
L482.741 151.569
L484.725 151.569
L484.725 165.91
L486.71 165.91
L486.71 170.707
L488.694 170.707
L488.694 172.682
L490.679 172.682
L490.679 173.167
L492.663 173.167
L492.663 173.323
L494.648 173.323
L494.648 173.34
L496.632 173.34
L496.632 173.34
L498.617 173.34
L498.617 173.34
L500.601 173.34
L500.601 173.34
L502.585 173.34
L502.585 173.34
L504.57 173.34
L504.57 173.34
L506.554 173.34
L506.554 173.34
L508.539 173.34
L508.539 173.34
L510.523 173.34
L510.523 173.323
L512.508 173.323
L512.508 173.34
L514.492 173.34
L514.492 173.34
L516.476 173.34
L516.476 173.34
L518.461 173.34
L518.461 173.34
L520.445 173.34
L520.445 173.34
L522.43 173.34
L522.43 173.34
L524.414 173.34
L524.414 173.34
L526.399 173.34
L526.399 173.34
L528.383 173.34
L528.383 173.34
L530.367 173.34
L530.367 173.34
L532.352 173.34
L532.352 173.34
L534.336 173.34
L534.336 173.34
L536.321 173.34
L536.321 173.34
L538.305 173.34
L538.305 173.34
L540.29 173.34
L540.29 173.34
L542.274 173.34
L542.274 173.34
L544.258 173.34
L544.258 173.34
L546.243 173.34
L546.243 173.34
L548.227 173.34
L548.227 173.34
L550.212 173.34
L550.212 173.34
L552.196 173.34
L552.196 173.34
L554.181 173.34
L554.181 173.34
L556.165 173.34
L556.165 173.34
L558.149 173.34
L558.149 173.34
L560.134 173.34
L560.134 173.34
L562.118 173.34
L562.118 173.34
L564.103 173.34
L564.103 173.34
L566.087 173.34
L566.087 173.34
L564.103 173.34
L564.103 173.34
L562.118 173.34
L562.118 173.34
L560.134 173.34
L560.134 173.34
L558.149 173.34
L558.149 173.34
L556.165 173.34
L556.165 173.34
L554.181 173.34
L554.181 173.34
L552.196 173.34
L552.196 173.34
L550.212 173.34
L550.212 173.34
L548.227 173.34
L548.227 173.34
L546.243 173.34
L546.243 173.34
L544.258 173.34
L544.258 173.34
L542.274 173.34
L542.274 173.34
L540.29 173.34
L540.29 173.34
L538.305 173.34
L538.305 173.34
L536.321 173.34
L536.321 173.34
L534.336 173.34
L534.336 173.34
L532.352 173.34
L532.352 173.34
L530.367 173.34
L530.367 173.34
L528.383 173.34
L528.383 173.34
L526.399 173.34
L526.399 173.34
L524.414 173.34
L524.414 173.34
L522.43 173.34
L522.43 173.34
L520.445 173.34
L520.445 173.34
L518.461 173.34
L518.461 173.34
L516.476 173.34
L516.476 173.34
L514.492 173.34
L514.492 173.34
L512.508 173.34
L512.508 173.34
L510.523 173.34
L510.523 173.34
L508.539 173.34
L508.539 173.34
L506.554 173.34
L506.554 173.34
L504.57 173.34
L504.57 173.34
L502.585 173.34
L502.585 173.34
L500.601 173.34
L500.601 173.34
L498.617 173.34
L498.617 173.34
L496.632 173.34
L496.632 173.34
L494.648 173.34
L494.648 173.34
L492.663 173.34
L492.663 173.34
L490.679 173.34
L490.679 173.34
L488.694 173.34
L488.694 173.34
L486.71 173.34
L486.71 173.34
L484.725 173.34
L484.725 173.34
L482.741 173.34
L482.741 173.34
L480.757 173.34
L480.757 173.34
L478.772 173.34
L478.772 173.34
L476.788 173.34
L476.788 173.34
L474.803 173.34
L474.803 173.34
L472.819 173.34
L472.819 173.34
L470.834 173.34
L470.834 173.34
L468.85 173.34
L468.85 173.34
L466.866 173.34
L466.866 173.34
L464.881 173.34
L464.881 173.34
L462.897 173.34
L462.897 173.34
L460.912 173.34
L460.912 173.34
L458.928 173.34
L458.928 173.34
L456.943 173.34
L456.943 173.34
L454.959 173.34
L454.959 173.34
L452.975 173.34
L452.975 173.34
L450.99 173.34
L450.99 173.34
L449.006 173.34
L449.006 173.34
L447.021 173.34
L447.021 173.34
L445.037 173.34
L445.037 173.34
L443.052 173.34
L443.052 173.34
L441.068 173.34
L441.068 173.34
L439.084 173.34
L439.084 173.34
L437.099 173.34
L437.099 173.34
L435.115 173.34
L435.115 173.34
L433.13 173.34
L433.13 173.34
L431.146 173.34
L431.146 173.34
L429.161 173.34
L429.161 173.34
L427.177 173.34
L427.177 173.34
L425.193 173.34
L425.193 173.34
L423.208 173.34
L423.208 173.34
L421.224 173.34
L421.224 173.34
L419.239 173.34
L419.239 173.34
L417.255 173.34
L417.255 173.34
L415.27 173.34
L415.27 173.34
L413.286 173.34
L413.286 173.34
L411.301 173.34
L411.301 173.34
L409.317 173.34
L409.317 173.34
L407.333 173.34
L407.333 173.34
L405.348 173.34
L405.348 173.34
L403.364 173.34
L403.364 173.34
L401.379 173.34
L401.379 173.34
L399.395 173.34
L399.395 173.34
L397.41 173.34
L397.41 173.34
L395.426 173.34
L395.426 173.34
L393.442 173.34
L393.442 173.34
L391.457 173.34
L391.457 173.34
L389.473 173.34
L389.473 173.34
L387.488 173.34
L387.488 173.34
L385.504 173.34
L385.504 173.34
L383.519 173.34
L383.519 173.34
L381.535 173.34
L381.535 173.34
L379.551 173.34
L379.551 173.34
L377.566 173.34
L377.566 173.34
L375.582 173.34
L375.582 173.34
L373.597 173.34
L373.597 173.34
L371.613 173.34
L371.613 173.34
L369.628 173.34
L369.628 173.34
L367.644 173.34
L367.644 173.34
L365.66 173.34
L365.66 173.34
L363.675 173.34
L363.675 173.34
L361.691 173.34
L361.691 173.34
L359.706 173.34
L359.706 173.34
L357.722 173.34
L357.722 173.34
L355.737 173.34
L355.737 173.34
L353.753 173.34
L353.753 173.34
L351.769 173.34
L351.769 173.34
L349.784 173.34
L349.784 173.34
L347.8 173.34
L347.8 173.34
L345.815 173.34
L345.815 173.34
L343.831 173.34
L343.831 173.34
L341.846 173.34
L341.846 173.34
L339.862 173.34
L339.862 173.34
L337.877 173.34
L337.877 173.34
L335.893 173.34
L335.893 173.34
L333.909 173.34
L333.909 173.34
L331.924 173.34
L331.924 173.34
L329.94 173.34
L329.94 173.34
L327.955 173.34
L327.955 173.34
L325.971 173.34
L325.971 173.34
L323.986 173.34
L323.986 173.34
L322.002 173.34
L322.002 173.34
L320.018 173.34
L320.018 173.34
L318.033 173.34
L318.033 173.34
L316.049 173.34
L316.049 173.34
L314.064 173.34
L314.064 173.34
L312.08 173.34
L312.08 173.34
L310.095 173.34
L310.095 173.34
L308.111 173.34
L308.111 173.34
L306.127 173.34
L306.127 173.34
L304.142 173.34
L304.142 173.34
L302.158 173.34
L302.158 173.34
L300.173 173.34
L300.173 173.34
L298.189 173.34
L298.189 173.34
L296.204 173.34
L296.204 173.34
L294.22 173.34
L294.22 173.34
L292.236 173.34
L292.236 173.34
L290.251 173.34
L290.251 173.34
L288.267 173.34
L288.267 173.34
L286.282 173.34
L286.282 173.34
L284.298 173.34
L284.298 173.34
L282.313 173.34
L282.313 173.34
L280.329 173.34
L280.329 173.34
L278.345 173.34
L278.345 173.34
L276.36 173.34
L276.36 173.34
L274.376 173.34
L274.376 173.34
L272.391 173.34
L272.391 173.34
L270.407 173.34
L270.407 173.34
L268.422 173.34
L268.422 173.34
L266.438 173.34
L266.438 173.34
L264.453 173.34
L264.453 173.34
L262.469 173.34
L262.469 173.34
L260.485 173.34
L260.485 173.34
L258.5 173.34
L258.5 173.34
L256.516 173.34
L256.516 173.34
L254.531 173.34
L254.531 173.34
L252.547 173.34
L252.547 173.34
L250.562 173.34
L250.562 173.34
L248.578 173.34
L248.578 173.34
L246.594 173.34
L246.594 173.34
L244.609 173.34
L244.609 173.34
L242.625 173.34
L242.625 173.34
L240.64 173.34
L240.64 173.34
L238.656 173.34
L238.656 173.34
L236.671 173.34
L236.671 173.34
L234.687 173.34
L234.687 173.34
L232.703 173.34
L232.703 173.34
L230.718 173.34
L230.718 173.34
L228.734 173.34
L228.734 173.34
L226.749 173.34
L226.749 173.34
L224.765 173.34
L224.765 173.34
L222.78 173.34
L222.78 173.34
L220.796 173.34
L220.796 173.34
L218.812 173.34
L218.812 173.34
L216.827 173.34
L216.827 173.34
L214.843 173.34
L214.843 173.34
L212.858 173.34
L212.858 173.34
L210.874 173.34
L210.874 173.34
L208.889 173.34
L208.889 173.34
L206.905 173.34
L206.905 173.34
L204.921 173.34
L204.921 173.34
L202.936 173.34
L202.936 173.34
L200.952 173.34
L200.952 173.34
L198.967 173.34
L198.967 173.34
L196.983 173.34
L196.983 173.34
L194.998 173.34
L194.998 173.34
L193.014 173.34
L193.014 173.34
L191.029 173.34
L191.029 173.34
L189.045 173.34
L189.045 173.34
L187.061 173.34
L187.061 173.34
L185.076 173.34
L185.076 173.34
L183.092 173.34
L183.092 173.34
L181.107 173.34
L181.107 173.34
L179.123 173.34
L179.123 173.34
L177.138 173.34
L177.138 173.34
L175.154 173.34
L175.154 173.34
L173.17 173.34
L173.17 173.34
L171.185 173.34
L171.185 173.34
L169.201 173.34
L169.201 173.34
L167.216 173.34
L167.216 173.34
L165.232 173.34
L165.232 173.34
L163.247 173.34
L163.247 173.34
L161.263 173.34
L161.263 173.34
L159.279 173.34
L159.279 173.34
L157.294 173.34
L157.294 173.34
L155.31 173.34
L155.31 173.34
L153.325 173.34
L153.325 173.34
L151.341 173.34
L151.341 173.34
L149.356 173.34
L149.356 173.34
L147.372 173.34
L147.372 173.34
L145.388 173.34
L145.388 173.34
L143.403 173.34
L143.403 173.34
L141.419 173.34
L141.419 173.34
L139.434 173.34
L139.434 173.34
L137.45 173.34
L137.45 173.34
L135.465 173.34
L135.465 173.34
L133.481 173.34
L133.481 173.34
L131.497 173.34
L131.497 173.34
L129.512 173.34
L129.512 173.34
L127.528 173.34
L127.528 173.34
L125.543 173.34
L125.543 173.34
L123.559 173.34
L123.559 173.34
L121.574 173.34
L121.574 173.34
L119.59 173.34
L119.59 173.34
L117.605 173.34
L117.605 173.34
L115.621 173.34
L115.621 173.34
L113.637 173.34
L113.637 173.34
L111.652 173.34
L111.652 173.34
L109.668 173.34
L109.668 173.34
L107.683 173.34
L107.683 173.34
L105.699 173.34
L105.699 173.34
L103.714 173.34
L103.714 173.34
L101.73 173.34
L101.73 173.34
L99.7456 173.34
L99.7456 173.34
L97.7611 173.34
L97.7611 173.34
L95.7767 173.34
L95.7767 173.34
L93.7923 173.34
L93.7923 173.34
L91.8079 173.34
L91.8079 173.34
L89.8234 173.34
L89.8234 173.34
L87.839 173.34
L87.839 173.34
L85.8546 173.34
L85.8546 173.34
L83.8701 173.34
L83.8701 173.34
L81.8857 173.34
L81.8857 173.34
L79.9013 173.34
L79.9013 173.34
L77.9168 173.34
L77.9168 173.34
L75.9324 173.34
L75.9324 173.34
L73.948 173.34
L73.948 173.34
L71.9635 173.34
L71.9635 173.34
L69.9791 173.34
L69.9791 173.34
L67.9947 173.34
L67.9947 173.34
L66.0102 173.34
L66.0102 173.34
L64.0258 173.34
L64.0258 173.34
L62.0414 173.34
L62.0414 173.34
L60.0569 173.34
L60.0569 173.34
z
" style="fill:#0000ff;opacity:0.5;"/>
   </g>
   <g id="patch_4">
    <path d="
M58.0725 173.34
L58.0725 17.46" style="fill:none;stroke:#000000;stroke-linecap:square;stroke-linejoin:miter;stroke-width:1.5;"/>
   </g>
   <g id="patch_5">
    <path d="
M58.0725 173.34
L554.181 173.34" style="fill:none;stroke:#000000;stroke-linecap:square;stroke-linejoin:miter;stroke-width:1.5;"/>
   </g>
   <g id="patch_6">
    <path d="
M58.0725 17.46
L554.181 17.46" style="fill:none;stroke:#000000;stroke-linecap:square;stroke-linejoin:miter;stroke-width:1.5;"/>
   </g>
   <g id="patch_7">
    <path d="
M554.181 173.34
L554.181 17.46" style="fill:none;stroke:#000000;stroke-linecap:square;stroke-linejoin:miter;stroke-width:1.5;"/>
   </g>
   <g id="matplotlib.axis_1">
    <g id="xtick_1">
     <g id="line2d_1">
      <defs>
       <path d="
M0 0
L0 -5" id="m4f4f36a452" style="stroke:#000000;stroke-width:1.5;"/>
      </defs>
      <g>
       <use style="stroke:#000000;stroke-width:1.5;" x="58.0725" xlink:href="#m4f4f36a452" y="173.34"/>
      </g>
     </g>
     <g id="line2d_2">
      <defs>
       <path d="
M0 0
L0 5" id="mcb126f42e4" style="stroke:#000000;stroke-width:1.5;"/>
      </defs>
      <g>
       <use style="stroke:#000000;stroke-width:1.5;" x="58.0725" xlink:href="#mcb126f42e4" y="17.46"/>
      </g>
     </g>
     <g id="text_1">
      <!-- 0 -->
      <defs>
       <path d="
M31.7812 66.4062
Q24.1719 66.4062 20.3281 58.9062
Q16.5 51.4219 16.5 36.375
Q16.5 21.3906 20.3281 13.8906
Q24.1719 6.39062 31.7812 6.39062
Q39.4531 6.39062 43.2812 13.8906
Q47.125 21.3906 47.125 36.375
Q47.125 51.4219 43.2812 58.9062
Q39.4531 66.4062 31.7812 66.4062
M31.7812 74.2188
Q44.0469 74.2188 50.5156 64.5156
Q56.9844 54.8281 56.9844 36.375
Q56.9844 17.9688 50.5156 8.26562
Q44.0469 -1.42188 31.7812 -1.42188
Q19.5312 -1.42188 13.0625 8.26562
Q6.59375 17.9688 6.59375 36.375
Q6.59375 54.8281 13.0625 64.5156
Q19.5312 74.2188 31.7812 74.2188" id="BitstreamVeraSans-Roman-30"/>
      </defs>
      <g transform="translate(55.5539765625 184.935398125)scale(0.09996 -0.09996)">
       <use xlink:href="#BitstreamVeraSans-Roman-30"/>
      </g>
     </g>
    </g>
    <g id="xtick_2">
     <g id="line2d_3">
      <g>
       <use style="stroke:#000000;stroke-width:1.5;" x="157.294125" xlink:href="#m4f4f36a452" y="173.34"/>
      </g>
     </g>
     <g id="line2d_4">
      <g>
       <use style="stroke:#000000;stroke-width:1.5;" x="157.294125" xlink:href="#mcb126f42e4" y="17.46"/>
      </g>
     </g>
     <g id="text_2">
      <!-- 50 -->
      <defs>
       <path d="
M10.7969 72.9062
L49.5156 72.9062
L49.5156 64.5938
L19.8281 64.5938
L19.8281 46.7344
Q21.9688 47.4688 24.1094 47.8281
Q26.2656 48.1875 28.4219 48.1875
Q40.625 48.1875 47.75 41.5
Q54.8906 34.8125 54.8906 23.3906
Q54.8906 11.625 47.5625 5.09375
Q40.2344 -1.42188 26.9062 -1.42188
Q22.3125 -1.42188 17.5469 -0.640625
Q12.7969 0.140625 7.71875 1.70312
L7.71875 11.625
Q12.1094 9.23438 16.7969 8.0625
Q21.4844 6.89062 26.7031 6.89062
Q35.1562 6.89062 40.0781 11.3281
Q45.0156 15.7656 45.0156 23.3906
Q45.0156 31 40.0781 35.4375
Q35.1562 39.8906 26.7031 39.8906
Q22.75 39.8906 18.8125 39.0156
Q14.8906 38.1406 10.7969 36.2812
z
" id="BitstreamVeraSans-Roman-35"/>
      </defs>
      <g transform="translate(151.651851562 184.935398125)scale(0.09996 -0.09996)">
       <use xlink:href="#BitstreamVeraSans-Roman-35"/>
       <use x="63.623046875" xlink:href="#BitstreamVeraSans-Roman-30"/>
      </g>
     </g>
    </g>
    <g id="xtick_3">
     <g id="line2d_5">
      <g>
       <use style="stroke:#000000;stroke-width:1.5;" x="256.51575" xlink:href="#m4f4f36a452" y="173.34"/>
      </g>
     </g>
     <g id="line2d_6">
      <g>
       <use style="stroke:#000000;stroke-width:1.5;" x="256.51575" xlink:href="#mcb126f42e4" y="17.46"/>
      </g>
     </g>
     <g id="text_3">
      <!-- 100 -->
      <defs>
       <path d="
M12.4062 8.29688
L28.5156 8.29688
L28.5156 63.9219
L10.9844 60.4062
L10.9844 69.3906
L28.4219 72.9062
L38.2812 72.9062
L38.2812 8.29688
L54.3906 8.29688
L54.3906 0
L12.4062 0
z
" id="BitstreamVeraSans-Roman-31"/>
      </defs>
      <g transform="translate(247.856715 184.935398125)scale(0.09996 -0.09996)">
       <use xlink:href="#BitstreamVeraSans-Roman-31"/>
       <use x="63.623046875" xlink:href="#BitstreamVeraSans-Roman-30"/>
       <use x="127.24609375" xlink:href="#BitstreamVeraSans-Roman-30"/>
      </g>
     </g>
    </g>
    <g id="xtick_4">
     <g id="line2d_7">
      <g>
       <use style="stroke:#000000;stroke-width:1.5;" x="355.737375" xlink:href="#m4f4f36a452" y="173.34"/>
      </g>
     </g>
     <g id="line2d_8">
      <g>
       <use style="stroke:#000000;stroke-width:1.5;" x="355.737375" xlink:href="#mcb126f42e4" y="17.46"/>
      </g>
     </g>
     <g id="text_4">
      <!-- 150 -->
      <g transform="translate(347.07834 184.935398125)scale(0.09996 -0.09996)">
       <use xlink:href="#BitstreamVeraSans-Roman-31"/>
       <use x="63.623046875" xlink:href="#BitstreamVeraSans-Roman-35"/>
       <use x="127.24609375" xlink:href="#BitstreamVeraSans-Roman-30"/>
      </g>
     </g>
    </g>
    <g id="xtick_5">
     <g id="line2d_9">
      <g>
       <use style="stroke:#000000;stroke-width:1.5;" x="454.959" xlink:href="#m4f4f36a452" y="173.34"/>
      </g>
     </g>
     <g id="line2d_10">
      <g>
       <use style="stroke:#000000;stroke-width:1.5;" x="454.959" xlink:href="#mcb126f42e4" y="17.46"/>
      </g>
     </g>
     <g id="text_5">
      <!-- 200 -->
      <defs>
       <path d="
M19.1875 8.29688
L53.6094 8.29688
L53.6094 0
L7.32812 0
L7.32812 8.29688
Q12.9375 14.1094 22.625 23.8906
Q32.3281 33.6875 34.8125 36.5312
Q39.5469 41.8438 41.4219 45.5312
Q43.3125 49.2188 43.3125 52.7812
Q43.3125 58.5938 39.2344 62.25
Q35.1562 65.9219 28.6094 65.9219
Q23.9688 65.9219 18.8125 64.3125
Q13.6719 62.7031 7.8125 59.4219
L7.8125 69.3906
Q13.7656 71.7812 18.9375 73
Q24.125 74.2188 28.4219 74.2188
Q39.75 74.2188 46.4844 68.5469
Q53.2188 62.8906 53.2188 53.4219
Q53.2188 48.9219 51.5312 44.8906
Q49.8594 40.875 45.4062 35.4062
Q44.1875 33.9844 37.6406 27.2188
Q31.1094 20.4531 19.1875 8.29688" id="BitstreamVeraSans-Roman-32"/>
      </defs>
      <g transform="translate(446.117225625 184.935398125)scale(0.09996 -0.09996)">
       <use xlink:href="#BitstreamVeraSans-Roman-32"/>
       <use x="63.623046875" xlink:href="#BitstreamVeraSans-Roman-30"/>
       <use x="127.24609375" xlink:href="#BitstreamVeraSans-Roman-30"/>
      </g>
     </g>
    </g>
    <g id="xtick_6">
     <g id="line2d_11">
      <g>
       <use style="stroke:#000000;stroke-width:1.5;" x="554.180625" xlink:href="#m4f4f36a452" y="173.34"/>
      </g>
     </g>
     <g id="line2d_12">
      <g>
       <use style="stroke:#000000;stroke-width:1.5;" x="554.180625" xlink:href="#mcb126f42e4" y="17.46"/>
      </g>
     </g>
     <g id="text_6">
      <!-- 250 -->
      <g transform="translate(545.338850625 184.935398125)scale(0.09996 -0.09996)">
       <use xlink:href="#BitstreamVeraSans-Roman-32"/>
       <use x="63.623046875" xlink:href="#BitstreamVeraSans-Roman-35"/>
       <use x="127.24609375" xlink:href="#BitstreamVeraSans-Roman-30"/>
      </g>
     </g>
    </g>
    <g id="xtick_7">
     <g id="line2d_13">
      <defs>
       <path d="
M0 0
L0 -3" id="m054bb0be64" style="stroke:#000000;stroke-width:1.5;"/>
      </defs>
      <g>
       <use style="stroke:#000000;stroke-width:1.5;" x="77.916825" xlink:href="#m054bb0be64" y="173.34"/>
      </g>
     </g>
     <g id="line2d_14">
      <defs>
       <path d="
M0 0
L0 3" id="m6936cb19ec" style="stroke:#000000;stroke-width:1.5;"/>
      </defs>
      <g>
       <use style="stroke:#000000;stroke-width:1.5;" x="77.916825" xlink:href="#m6936cb19ec" y="17.46"/>
      </g>
     </g>
    </g>
    <g id="xtick_8">
     <g id="line2d_15">
      <g>
       <use style="stroke:#000000;stroke-width:1.5;" x="97.76115" xlink:href="#m054bb0be64" y="173.34"/>
      </g>
     </g>
     <g id="line2d_16">
      <g>
       <use style="stroke:#000000;stroke-width:1.5;" x="97.76115" xlink:href="#m6936cb19ec" y="17.46"/>
      </g>
     </g>
    </g>
    <g id="xtick_9">
     <g id="line2d_17">
      <g>
       <use style="stroke:#000000;stroke-width:1.5;" x="117.605475" xlink:href="#m054bb0be64" y="173.34"/>
      </g>
     </g>
     <g id="line2d_18">
      <g>
       <use style="stroke:#000000;stroke-width:1.5;" x="117.605475" xlink:href="#m6936cb19ec" y="17.46"/>
      </g>
     </g>
    </g>
    <g id="xtick_10">
     <g id="line2d_19">
      <g>
       <use style="stroke:#000000;stroke-width:1.5;" x="137.4498" xlink:href="#m054bb0be64" y="173.34"/>
      </g>
     </g>
     <g id="line2d_20">
      <g>
       <use style="stroke:#000000;stroke-width:1.5;" x="137.4498" xlink:href="#m6936cb19ec" y="17.46"/>
      </g>
     </g>
    </g>
    <g id="xtick_11">
     <g id="line2d_21">
      <g>
       <use style="stroke:#000000;stroke-width:1.5;" x="177.13845" xlink:href="#m054bb0be64" y="173.34"/>
      </g>
     </g>
     <g id="line2d_22">
      <g>
       <use style="stroke:#000000;stroke-width:1.5;" x="177.13845" xlink:href="#m6936cb19ec" y="17.46"/>
      </g>
     </g>
    </g>
    <g id="xtick_12">
     <g id="line2d_23">
      <g>
       <use style="stroke:#000000;stroke-width:1.5;" x="196.982775" xlink:href="#m054bb0be64" y="173.34"/>
      </g>
     </g>
     <g id="line2d_24">
      <g>
       <use style="stroke:#000000;stroke-width:1.5;" x="196.982775" xlink:href="#m6936cb19ec" y="17.46"/>
      </g>
     </g>
    </g>
    <g id="xtick_13">
     <g id="line2d_25">
      <g>
       <use style="stroke:#000000;stroke-width:1.5;" x="216.8271" xlink:href="#m054bb0be64" y="173.34"/>
      </g>
     </g>
     <g id="line2d_26">
      <g>
       <use style="stroke:#000000;stroke-width:1.5;" x="216.8271" xlink:href="#m6936cb19ec" y="17.46"/>
      </g>
     </g>
    </g>
    <g id="xtick_14">
     <g id="line2d_27">
      <g>
       <use style="stroke:#000000;stroke-width:1.5;" x="236.671425" xlink:href="#m054bb0be64" y="173.34"/>
      </g>
     </g>
     <g id="line2d_28">
      <g>
       <use style="stroke:#000000;stroke-width:1.5;" x="236.671425" xlink:href="#m6936cb19ec" y="17.46"/>
      </g>
     </g>
    </g>
    <g id="xtick_15">
     <g id="line2d_29">
      <g>
       <use style="stroke:#000000;stroke-width:1.5;" x="276.360075" xlink:href="#m054bb0be64" y="173.34"/>
      </g>
     </g>
     <g id="line2d_30">
      <g>
       <use style="stroke:#000000;stroke-width:1.5;" x="276.360075" xlink:href="#m6936cb19ec" y="17.46"/>
      </g>
     </g>
    </g>
    <g id="xtick_16">
     <g id="line2d_31">
      <g>
       <use style="stroke:#000000;stroke-width:1.5;" x="296.2044" xlink:href="#m054bb0be64" y="173.34"/>
      </g>
     </g>
     <g id="line2d_32">
      <g>
       <use style="stroke:#000000;stroke-width:1.5;" x="296.2044" xlink:href="#m6936cb19ec" y="17.46"/>
      </g>
     </g>
    </g>
    <g id="xtick_17">
     <g id="line2d_33">
      <g>
       <use style="stroke:#000000;stroke-width:1.5;" x="316.048725" xlink:href="#m054bb0be64" y="173.34"/>
      </g>
     </g>
     <g id="line2d_34">
      <g>
       <use style="stroke:#000000;stroke-width:1.5;" x="316.048725" xlink:href="#m6936cb19ec" y="17.46"/>
      </g>
     </g>
    </g>
    <g id="xtick_18">
     <g id="line2d_35">
      <g>
       <use style="stroke:#000000;stroke-width:1.5;" x="335.89305" xlink:href="#m054bb0be64" y="173.34"/>
      </g>
     </g>
     <g id="line2d_36">
      <g>
       <use style="stroke:#000000;stroke-width:1.5;" x="335.89305" xlink:href="#m6936cb19ec" y="17.46"/>
      </g>
     </g>
    </g>
    <g id="xtick_19">
     <g id="line2d_37">
      <g>
       <use style="stroke:#000000;stroke-width:1.5;" x="375.5817" xlink:href="#m054bb0be64" y="173.34"/>
      </g>
     </g>
     <g id="line2d_38">
      <g>
       <use style="stroke:#000000;stroke-width:1.5;" x="375.5817" xlink:href="#m6936cb19ec" y="17.46"/>
      </g>
     </g>
    </g>
    <g id="xtick_20">
     <g id="line2d_39">
      <g>
       <use style="stroke:#000000;stroke-width:1.5;" x="395.426025" xlink:href="#m054bb0be64" y="173.34"/>
      </g>
     </g>
     <g id="line2d_40">
      <g>
       <use style="stroke:#000000;stroke-width:1.5;" x="395.426025" xlink:href="#m6936cb19ec" y="17.46"/>
      </g>
     </g>
    </g>
    <g id="xtick_21">
     <g id="line2d_41">
      <g>
       <use style="stroke:#000000;stroke-width:1.5;" x="415.27035" xlink:href="#m054bb0be64" y="173.34"/>
      </g>
     </g>
     <g id="line2d_42">
      <g>
       <use style="stroke:#000000;stroke-width:1.5;" x="415.27035" xlink:href="#m6936cb19ec" y="17.46"/>
      </g>
     </g>
    </g>
    <g id="xtick_22">
     <g id="line2d_43">
      <g>
       <use style="stroke:#000000;stroke-width:1.5;" x="435.114675" xlink:href="#m054bb0be64" y="173.34"/>
      </g>
     </g>
     <g id="line2d_44">
      <g>
       <use style="stroke:#000000;stroke-width:1.5;" x="435.114675" xlink:href="#m6936cb19ec" y="17.46"/>
      </g>
     </g>
    </g>
    <g id="xtick_23">
     <g id="line2d_45">
      <g>
       <use style="stroke:#000000;stroke-width:1.5;" x="474.803325" xlink:href="#m054bb0be64" y="173.34"/>
      </g>
     </g>
     <g id="line2d_46">
      <g>
       <use style="stroke:#000000;stroke-width:1.5;" x="474.803325" xlink:href="#m6936cb19ec" y="17.46"/>
      </g>
     </g>
    </g>
    <g id="xtick_24">
     <g id="line2d_47">
      <g>
       <use style="stroke:#000000;stroke-width:1.5;" x="494.64765" xlink:href="#m054bb0be64" y="173.34"/>
      </g>
     </g>
     <g id="line2d_48">
      <g>
       <use style="stroke:#000000;stroke-width:1.5;" x="494.64765" xlink:href="#m6936cb19ec" y="17.46"/>
      </g>
     </g>
    </g>
    <g id="xtick_25">
     <g id="line2d_49">
      <g>
       <use style="stroke:#000000;stroke-width:1.5;" x="514.491975" xlink:href="#m054bb0be64" y="173.34"/>
      </g>
     </g>
     <g id="line2d_50">
      <g>
       <use style="stroke:#000000;stroke-width:1.5;" x="514.491975" xlink:href="#m6936cb19ec" y="17.46"/>
      </g>
     </g>
    </g>
    <g id="xtick_26">
     <g id="line2d_51">
      <g>
       <use style="stroke:#000000;stroke-width:1.5;" x="534.3363" xlink:href="#m054bb0be64" y="173.34"/>
      </g>
     </g>
     <g id="line2d_52">
      <g>
       <use style="stroke:#000000;stroke-width:1.5;" x="534.3363" xlink:href="#m6936cb19ec" y="17.46"/>
      </g>
     </g>
    </g>
    <g id="text_7">
     <!-- Gray value -->
     <defs>
      <path d="
M2.98438 54.6875
L12.5 54.6875
L29.5938 8.79688
L46.6875 54.6875
L56.2031 54.6875
L35.6875 0
L23.4844 0
z
" id="BitstreamVeraSans-Roman-76"/>
      <path d="
M9.42188 75.9844
L18.4062 75.9844
L18.4062 0
L9.42188 0
z
" id="BitstreamVeraSans-Roman-6c"/>
      <path d="
M59.5156 10.4062
L59.5156 29.9844
L43.4062 29.9844
L43.4062 38.0938
L69.2812 38.0938
L69.2812 6.78125
Q63.5781 2.73438 56.6875 0.65625
Q49.8125 -1.42188 42 -1.42188
Q24.9062 -1.42188 15.25 8.5625
Q5.60938 18.5625 5.60938 36.375
Q5.60938 54.25 15.25 64.2344
Q24.9062 74.2188 42 74.2188
Q49.125 74.2188 55.5469 72.4531
Q61.9688 70.7031 67.3906 67.2812
L67.3906 56.7812
Q61.9219 61.4219 55.7656 63.7656
Q49.6094 66.1094 42.8281 66.1094
Q29.4375 66.1094 22.7188 58.6406
Q16.0156 51.1719 16.0156 36.375
Q16.0156 21.625 22.7188 14.1562
Q29.4375 6.6875 42.8281 6.6875
Q48.0469 6.6875 52.1406 7.59375
Q56.25 8.5 59.5156 10.4062" id="BitstreamVeraSans-Roman-47"/>
      <path d="
M8.5 21.5781
L8.5 54.6875
L17.4844 54.6875
L17.4844 21.9219
Q17.4844 14.1562 20.5 10.2656
Q23.5312 6.39062 29.5938 6.39062
Q36.8594 6.39062 41.0781 11.0312
Q45.3125 15.6719 45.3125 23.6875
L45.3125 54.6875
L54.2969 54.6875
L54.2969 0
L45.3125 0
L45.3125 8.40625
Q42.0469 3.42188 37.7188 1
Q33.4062 -1.42188 27.6875 -1.42188
Q18.2656 -1.42188 13.375 4.4375
Q8.5 10.2969 8.5 21.5781" id="BitstreamVeraSans-Roman-75"/>
      <path d="
M56.2031 29.5938
L56.2031 25.2031
L14.8906 25.2031
Q15.4844 15.9219 20.4844 11.0625
Q25.4844 6.20312 34.4219 6.20312
Q39.5938 6.20312 44.4531 7.46875
Q49.3125 8.73438 54.1094 11.2812
L54.1094 2.78125
Q49.2656 0.734375 44.1875 -0.34375
Q39.1094 -1.42188 33.8906 -1.42188
Q20.7969 -1.42188 13.1562 6.1875
Q5.51562 13.8125 5.51562 26.8125
Q5.51562 40.2344 12.7656 48.1094
Q20.0156 56 32.3281 56
Q43.3594 56 49.7812 48.8906
Q56.2031 41.7969 56.2031 29.5938
M47.2188 32.2344
Q47.125 39.5938 43.0938 43.9844
Q39.0625 48.3906 32.4219 48.3906
Q24.9062 48.3906 20.3906 44.1406
Q15.875 39.8906 15.1875 32.1719
z
" id="BitstreamVeraSans-Roman-65"/>
      <path d="
M32.1719 -5.07812
Q28.375 -14.8438 24.75 -17.8125
Q21.1406 -20.7969 15.0938 -20.7969
L7.90625 -20.7969
L7.90625 -13.2812
L13.1875 -13.2812
Q16.8906 -13.2812 18.9375 -11.5156
Q21 -9.76562 23.4844 -3.21875
L25.0938 0.875
L2.98438 54.6875
L12.5 54.6875
L29.5938 11.9219
L46.6875 54.6875
L56.2031 54.6875
z
" id="BitstreamVeraSans-Roman-79"/>
      <path d="
M34.2812 27.4844
Q23.3906 27.4844 19.1875 25
Q14.9844 22.5156 14.9844 16.5
Q14.9844 11.7188 18.1406 8.90625
Q21.2969 6.10938 26.7031 6.10938
Q34.1875 6.10938 38.7031 11.4062
Q43.2188 16.7031 43.2188 25.4844
L43.2188 27.4844
z

M52.2031 31.2031
L52.2031 0
L43.2188 0
L43.2188 8.29688
Q40.1406 3.32812 35.5469 0.953125
Q30.9531 -1.42188 24.3125 -1.42188
Q15.9219 -1.42188 10.9531 3.29688
Q6 8.01562 6 15.9219
Q6 25.1406 12.1719 29.8281
Q18.3594 34.5156 30.6094 34.5156
L43.2188 34.5156
L43.2188 35.4062
Q43.2188 41.6094 39.1406 45
Q35.0625 48.3906 27.6875 48.3906
Q23 48.3906 18.5469 47.2656
Q14.1094 46.1406 10.0156 43.8906
L10.0156 52.2031
Q14.9375 54.1094 19.5781 55.0469
Q24.2188 56 28.6094 56
Q40.4844 56 46.3438 49.8438
Q52.2031 43.7031 52.2031 31.2031" id="BitstreamVeraSans-Roman-61"/>
      <path d="
M41.1094 46.2969
Q39.5938 47.1719 37.8125 47.5781
Q36.0312 48 33.8906 48
Q26.2656 48 22.1875 43.0469
Q18.1094 38.0938 18.1094 28.8125
L18.1094 0
L9.07812 0
L9.07812 54.6875
L18.1094 54.6875
L18.1094 46.1875
Q20.9531 51.1719 25.4844 53.5781
Q30.0312 56 36.5312 56
Q37.4531 56 38.5781 55.875
Q39.7031 55.7656 41.0625 55.5156
z
" id="BitstreamVeraSans-Roman-72"/>
      <path id="BitstreamVeraSans-Roman-20"/>
     </defs>
     <g transform="translate(273.80625 201.13237875)scale(0.12 -0.12)">
      <use xlink:href="#BitstreamVeraSans-Roman-47"/>
      <use x="77.490234375" xlink:href="#BitstreamVeraSans-Roman-72"/>
      <use x="118.603515625" xlink:href="#BitstreamVeraSans-Roman-61"/>
      <use x="179.8828125" xlink:href="#BitstreamVeraSans-Roman-79"/>
      <use x="239.0625" xlink:href="#BitstreamVeraSans-Roman-20"/>
      <use x="270.849609375" xlink:href="#BitstreamVeraSans-Roman-76"/>
      <use x="330.029296875" xlink:href="#BitstreamVeraSans-Roman-61"/>
      <use x="391.30859375" xlink:href="#BitstreamVeraSans-Roman-6c"/>
      <use x="419.091796875" xlink:href="#BitstreamVeraSans-Roman-75"/>
      <use x="482.470703125" xlink:href="#BitstreamVeraSans-Roman-65"/>
     </g>
    </g>
   </g>
   <g id="matplotlib.axis_2">
    <g id="ytick_1">
     <g id="line2d_53">
      <defs>
       <path d="
M0 0
L5 0" id="m3788dfca68" style="stroke:#000000;stroke-width:1.5;"/>
      </defs>
      <g>
       <use style="stroke:#000000;stroke-width:1.5;" x="58.0725" xlink:href="#m3788dfca68" y="173.34"/>
      </g>
     </g>
     <g id="line2d_54">
      <defs>
       <path d="
M0 0
L-5 0" id="mbc1347decd" style="stroke:#000000;stroke-width:1.5;"/>
      </defs>
      <g>
       <use style="stroke:#000000;stroke-width:1.5;" x="554.180625" xlink:href="#mbc1347decd" y="173.34"/>
      </g>
     </g>
     <g id="text_8">
      <!-- 0 -->
      <g transform="translate(49.035453125 176.09827125)scale(0.09996 -0.09996)">
       <use xlink:href="#BitstreamVeraSans-Roman-30"/>
      </g>
     </g>
    </g>
    <g id="ytick_2">
     <g id="line2d_55">
      <g>
       <use style="stroke:#000000;stroke-width:1.5;" x="58.0725" xlink:href="#m3788dfca68" y="156.02"/>
      </g>
     </g>
     <g id="line2d_56">
      <g>
       <use style="stroke:#000000;stroke-width:1.5;" x="554.180625" xlink:href="#mbc1347decd" y="156.02"/>
      </g>
     </g>
     <g id="text_9">
      <!-- 1000 -->
      <g transform="translate(30.394475 158.77827125)scale(0.09996 -0.09996)">
       <use xlink:href="#BitstreamVeraSans-Roman-31"/>
       <use x="63.623046875" xlink:href="#BitstreamVeraSans-Roman-30"/>
       <use x="127.24609375" xlink:href="#BitstreamVeraSans-Roman-30"/>
       <use x="190.869140625" xlink:href="#BitstreamVeraSans-Roman-30"/>
      </g>
     </g>
    </g>
    <g id="ytick_3">
     <g id="line2d_57">
      <g>
       <use style="stroke:#000000;stroke-width:1.5;" x="58.0725" xlink:href="#m3788dfca68" y="138.7"/>
      </g>
     </g>
     <g id="line2d_58">
      <g>
       <use style="stroke:#000000;stroke-width:1.5;" x="554.180625" xlink:href="#mbc1347decd" y="138.7"/>
      </g>
     </g>
     <g id="text_10">
      <!-- 2000 -->
      <g transform="translate(30.02899625 141.45827125)scale(0.09996 -0.09996)">
       <use xlink:href="#BitstreamVeraSans-Roman-32"/>
       <use x="63.623046875" xlink:href="#BitstreamVeraSans-Roman-30"/>
       <use x="127.24609375" xlink:href="#BitstreamVeraSans-Roman-30"/>
       <use x="190.869140625" xlink:href="#BitstreamVeraSans-Roman-30"/>
      </g>
     </g>
    </g>
    <g id="ytick_4">
     <g id="line2d_59">
      <g>
       <use style="stroke:#000000;stroke-width:1.5;" x="58.0725" xlink:href="#m3788dfca68" y="121.38"/>
      </g>
     </g>
     <g id="line2d_60">
      <g>
       <use style="stroke:#000000;stroke-width:1.5;" x="554.180625" xlink:href="#mbc1347decd" y="121.38"/>
      </g>
     </g>
     <g id="text_11">
      <!-- 3000 -->
      <defs>
       <path d="
M40.5781 39.3125
Q47.6562 37.7969 51.625 33
Q55.6094 28.2188 55.6094 21.1875
Q55.6094 10.4062 48.1875 4.48438
Q40.7656 -1.42188 27.0938 -1.42188
Q22.5156 -1.42188 17.6562 -0.515625
Q12.7969 0.390625 7.625 2.20312
L7.625 11.7188
Q11.7188 9.32812 16.5938 8.10938
Q21.4844 6.89062 26.8125 6.89062
Q36.0781 6.89062 40.9375 10.5469
Q45.7969 14.2031 45.7969 21.1875
Q45.7969 27.6406 41.2812 31.2656
Q36.7656 34.9062 28.7188 34.9062
L20.2188 34.9062
L20.2188 43.0156
L29.1094 43.0156
Q36.375 43.0156 40.2344 45.9219
Q44.0938 48.8281 44.0938 54.2969
Q44.0938 59.9062 40.1094 62.9062
Q36.1406 65.9219 28.7188 65.9219
Q24.6562 65.9219 20.0156 65.0312
Q15.375 64.1562 9.8125 62.3125
L9.8125 71.0938
Q15.4375 72.6562 20.3438 73.4375
Q25.25 74.2188 29.5938 74.2188
Q40.8281 74.2188 47.3594 69.1094
Q53.9062 64.0156 53.9062 55.3281
Q53.9062 49.2656 50.4375 45.0938
Q46.9688 40.9219 40.5781 39.3125" id="BitstreamVeraSans-Roman-33"/>
      </defs>
      <g transform="translate(30.058671875 124.13827125)scale(0.09996 -0.09996)">
       <use xlink:href="#BitstreamVeraSans-Roman-33"/>
       <use x="63.623046875" xlink:href="#BitstreamVeraSans-Roman-30"/>
       <use x="127.24609375" xlink:href="#BitstreamVeraSans-Roman-30"/>
       <use x="190.869140625" xlink:href="#BitstreamVeraSans-Roman-30"/>
      </g>
     </g>
    </g>
    <g id="ytick_5">
     <g id="line2d_61">
      <g>
       <use style="stroke:#000000;stroke-width:1.5;" x="58.0725" xlink:href="#m3788dfca68" y="104.06"/>
      </g>
     </g>
     <g id="line2d_62">
      <g>
       <use style="stroke:#000000;stroke-width:1.5;" x="554.180625" xlink:href="#mbc1347decd" y="104.06"/>
      </g>
     </g>
     <g id="text_12">
      <!-- 4000 -->
      <defs>
       <path d="
M37.7969 64.3125
L12.8906 25.3906
L37.7969 25.3906
z

M35.2031 72.9062
L47.6094 72.9062
L47.6094 25.3906
L58.0156 25.3906
L58.0156 17.1875
L47.6094 17.1875
L47.6094 0
L37.7969 0
L37.7969 17.1875
L4.89062 17.1875
L4.89062 26.7031
z
" id="BitstreamVeraSans-Roman-34"/>
      </defs>
      <g transform="translate(29.78534375 106.81827125)scale(0.09996 -0.09996)">
       <use xlink:href="#BitstreamVeraSans-Roman-34"/>
       <use x="63.623046875" xlink:href="#BitstreamVeraSans-Roman-30"/>
       <use x="127.24609375" xlink:href="#BitstreamVeraSans-Roman-30"/>
       <use x="190.869140625" xlink:href="#BitstreamVeraSans-Roman-30"/>
      </g>
     </g>
    </g>
    <g id="ytick_6">
     <g id="line2d_63">
      <g>
       <use style="stroke:#000000;stroke-width:1.5;" x="58.0725" xlink:href="#m3788dfca68" y="86.74"/>
      </g>
     </g>
     <g id="line2d_64">
      <g>
       <use style="stroke:#000000;stroke-width:1.5;" x="554.180625" xlink:href="#mbc1347decd" y="86.74"/>
      </g>
     </g>
     <g id="text_13">
      <!-- 5000 -->
      <g transform="translate(30.068043125 89.49827125)scale(0.09996 -0.09996)">
       <use xlink:href="#BitstreamVeraSans-Roman-35"/>
       <use x="63.623046875" xlink:href="#BitstreamVeraSans-Roman-30"/>
       <use x="127.24609375" xlink:href="#BitstreamVeraSans-Roman-30"/>
       <use x="190.869140625" xlink:href="#BitstreamVeraSans-Roman-30"/>
      </g>
     </g>
    </g>
    <g id="ytick_7">
     <g id="line2d_65">
      <g>
       <use style="stroke:#000000;stroke-width:1.5;" x="58.0725" xlink:href="#m3788dfca68" y="69.42"/>
      </g>
     </g>
     <g id="line2d_66">
      <g>
       <use style="stroke:#000000;stroke-width:1.5;" x="554.180625" xlink:href="#mbc1347decd" y="69.42"/>
      </g>
     </g>
     <g id="text_14">
      <!-- 6000 -->
      <defs>
       <path d="
M33.0156 40.375
Q26.375 40.375 22.4844 35.8281
Q18.6094 31.2969 18.6094 23.3906
Q18.6094 15.5312 22.4844 10.9531
Q26.375 6.39062 33.0156 6.39062
Q39.6562 6.39062 43.5312 10.9531
Q47.4062 15.5312 47.4062 23.3906
Q47.4062 31.2969 43.5312 35.8281
Q39.6562 40.375 33.0156 40.375
M52.5938 71.2969
L52.5938 62.3125
Q48.875 64.0625 45.0938 64.9844
Q41.3125 65.9219 37.5938 65.9219
Q27.8281 65.9219 22.6719 59.3281
Q17.5312 52.7344 16.7969 39.4062
Q19.6719 43.6562 24.0156 45.9219
Q28.375 48.1875 33.5938 48.1875
Q44.5781 48.1875 50.9531 41.5156
Q57.3281 34.8594 57.3281 23.3906
Q57.3281 12.1562 50.6875 5.35938
Q44.0469 -1.42188 33.0156 -1.42188
Q20.3594 -1.42188 13.6719 8.26562
Q6.98438 17.9688 6.98438 36.375
Q6.98438 53.6562 15.1875 63.9375
Q23.3906 74.2188 37.2031 74.2188
Q40.9219 74.2188 44.7031 73.4844
Q48.4844 72.75 52.5938 71.2969" id="BitstreamVeraSans-Roman-36"/>
      </defs>
      <g transform="translate(29.994635 72.17827125)scale(0.09996 -0.09996)">
       <use xlink:href="#BitstreamVeraSans-Roman-36"/>
       <use x="63.623046875" xlink:href="#BitstreamVeraSans-Roman-30"/>
       <use x="127.24609375" xlink:href="#BitstreamVeraSans-Roman-30"/>
       <use x="190.869140625" xlink:href="#BitstreamVeraSans-Roman-30"/>
      </g>
     </g>
    </g>
    <g id="ytick_8">
     <g id="line2d_67">
      <g>
       <use style="stroke:#000000;stroke-width:1.5;" x="58.0725" xlink:href="#m3788dfca68" y="52.1"/>
      </g>
     </g>
     <g id="line2d_68">
      <g>
       <use style="stroke:#000000;stroke-width:1.5;" x="554.180625" xlink:href="#mbc1347decd" y="52.1"/>
      </g>
     </g>
     <g id="text_15">
      <!-- 7000 -->
      <defs>
       <path d="
M8.20312 72.9062
L55.0781 72.9062
L55.0781 68.7031
L28.6094 0
L18.3125 0
L43.2188 64.5938
L8.20312 64.5938
z
" id="BitstreamVeraSans-Roman-37"/>
      </defs>
      <g transform="translate(30.11646125 54.85827125)scale(0.09996 -0.09996)">
       <use xlink:href="#BitstreamVeraSans-Roman-37"/>
       <use x="63.623046875" xlink:href="#BitstreamVeraSans-Roman-30"/>
       <use x="127.24609375" xlink:href="#BitstreamVeraSans-Roman-30"/>
       <use x="190.869140625" xlink:href="#BitstreamVeraSans-Roman-30"/>
      </g>
     </g>
    </g>
    <g id="ytick_9">
     <g id="line2d_69">
      <g>
       <use style="stroke:#000000;stroke-width:1.5;" x="58.0725" xlink:href="#m3788dfca68" y="34.78"/>
      </g>
     </g>
     <g id="line2d_70">
      <g>
       <use style="stroke:#000000;stroke-width:1.5;" x="554.180625" xlink:href="#mbc1347decd" y="34.78"/>
      </g>
     </g>
     <g id="text_16">
      <!-- 8000 -->
      <defs>
       <path d="
M31.7812 34.625
Q24.75 34.625 20.7188 30.8594
Q16.7031 27.0938 16.7031 20.5156
Q16.7031 13.9219 20.7188 10.1562
Q24.75 6.39062 31.7812 6.39062
Q38.8125 6.39062 42.8594 10.1719
Q46.9219 13.9688 46.9219 20.5156
Q46.9219 27.0938 42.8906 30.8594
Q38.875 34.625 31.7812 34.625
M21.9219 38.8125
Q15.5781 40.375 12.0312 44.7188
Q8.5 49.0781 8.5 55.3281
Q8.5 64.0625 14.7188 69.1406
Q20.9531 74.2188 31.7812 74.2188
Q42.6719 74.2188 48.875 69.1406
Q55.0781 64.0625 55.0781 55.3281
Q55.0781 49.0781 51.5312 44.7188
Q48 40.375 41.7031 38.8125
Q48.8281 37.1562 52.7969 32.3125
Q56.7812 27.4844 56.7812 20.5156
Q56.7812 9.90625 50.3125 4.23438
Q43.8438 -1.42188 31.7812 -1.42188
Q19.7344 -1.42188 13.25 4.23438
Q6.78125 9.90625 6.78125 20.5156
Q6.78125 27.4844 10.7812 32.3125
Q14.7969 37.1562 21.9219 38.8125
M18.3125 54.3906
Q18.3125 48.7344 21.8438 45.5625
Q25.3906 42.3906 31.7812 42.3906
Q38.1406 42.3906 41.7188 45.5625
Q45.3125 48.7344 45.3125 54.3906
Q45.3125 60.0625 41.7188 63.2344
Q38.1406 66.4062 31.7812 66.4062
Q25.3906 66.4062 21.8438 63.2344
Q18.3125 60.0625 18.3125 54.3906" id="BitstreamVeraSans-Roman-38"/>
      </defs>
      <g transform="translate(29.974330625 37.53827125)scale(0.09996 -0.09996)">
       <use xlink:href="#BitstreamVeraSans-Roman-38"/>
       <use x="63.623046875" xlink:href="#BitstreamVeraSans-Roman-30"/>
       <use x="127.24609375" xlink:href="#BitstreamVeraSans-Roman-30"/>
       <use x="190.869140625" xlink:href="#BitstreamVeraSans-Roman-30"/>
      </g>
     </g>
    </g>
    <g id="ytick_10">
     <g id="line2d_71">
      <g>
       <use style="stroke:#000000;stroke-width:1.5;" x="58.0725" xlink:href="#m3788dfca68" y="17.46"/>
      </g>
     </g>
     <g id="line2d_72">
      <g>
       <use style="stroke:#000000;stroke-width:1.5;" x="554.180625" xlink:href="#mbc1347decd" y="17.46"/>
      </g>
     </g>
     <g id="text_17">
      <!-- 9000 -->
      <defs>
       <path d="
M10.9844 1.51562
L10.9844 10.5
Q14.7031 8.73438 18.5 7.8125
Q22.3125 6.89062 25.9844 6.89062
Q35.75 6.89062 40.8906 13.4531
Q46.0469 20.0156 46.7812 33.4062
Q43.9531 29.2031 39.5938 26.9531
Q35.25 24.7031 29.9844 24.7031
Q19.0469 24.7031 12.6719 31.3125
Q6.29688 37.9375 6.29688 49.4219
Q6.29688 60.6406 12.9375 67.4219
Q19.5781 74.2188 30.6094 74.2188
Q43.2656 74.2188 49.9219 64.5156
Q56.5938 54.8281 56.5938 36.375
Q56.5938 19.1406 48.4062 8.85938
Q40.2344 -1.42188 26.4219 -1.42188
Q22.7031 -1.42188 18.8906 -0.6875
Q15.0938 0.046875 10.9844 1.51562
M30.6094 32.4219
Q37.25 32.4219 41.125 36.9531
Q45.0156 41.5 45.0156 49.4219
Q45.0156 57.2812 41.125 61.8438
Q37.25 66.4062 30.6094 66.4062
Q23.9688 66.4062 20.0938 61.8438
Q16.2188 57.2812 16.2188 49.4219
Q16.2188 41.5 20.0938 36.9531
Q23.9688 32.4219 30.6094 32.4219" id="BitstreamVeraSans-Roman-39"/>
      </defs>
      <g transform="translate(29.9259125 20.21827125)scale(0.09996 -0.09996)">
       <use xlink:href="#BitstreamVeraSans-Roman-39"/>
       <use x="63.623046875" xlink:href="#BitstreamVeraSans-Roman-30"/>
       <use x="127.24609375" xlink:href="#BitstreamVeraSans-Roman-30"/>
       <use x="190.869140625" xlink:href="#BitstreamVeraSans-Roman-30"/>
      </g>
     </g>
    </g>
    <g id="text_18">
     <!-- Pixel count -->
     <defs>
      <path d="
M30.6094 48.3906
Q23.3906 48.3906 19.1875 42.75
Q14.9844 37.1094 14.9844 27.2969
Q14.9844 17.4844 19.1562 11.8438
Q23.3438 6.20312 30.6094 6.20312
Q37.7969 6.20312 41.9844 11.8594
Q46.1875 17.5312 46.1875 27.2969
Q46.1875 37.0156 41.9844 42.7031
Q37.7969 48.3906 30.6094 48.3906
M30.6094 56
Q42.3281 56 49.0156 48.375
Q55.7188 40.7656 55.7188 27.2969
Q55.7188 13.875 49.0156 6.21875
Q42.3281 -1.42188 30.6094 -1.42188
Q18.8438 -1.42188 12.1719 6.21875
Q5.51562 13.875 5.51562 27.2969
Q5.51562 40.7656 12.1719 48.375
Q18.8438 56 30.6094 56" id="BitstreamVeraSans-Roman-6f"/>
      <path d="
M48.7812 52.5938
L48.7812 44.1875
Q44.9688 46.2969 41.1406 47.3438
Q37.3125 48.3906 33.4062 48.3906
Q24.6562 48.3906 19.8125 42.8438
Q14.9844 37.3125 14.9844 27.2969
Q14.9844 17.2812 19.8125 11.7344
Q24.6562 6.20312 33.4062 6.20312
Q37.3125 6.20312 41.1406 7.25
Q44.9688 8.29688 48.7812 10.4062
L48.7812 2.09375
Q45.0156 0.34375 40.9844 -0.53125
Q36.9688 -1.42188 32.4219 -1.42188
Q20.0625 -1.42188 12.7812 6.34375
Q5.51562 14.1094 5.51562 27.2969
Q5.51562 40.6719 12.8594 48.3281
Q20.2188 56 33.0156 56
Q37.1562 56 41.1094 55.1406
Q45.0625 54.2969 48.7812 52.5938" id="BitstreamVeraSans-Roman-63"/>
      <path d="
M54.8906 54.6875
L35.1094 28.0781
L55.9062 0
L45.3125 0
L29.3906 21.4844
L13.4844 0
L2.875 0
L24.125 28.6094
L4.6875 54.6875
L15.2812 54.6875
L29.7812 35.2031
L44.2812 54.6875
z
" id="BitstreamVeraSans-Roman-78"/>
      <path d="
M54.8906 33.0156
L54.8906 0
L45.9062 0
L45.9062 32.7188
Q45.9062 40.4844 42.875 44.3281
Q39.8438 48.1875 33.7969 48.1875
Q26.5156 48.1875 22.3125 43.5469
Q18.1094 38.9219 18.1094 30.9062
L18.1094 0
L9.07812 0
L9.07812 54.6875
L18.1094 54.6875
L18.1094 46.1875
Q21.3438 51.125 25.7031 53.5625
Q30.0781 56 35.7969 56
Q45.2188 56 50.0469 50.1719
Q54.8906 44.3438 54.8906 33.0156" id="BitstreamVeraSans-Roman-6e"/>
      <path d="
M18.3125 70.2188
L18.3125 54.6875
L36.8125 54.6875
L36.8125 47.7031
L18.3125 47.7031
L18.3125 18.0156
Q18.3125 11.3281 20.1406 9.42188
Q21.9688 7.51562 27.5938 7.51562
L36.8125 7.51562
L36.8125 0
L27.5938 0
Q17.1875 0 13.2344 3.875
Q9.28125 7.76562 9.28125 18.0156
L9.28125 47.7031
L2.6875 47.7031
L2.6875 54.6875
L9.28125 54.6875
L9.28125 70.2188
z
" id="BitstreamVeraSans-Roman-74"/>
      <path d="
M9.42188 54.6875
L18.4062 54.6875
L18.4062 0
L9.42188 0
z

M9.42188 75.9844
L18.4062 75.9844
L18.4062 64.5938
L9.42188 64.5938
z
" id="BitstreamVeraSans-Roman-69"/>
      <path d="
M19.6719 64.7969
L19.6719 37.4062
L32.0781 37.4062
Q38.9688 37.4062 42.7188 40.9688
Q46.4844 44.5312 46.4844 51.125
Q46.4844 57.6719 42.7188 61.2344
Q38.9688 64.7969 32.0781 64.7969
z

M9.8125 72.9062
L32.0781 72.9062
Q44.3438 72.9062 50.6094 67.3594
Q56.8906 61.8125 56.8906 51.125
Q56.8906 40.3281 50.6094 34.8125
Q44.3438 29.2969 32.0781 29.2969
L19.6719 29.2969
L19.6719 0
L9.8125 0
z
" id="BitstreamVeraSans-Roman-50"/>
     </defs>
     <g transform="translate(22.28971875 127.963125)rotate(-90.0)scale(0.12 -0.12)">
      <use xlink:href="#BitstreamVeraSans-Roman-50"/>
      <use x="58.052734375" xlink:href="#BitstreamVeraSans-Roman-69"/>
      <use x="85.8359375" xlink:href="#BitstreamVeraSans-Roman-78"/>
      <use x="141.890625" xlink:href="#BitstreamVeraSans-Roman-65"/>
      <use x="203.4140625" xlink:href="#BitstreamVeraSans-Roman-6c"/>
      <use x="231.197265625" xlink:href="#BitstreamVeraSans-Roman-20"/>
      <use x="262.984375" xlink:href="#BitstreamVeraSans-Roman-63"/>
      <use x="317.96484375" xlink:href="#BitstreamVeraSans-Roman-6f"/>
      <use x="379.146484375" xlink:href="#BitstreamVeraSans-Roman-75"/>
      <use x="442.525390625" xlink:href="#BitstreamVeraSans-Roman-6e"/>
      <use x="505.904296875" xlink:href="#BitstreamVeraSans-Roman-74"/>
     </g>
    </g>
   </g>
  </g>
 </g>
 <defs>
  <clipPath id="pb7aa02d353">
   <rect height="155.88" width="496.108125" x="58.0725" y="17.46"/>
  </clipPath>
 </defs>
</svg>
