<?xml version="1.0" encoding="utf-8"?>
<svg xmlns="http://www.w3.org/2000/svg" version="1.1" fill="none" stroke-miterlimit="10.000000" stroke-width="0.566929" x="-100.213pt" height="181.768pt" viewBox="-100.213 -94.8586 221.447 181.768" width="221.447pt" y="-94.8586pt">
 <path stroke-width="1.603518" fill="none" d="M99.2126 -1.03306e-15L99.1626 2.72608L99.0129 5.44942L98.7634 8.16728L98.4144 10.8769L97.9664 13.5756L97.4197 16.2606L96.7749 18.9292L96.0327 21.5788L95.1938 24.2066L94.259 26.8101L93.2293 29.3866L92.1058 31.9335L90.8895 34.4482L89.5817 36.9282L88.1837 39.3711L86.6969 41.7743L85.1228 44.1355L83.4629 46.4522L81.7191 48.7221L79.893 50.943L77.9864 53.1126L76.0013 55.2287L73.9396 57.2892L71.8035 59.292L69.5951 61.2351L67.3167 63.1166L64.9704 64.9345L62.5588 66.687L60.0841 68.3724L57.549 69.9889L54.9558 71.5349L52.3074 73.0089L49.6063 74.4094L46.8552 75.735L44.057 76.9844L41.2144 78.1562L38.3303 79.2493L35.4076 80.2626L32.4493 81.1951L29.4582 82.0458L26.4376 82.8139L23.3903 83.4987L20.3194 84.0993L17.2281 84.6153L14.1194 85.0461L10.9965 85.3912L7.86259 85.6504L4.72073 85.8233L1.5741 85.9098L-1.5741 85.9098L-4.72073 85.8233L-7.86259 85.6504L-10.9965 85.3912L-14.1194 85.0461L-17.2281 84.6153L-20.3194 84.0993L-23.3903 83.4987L-26.4376 82.8139L-29.4582 82.0458L-32.4493 81.1951L-35.4076 80.2626L-38.3303 79.2493L-41.2144 78.1562L-44.057 76.9844L-46.8552 75.735L-49.6063 74.4094L-52.3074 73.0089L-54.9558 71.5349L-57.549 69.9889L-60.0841 68.3724L-62.5588 66.687L-64.9704 64.9345L-67.3167 63.1166L-69.5951 61.2351L-71.8035 59.292L-73.9396 57.2892L-76.0013 55.2287L-77.9864 53.1126L-79.893 50.943L-81.7191 48.7221L-83.4629 46.4522L-85.1228 44.1355L-86.6969 41.7743L-88.1837 39.3711L-89.5817 36.9282L-90.8895 34.4482L-92.1058 31.9335L-93.2293 29.3866L-94.259 26.8101L-95.1938 24.2066L-96.0327 21.5788L-96.7749 18.9292L-97.4197 16.2606L-97.9664 13.5756L-98.4144 10.8769L-98.7634 8.16728L-99.0129 5.44942L-99.1626 2.72608L-99.2126 1.15553e-14" stroke="#00bf28"/>
 <path stroke-width="1.603518" fill="#00bf28" d="M99.2126 -1.03306e-15L99.1626 2.72608L99.0129 5.44942L98.7634 8.16728L98.4144 10.8769L97.9664 13.5756L97.4197 16.2606L96.7749 18.9292L96.0327 21.5788L95.1938 24.2066L94.259 26.8101L93.2293 29.3866L92.1058 31.9335L90.8895 34.4482L89.5817 36.9282L88.1837 39.3711L86.6969 41.7743L85.1228 44.1355L83.4629 46.4522L81.7191 48.7221L79.893 50.943L77.9864 53.1126L76.0013 55.2287L73.9396 57.2892L71.8035 59.292L69.5951 61.2351L67.3167 63.1166L64.9704 64.9345L62.5588 66.687L60.0841 68.3724L57.549 69.9889L54.9558 71.5349L52.3074 73.0089L49.6063 74.4094L46.8552 75.735L44.057 76.9844L41.2144 78.1562L38.3303 79.2493L35.4076 80.2626L32.4493 81.1951L29.4582 82.0458L26.4376 82.8139L23.3903 83.4987L20.3194 84.0993L17.2281 84.6153L14.1194 85.0461L10.9965 85.3912L7.86259 85.6504L4.72073 85.8233L1.5741 85.9098L-1.5741 85.9098L-4.72073 85.8233L-7.86259 85.6504L-10.9965 85.3912L-14.1194 85.0461L-17.2281 84.6153L-20.3194 84.0993L-23.3903 83.4987L-26.4376 82.8139L-29.4582 82.0458L-32.4493 81.1951L-35.4076 80.2626L-38.3303 79.2493L-41.2144 78.1562L-44.057 76.9844L-46.8552 75.735L-49.6063 74.4094L-52.3074 73.0089L-54.9558 71.5349L-57.549 69.9889L-60.0841 68.3724L-62.5588 66.687L-64.9704 64.9345L-67.3167 63.1166L-69.5951 61.2351L-71.8035 59.292L-73.9396 57.2892L-76.0013 55.2287L-77.9864 53.1126L-79.893 50.943L-81.7191 48.7221L-83.4629 46.4522L-85.1228 44.1355L-86.6969 41.7743L-88.1837 39.3711L-89.5817 36.9282L-90.8895 34.4482L-92.1058 31.9335L-93.2293 29.3866L-94.259 26.8101L-95.1938 24.2066L-96.0327 21.5788L-96.7749 18.9292L-97.4197 16.2606L-97.9664 13.5756L-98.4144 10.8769L-98.7634 8.16728L-99.0129 5.44942L-99.1626 2.72608L-99.2126 1.15553e-14" opacity="0.150000" stroke="none"/>
 <path stroke-width="1.603518" fill="none" d="M99.2126 -0L99.1626 -1.57391L99.0129 -3.14623L98.7634 -4.71538L98.4144 -6.27978L97.9664 -7.83786L97.4197 -9.38805L96.7749 -10.9288L96.0327 -12.4585L95.1938 -13.9757L94.259 -15.4788L93.2293 -16.9664L92.1058 -18.4368L90.8895 -19.8887L89.5817 -21.3205L88.1837 -22.7309L86.6969 -24.1184L85.1228 -25.4816L83.4629 -26.8192L81.7191 -28.1297L79.893 -29.412L77.9864 -30.6646L76.0013 -31.8863L73.9396 -33.0759L71.8035 -34.2323L69.5951 -35.3541L67.3167 -36.4404L64.9704 -37.4899L62.5588 -38.5018L60.0841 -39.4748L57.549 -40.4081L54.9558 -41.3007L52.3074 -42.1517L49.6063 -42.9603L46.8552 -43.7256L44.057 -44.4469L41.2144 -45.1235L38.3303 -45.7546L35.4076 -46.3396L32.4493 -46.878L29.4582 -47.3692L26.4376 -47.8126L23.3903 -48.208L20.3194 -48.5548L17.2281 -48.8527L14.1194 -49.1014L10.9965 -49.3006L7.86259 -49.4503L4.72073 -49.5501L1.5741 -49.6001L-1.5741 -49.6001L-4.72073 -49.5501L-7.86259 -49.4503L-10.9965 -49.3006L-14.1194 -49.1014L-17.2281 -48.8527L-20.3194 -48.5548L-23.3903 -48.208L-26.4376 -47.8126L-29.4582 -47.3692L-32.4493 -46.878L-35.4076 -46.3396L-38.3303 -45.7546L-41.2144 -45.1235L-44.057 -44.4469L-46.8552 -43.7256L-49.6063 -42.9603L-52.3074 -42.1517L-54.9558 -41.3007L-57.549 -40.4081L-60.0841 -39.4748L-62.5588 -38.5018L-64.9704 -37.4899L-67.3167 -36.4404L-69.5951 -35.3541L-71.8035 -34.2323L-73.9396 -33.0759L-76.0013 -31.8863L-77.9864 -30.6646L-79.893 -29.412L-81.7191 -28.1297L-83.4629 -26.8192L-85.1228 -25.4816L-86.6969 -24.1184L-88.1837 -22.7309L-89.5817 -21.3205L-90.8895 -19.8887L-92.1058 -18.4368L-93.2293 -16.9664L-94.259 -15.4788L-95.1938 -13.9757L-96.0327 -12.4585L-96.7749 -10.9288L-97.4197 -9.38805L-97.9664 -7.83786L-98.4144 -6.27978L-98.7634 -4.71538L-99.0129 -3.14623L-99.1626 -1.57391L-99.2126 -3.14709e-15" stroke="#00bf28"/>
 <path stroke-width="1.603518" fill="#00bf28" d="M99.2126 -0L99.1626 -1.57391L99.0129 -3.14623L98.7634 -4.71538L98.4144 -6.27978L97.9664 -7.83786L97.4197 -9.38805L96.7749 -10.9288L96.0327 -12.4585L95.1938 -13.9757L94.259 -15.4788L93.2293 -16.9664L92.1058 -18.4368L90.8895 -19.8887L89.5817 -21.3205L88.1837 -22.7309L86.6969 -24.1184L85.1228 -25.4816L83.4629 -26.8192L81.7191 -28.1297L79.893 -29.412L77.9864 -30.6646L76.0013 -31.8863L73.9396 -33.0759L71.8035 -34.2323L69.5951 -35.3541L67.3167 -36.4404L64.9704 -37.4899L62.5588 -38.5018L60.0841 -39.4748L57.549 -40.4081L54.9558 -41.3007L52.3074 -42.1517L49.6063 -42.9603L46.8552 -43.7256L44.057 -44.4469L41.2144 -45.1235L38.3303 -45.7546L35.4076 -46.3396L32.4493 -46.878L29.4582 -47.3692L26.4376 -47.8126L23.3903 -48.208L20.3194 -48.5548L17.2281 -48.8527L14.1194 -49.1014L10.9965 -49.3006L7.86259 -49.4503L4.72073 -49.5501L1.5741 -49.6001L-1.5741 -49.6001L-4.72073 -49.5501L-7.86259 -49.4503L-10.9965 -49.3006L-14.1194 -49.1014L-17.2281 -48.8527L-20.3194 -48.5548L-23.3903 -48.208L-26.4376 -47.8126L-29.4582 -47.3692L-32.4493 -46.878L-35.4076 -46.3396L-38.3303 -45.7546L-41.2144 -45.1235L-44.057 -44.4469L-46.8552 -43.7256L-49.6063 -42.9603L-52.3074 -42.1517L-54.9558 -41.3007L-57.549 -40.4081L-60.0841 -39.4748L-62.5588 -38.5018L-64.9704 -37.4899L-67.3167 -36.4404L-69.5951 -35.3541L-71.8035 -34.2323L-73.9396 -33.0759L-76.0013 -31.8863L-77.9864 -30.6646L-79.893 -29.412L-81.7191 -28.1297L-83.4629 -26.8192L-85.1228 -25.4816L-86.6969 -24.1184L-88.1837 -22.7309L-89.5817 -21.3205L-90.8895 -19.8887L-92.1058 -18.4368L-93.2293 -16.9664L-94.259 -15.4788L-95.1938 -13.9757L-96.0327 -12.4585L-96.7749 -10.9288L-97.4197 -9.38805L-97.9664 -7.83786L-98.4144 -6.27978L-98.7634 -4.71538L-99.0129 -3.14623L-99.1626 -1.57391L-99.2126 -3.14709e-15" opacity="0.150000" stroke="none"/>
 <path stroke-width="1.603518" fill="none" d="M-50.1099 25.055L-46.8309 26.5936L-43.3632 28.0252L-39.721 29.3439L-35.9188 30.5444L-31.972 31.622L-27.8965 32.5722L-23.7086 33.3913L-19.4252 34.0759L-15.0637 34.6233L-10.6415 35.0313L-6.17639 35.2982L-1.68645 35.423L2.81028 35.4052L7.29569 35.2448L11.7517 34.9425L16.1605 34.4995L20.5041 33.9175L24.7652 33.199L28.9265 32.3468L32.9714 31.3644L36.8835 30.2556L40.6471 29.0251L44.2471 27.6776L47.6688 26.2187L50.8987 24.6543L53.9235 22.9906L56.7313 21.2342L59.3106 19.3924L61.651 17.4725L63.7433 15.4823L65.5788 13.4297L67.1503 11.323L68.4514 9.17075L69.4769 6.98156L70.2226 4.76426L70.6856 2.52777L70.8639 0.281099L70.7569 -1.9667L70.365 -4.20658L69.6897 -6.42952L68.7338 -8.62658L67.5012 -10.7889L65.9967 -12.9078L64.2265 -14.9747L62.1977 -16.9813L59.9185 -18.9195L57.3979 -20.7815L54.6463 -22.5599L51.6746 -24.2474L48.4948 -25.8373L45.1198 -27.3231L41.5631 -28.699L37.839 -29.9592L33.9625 -31.0989L29.9493 -32.1133L25.8155 -32.9984L21.5778 -33.7506L17.2532 -34.3669L12.859 -34.8449L8.41316 -35.1825L3.9334 -35.3784L-0.562198 -35.432L-5.05553 -35.3428L-9.52851 -35.1113L-13.9631 -34.7385L-18.3415 -34.2257L-22.646 -33.5752L-26.8594 -32.7894L-30.9646 -31.8716L-34.9451 -30.8255L-38.7849 -29.6553L-42.4685 -28.3656L-45.9811 -26.9618L-49.3086 -25.4493L-52.4375 -23.8344L-55.3553 -22.1235L-58.0501 -20.3236L-60.5113 -18.4418L-62.7287 -16.4857L-64.6936 -14.4633L-66.398 -12.3826L-67.835 -10.252L-68.9989 -8.08023L-69.885 -5.87587L-70.4896 -3.64785L-70.8104 -1.40514L-70.8461 0.843226L-70.5965 3.0882L-70.0626 5.32073L-69.2466 7.53184L-68.1518 9.71262L-66.7826 11.8543L-65.1444 13.9482L-63.244 15.986L-61.0888 17.9594L-58.6877 19.8605L-56.0503 21.6816L-53.1872 23.4154L-50.1099 25.055Z" stroke="#00bf28"/>
 <path stroke-width="1.603518" fill="#00bf28" d="M-50.1099 25.055L-46.8309 26.5936L-43.3632 28.0252L-39.721 29.3439L-35.9188 30.5444L-31.972 31.622L-27.8965 32.5722L-23.7086 33.3913L-19.4252 34.0759L-15.0637 34.6233L-10.6415 35.0313L-6.17639 35.2982L-1.68645 35.423L2.81028 35.4052L7.29569 35.2448L11.7517 34.9425L16.1605 34.4995L20.5041 33.9175L24.7652 33.199L28.9265 32.3468L32.9714 31.3644L36.8835 30.2556L40.6471 29.0251L44.2471 27.6776L47.6688 26.2187L50.8987 24.6543L53.9235 22.9906L56.7313 21.2342L59.3106 19.3924L61.651 17.4725L63.7433 15.4823L65.5788 13.4297L67.1503 11.323L68.4514 9.17075L69.4769 6.98156L70.2226 4.76426L70.6856 2.52777L70.8639 0.281099L70.7569 -1.9667L70.365 -4.20658L69.6897 -6.42952L68.7338 -8.62658L67.5012 -10.7889L65.9967 -12.9078L64.2265 -14.9747L62.1977 -16.9813L59.9185 -18.9195L57.3979 -20.7815L54.6463 -22.5599L51.6746 -24.2474L48.4948 -25.8373L45.1198 -27.3231L41.5631 -28.699L37.839 -29.9592L33.9625 -31.0989L29.9493 -32.1133L25.8155 -32.9984L21.5778 -33.7506L17.2532 -34.3669L12.859 -34.8449L8.41316 -35.1825L3.9334 -35.3784L-0.562198 -35.432L-5.05553 -35.3428L-9.52851 -35.1113L-13.9631 -34.7385L-18.3415 -34.2257L-22.646 -33.5752L-26.8594 -32.7894L-30.9646 -31.8716L-34.9451 -30.8255L-38.7849 -29.6553L-42.4685 -28.3656L-45.9811 -26.9618L-49.3086 -25.4493L-52.4375 -23.8344L-55.3553 -22.1235L-58.0501 -20.3236L-60.5113 -18.4418L-62.7287 -16.4857L-64.6936 -14.4633L-66.398 -12.3826L-67.835 -10.252L-68.9989 -8.08023L-69.885 -5.87587L-70.4896 -3.64785L-70.8104 -1.40514L-70.8461 0.843226L-70.5965 3.0882L-70.0626 5.32073L-69.2466 7.53184L-68.1518 9.71262L-66.7826 11.8543L-65.1444 13.9482L-63.244 15.986L-61.0888 17.9594L-58.6877 19.8605L-56.0503 21.6816L-53.1872 23.4154L-50.1099 25.055Z" opacity="0.150000" stroke="none"/>
 <path stroke-width="1.603518" fill="none" d="M-70.1539 35.077L-65.5632 37.231L-60.7085 39.2352L-55.6094 41.0814L-50.2864 42.7622L-44.7608 44.2708L-39.0551 45.6011L-33.192 46.7478L-27.1953 47.7063L-21.0892 48.4726L-14.898 49.0438L-8.64695 49.4175L-2.36103 49.5923L3.93439 49.5673L10.214 49.3427L16.4524 48.9195L22.6246 48.2992L28.7057 47.4845L34.6712 46.4786L40.4972 45.2855L46.16 43.9101L51.637 42.3579L56.906 40.6351L61.9459 38.7487L66.7364 36.7062L71.2581 34.516L75.4929 32.1868L79.4238 29.7279L83.0348 27.1494L86.3115 24.4616L89.2406 21.6752L91.8104 18.8016L94.0105 15.8522L95.832 12.8391L97.2677 9.77418L98.3117 6.66996L98.9598 3.53887L99.2095 0.393538L99.0597 -2.75338L98.511 -5.88921L97.5656 -9.00133L96.2274 -12.0772L94.5017 -15.1044L92.3954 -18.0709L89.9172 -20.9645L87.0768 -23.7738L83.8858 -26.4873L80.3571 -29.0941L76.5048 -31.5838L72.3444 -33.9464L67.8927 -36.1722L63.1677 -38.2524L58.1883 -40.1786L52.9746 -41.9429L47.5475 -43.5384L41.9291 -44.9586L36.1417 -46.1977L30.2089 -47.2508L24.1544 -48.1137L18.0027 -48.7828L11.7784 -49.2555L5.50676 -49.5298L-0.787077 -49.6047L-7.07775 -49.4799L-13.3399 -49.1558L-19.5484 -48.6338L-25.6781 -47.916L-31.7045 -47.0052L-37.6031 -45.9052L-43.3504 -44.6203L-48.9231 -43.1557L-54.2988 -41.5174L-59.4559 -39.7119L-64.3736 -37.7465L-69.032 -35.6291L-73.4125 -33.3682L-77.4974 -30.973L-81.2702 -28.453L-84.7158 -25.8185L-87.8202 -23.08L-90.5711 -20.2486L-92.9572 -17.3356L-94.9691 -14.3529L-96.5985 -11.3123L-97.8389 -8.22621L-98.6854 -5.10699L-99.1346 -1.9672L-99.1845 1.18052L-98.8351 4.32347L-98.0877 7.44902L-96.9453 10.5446L-95.4125 13.5977L-93.4956 16.596L-91.2022 19.5275L-88.5416 22.3804L-85.5244 25.1432L-82.1628 27.8047L-78.4705 30.3543L-74.4621 32.7816L-70.1539 35.077Z" stroke="#00bf28"/>
 <path stroke-width="1.603518" fill="#00bf28" d="M-70.1539 35.077L-65.5632 37.231L-60.7085 39.2352L-55.6094 41.0814L-50.2864 42.7622L-44.7608 44.2708L-39.0551 45.6011L-33.192 46.7478L-27.1953 47.7063L-21.0892 48.4726L-14.898 49.0438L-8.64695 49.4175L-2.36103 49.5923L3.93439 49.5673L10.214 49.3427L16.4524 48.9195L22.6246 48.2992L28.7057 47.4845L34.6712 46.4786L40.4972 45.2855L46.16 43.9101L51.637 42.3579L56.906 40.6351L61.9459 38.7487L66.7364 36.7062L71.2581 34.516L75.4929 32.1868L79.4238 29.7279L83.0348 27.1494L86.3115 24.4616L89.2406 21.6752L91.8104 18.8016L94.0105 15.8522L95.832 12.8391L97.2677 9.77418L98.3117 6.66996L98.9598 3.53887L99.2095 0.393538L99.0597 -2.75338L98.511 -5.88921L97.5656 -9.00133L96.2274 -12.0772L94.5017 -15.1044L92.3954 -18.0709L89.9172 -20.9645L87.0768 -23.7738L83.8858 -26.4873L80.3571 -29.0941L76.5048 -31.5838L72.3444 -33.9464L67.8927 -36.1722L63.1677 -38.2524L58.1883 -40.1786L52.9746 -41.9429L47.5475 -43.5384L41.9291 -44.9586L36.1417 -46.1977L30.2089 -47.2508L24.1544 -48.1137L18.0027 -48.7828L11.7784 -49.2555L5.50676 -49.5298L-0.787077 -49.6047L-7.07775 -49.4799L-13.3399 -49.1558L-19.5484 -48.6338L-25.6781 -47.916L-31.7045 -47.0052L-37.6031 -45.9052L-43.3504 -44.6203L-48.9231 -43.1557L-54.2988 -41.5174L-59.4559 -39.7119L-64.3736 -37.7465L-69.032 -35.6291L-73.4125 -33.3682L-77.4974 -30.973L-81.2702 -28.453L-84.7158 -25.8185L-87.8202 -23.08L-90.5711 -20.2486L-92.9572 -17.3356L-94.9691 -14.3529L-96.5985 -11.3123L-97.8389 -8.22621L-98.6854 -5.10699L-99.1346 -1.9672L-99.1845 1.18052L-98.8351 4.32347L-98.0877 7.44902L-96.9453 10.5446L-95.4125 13.5977L-93.4956 16.596L-91.2022 19.5275L-88.5416 22.3804L-85.5244 25.1432L-82.1628 27.8047L-78.4705 30.3543L-74.4621 32.7816L-70.1539 35.077Z" opacity="0.150000" stroke="none"/>
 <path stroke-width="1.603518" d="M-60.1319 30.066L-56.197 31.9123L-52.0359 33.6302L-47.6652 35.2126L-43.1026 36.6533L-38.3664 37.9464L-33.4758 39.0867L-28.4503 40.0695L-23.3103 40.8911L-18.0764 41.548L-12.7698 42.0376L-7.41167 42.3579L-2.02374 42.5076L3.37234 42.4862L8.75483 42.2938L14.1021 41.931L19.3925 41.3993L24.6049 40.701L29.7182 39.8388L34.7118 38.8162L39.5657 37.6372L44.2603 36.3068L48.7766 34.8301L53.0965 33.2132L57.2026 31.4625L61.0784 29.5851L64.7082 27.5887L68.0775 25.4811L71.1727 23.2709L73.9813 20.967L76.4919 18.5787L78.6946 16.1156L80.5804 13.5876L82.1417 11.0049L83.3723 8.37787L84.2672 5.71711L84.8227 3.03332L85.0367 0.337319L84.9083 -2.36004L84.438 -5.0479L83.6276 -7.71543L82.4806 -10.3519L81.0014 -12.9467L79.1961 -15.4893L77.0718 -17.9696L74.6373 -20.3775L71.9022 -22.7034L68.8775 -24.9378L65.5755 -27.0719L62.0095 -29.0969L58.1938 -31.0048L54.1437 -32.7878L49.8757 -34.4388L45.4068 -35.9511L40.755 -37.3186L35.9392 -38.5359L30.9786 -39.598L25.8933 -40.5007L20.7038 -41.2403L15.4309 -41.8138L10.0958 -42.219L4.72008 -42.4541L-0.674637 -42.5183L-6.06664 -42.4113L-11.4342 -42.1336L-16.7557 -41.6861L-22.0098 -41.0709L-27.1752 -40.2902L-32.2313 -39.3473L-37.1575 -38.246L-41.9341 -36.9906L-46.5418 -35.5863L-50.9622 -34.0388L-55.1773 -32.3541L-59.1703 -30.5392L-62.925 -28.6013L-66.4263 -26.5482L-69.6602 -24.3883L-72.6135 -22.1301L-75.2745 -19.7829L-77.6324 -17.3559L-79.6776 -14.8591L-81.402 -12.3025L-82.7987 -9.69627L-83.8619 -7.05104L-84.5875 -4.37742L-84.9725 -1.68617L-85.0153 1.01187L-84.7158 3.70583L-84.0751 6.38488L-83.096 9.03821L-81.7822 11.6551L-80.1391 14.2252L-78.1733 16.7379L-75.8928 19.1832L-73.3066 21.5513L-70.4253 23.8326L-67.2604 26.0179L-63.8247 28.0985L-60.1319 30.066Z" stroke="#00f"/>
 <path stroke-width="1.133858" d="M22.0098 41.0709L22.0098 17.9621" stroke="#ff6321"/>
 <g stroke-linecap="butt" stroke-dasharray="none">
  <path fill="#ff6321" d="M19.2979 19.2716L22.0098 12.7244L24.7217 19.2716L22.0098 17.9621Z"/>
 </g>
 <g transform="matrix(1.400000,-0.000000,-0.000000,1.400000,22.009809,12.724405)">
  <g transform="matrix(1.000000,0.000000,0.000000,1.000000,0.000000,-0.000000)">
   <path fill="#ff6321" d="M-3.32251 -0M-0.764104 -5.18854C-0.764104 -5.41569 -0.991252 -5.40374 -1.14667 -5.39178L-2.64107 -5.32005C-2.82039 -5.30809 -3.03559 -5.29614 -3.03559 -4.96139C-3.03559 -4.7462 -2.82039 -4.7462 -2.7128 -4.7462C-2.56933 -4.7462 -2.35414 -4.73425 -2.21068 -4.72229L-3.32251 -0.215193C-3.32251 -0.0478207 -3.17905 -0 -3.04754 -0L-2.7128 -0C-1.43359 -0.203238 0.168399 -0.800996 1.49542 -1.91283C3.08546 -3.25181 3.34847 -4.7462 3.34847 -4.87771C3.34847 -5.14072 3.15719 -5.40374 2.78658 -5.40374C2.61921 -5.40374 2.16491 -5.32005 1.99754 -4.77011C1.72257 -3.78979 1.25632 -2.92902 0.539009 -2.19975C0.156444 -1.82914 -0.680418 -1.0401 -1.88789 -0.645579ZM-1.88789 -0.645579"/>
  </g>
 </g>
 <path stroke-width="0.566929" d="M0 -0L-90.1979 45.0989" stroke="#000"/>
 <path stroke-width="0.566929" d="M0 -0L33.0147 61.6063" stroke="#000"/>
 <path stroke-width="0.566929" d="M-84.1847 42.0923L-79.4193 44.3472L-74.4127 46.4674L-69.1802 48.4464L-63.7375 50.2784L-58.1013 51.9576L-52.2886 53.479L-46.3171 54.838L-40.205 56.0305L-33.9707 57.0528L-27.6333 57.9019L-21.212 58.5751L-14.7262 59.0704L-8.19576 59.3863L-1.6404 59.5219L4.91995 59.4767L11.4654 59.2509L17.9759 58.8451L24.4319 58.2606L25.6129 58.1197" stroke="#000"/>
 <g stroke-linecap="butt" stroke-dasharray="none">
  <path fill="#000" d="M23.9967 55.564L24.6263 55.7605L30.8137 57.4992L25.2091 60.6449L24.625 60.9512L25.6129 58.1197Z"/>
 </g>
 <g transform="matrix(1.400000,-0.000000,-0.000000,1.400000,-30.813732,57.499207)">
  <g transform="matrix(1.000000,0.000000,0.000000,1.000000,0.000000,-0.000000)">
   <path fill="#000" d="M-3.00074 7.49588M2.9888 4.01692C2.9888 3.1442 2.35518 2.40298 1.15966 2.24756L1.86502 -0.0358786L0.872739 0.119539L0.334757 2.25951C-1.5422 2.4508 -3.00074 4.00497 -3.00074 5.77433C-3.00074 6.65902 -2.52253 7.5437 -0.992267 7.62738L-1.55416 9.9706L-1.25528 9.9706L-0.51406 7.61543C1.44659 7.46001 2.9888 5.78629 2.9888 4.01692ZM2.9888 4.01692M2.03239 3.92128C2.03239 5.95366 0.765143 7.18504 -0.406464 7.29264L1.04011 2.61817C1.86502 2.91705 2.03239 3.6224 2.03239 3.92128ZM2.03239 3.92128M0.251071 2.5823L-0.908581 7.26873C-1.70958 7.04158 -1.9965 6.31232 -1.9965 5.8102C-1.9965 3.9691 -0.992267 2.74968 0.251071 2.5823ZM0.251071 2.5823"/>
  </g>
 </g>
 <path stroke-width="0.566929" d="M0 -0L90.6407 12.1435" stroke="#000"/>
 <g stroke-linecap="butt" stroke-dasharray="none">
  <path fill="#000" d="M89.7029 9.28175L95.832 12.8391L88.9827 14.6576L90.6407 12.1435Z"/>
 </g>
 <g transform="matrix(1.400000,-0.000000,-0.000000,1.400000,95.832011,12.839055)">
  <g transform="matrix(1.000000,0.000000,0.000000,1.000000,0.000000,-0.000000)">
   <path fill="#000" d="M-0.155417 2.96787M6.77858 2.77659C6.25255 2.74073 6.01345 2.53749 5.7863 1.91582L4.67447 -1.0132C5.59502 -1.21643 5.98954 -1.38381 6.41993 -1.76637C6.81445 -2.11307 7.02964 -2.57932 7.02964 -3.11731C7.02964 -4.22914 6.14496 -4.83885 4.54296 -4.83885L1.57808 -4.83885L1.57808 -4.64757C2.0802 -4.57584 2.13998 -4.56388 2.25953 -4.4802C2.35517 -4.42042 2.4269 -4.27696 2.4269 -4.14545C2.4269 -4.00199 2.36712 -3.71506 2.28344 -3.39228L0.812951 1.89191C0.597758 2.59726 0.514072 2.669 -0.155417 2.77659L-0.155417 2.96787L2.76164 2.96787L2.76164 2.77659C2.03238 2.68095 1.94869 2.62117 1.94869 2.22665C1.94869 2.1071 1.98456 1.95169 2.09215 1.53325L2.76164 -0.965376L3.53873 -0.9056L5.00922 2.96787L6.77858 2.96787ZM6.77858 2.96787M3.68219 -4.14545C3.75392 -4.39651 3.90934 -4.4802 4.29191 -4.4802C5.28418 -4.4802 5.77435 -4.0259 5.77435 -3.14122C5.77435 -1.95765 5.00922 -1.34794 3.51482 -1.34794C3.32354 -1.34794 3.19203 -1.3599 2.90511 -1.40772ZM2.90511 -1.40772"/>
   <path fill="#000" d="M7.50386 4.76114M10.5564 3.45404C10.1738 4.05977 9.83113 4.2909 9.32105 4.2909C8.86675 4.2909 8.52404 4.05977 8.2929 3.60547C8.14944 3.30261 8.09365 3.03959 8.07771 2.55342L10.5325 2.55342C10.4687 2.03536 10.389 1.80423 10.1898 1.54918C9.95069 1.26226 9.58406 1.09489 9.16961 1.09489C8.77111 1.09489 8.39651 1.23835 8.09365 1.50933C7.71905 1.83611 7.50386 2.40198 7.50386 3.05553C7.50386 4.15541 8.07771 4.84084 8.99427 4.84084C9.75143 4.84084 10.3492 4.3706 10.6839 3.50983ZM10.6839 3.50983M8.09365 2.29837C8.18132 1.6767 8.4523 1.38181 8.93848 1.38181C9.42466 1.38181 9.61594 1.60497 9.71955 2.29837ZM9.71955 2.29837"/>
   <path fill="#000" d="M10.8593 4.76114M12.9395 4.76114L14.5415 4.76114L14.5415 4.64159C14.2944 4.64159 14.135 4.51406 13.8879 4.16338L12.8677 2.60124L13.5293 1.64482C13.6807 1.42963 13.9198 1.30211 14.1748 1.29414L14.1748 1.17459L12.9156 1.17459L12.9156 1.29414C13.1547 1.31008 13.2344 1.3579 13.2344 1.46948C13.2344 1.56512 13.1387 1.74046 12.9395 1.98754C12.8996 2.03536 12.804 2.17882 12.7004 2.33822L12.5888 2.17882C12.3656 1.84408 12.2222 1.57309 12.2222 1.46948C12.2222 1.3579 12.3258 1.30211 12.5649 1.29414L12.5649 1.17459L10.9151 1.17459L10.9151 1.29414L10.9868 1.29414C11.2259 1.29414 11.3534 1.39775 11.6005 1.77235L12.3497 2.92004L11.4411 4.23511C11.202 4.56188 11.1223 4.61768 10.8593 4.64159L10.8593 4.76114L12.0149 4.76114L12.0149 4.64159C11.7918 4.64159 11.6961 4.60174 11.6961 4.49812C11.6961 4.4503 11.7519 4.33075 11.8555 4.17135L12.4852 3.19103L13.2105 4.30684C13.2423 4.35466 13.2583 4.40248 13.2583 4.4503C13.2583 4.59377 13.2025 4.62565 12.9395 4.64159ZM12.9395 4.64159"/>
   <path fill="#000" d="M14.8124 4.76114M16.7412 1.17459L15.9362 1.17459L15.9362 0.250054C15.9362 0.170353 15.9283 0.146443 15.8804 0.146443C15.8246 0.218174 15.7768 0.289905 15.721 0.369606C15.4182 0.807962 15.0755 1.19053 14.9479 1.22241C14.8603 1.2782 14.8124 1.33399 14.8124 1.37384C14.8124 1.39775 14.8204 1.41369 14.8443 1.42963L15.2667 1.42963L15.2667 3.82863C15.2667 4.49812 15.5058 4.84084 15.9761 4.84084C16.3666 4.84084 16.6695 4.64956 16.9325 4.23511L16.8289 4.14744C16.6615 4.34669 16.526 4.42639 16.3507 4.42639C16.0558 4.42639 15.9362 4.2112 15.9362 3.70908L15.9362 1.42963L16.7412 1.42963ZM16.7412 1.42963"/>
  </g>
 </g>
 <path stroke-width="0.566929" d="M0 -0L63.2601 -8.47524" stroke="#000"/>
 <g stroke-linecap="butt" stroke-dasharray="none">
  <path fill="#000" d="M61.6021 -10.9893L68.4514 -9.17075L62.3223 -5.61345L63.2601 -8.47524Z"/>
 </g>
 <g transform="matrix(1.400000,-0.000000,-0.000000,1.400000,68.451437,-9.170754)">
  <g transform="matrix(1.000000,0.000000,0.000000,1.000000,0.000000,-0.000000)">
   <path fill="#000" d="M-0.155417 2.96787M6.77858 2.77659C6.25255 2.74073 6.01345 2.53749 5.7863 1.91582L4.67447 -1.0132C5.59502 -1.21643 5.98954 -1.38381 6.41993 -1.76637C6.81445 -2.11307 7.02964 -2.57932 7.02964 -3.11731C7.02964 -4.22914 6.14496 -4.83885 4.54296 -4.83885L1.57808 -4.83885L1.57808 -4.64757C2.0802 -4.57584 2.13998 -4.56388 2.25953 -4.4802C2.35517 -4.42042 2.4269 -4.27696 2.4269 -4.14545C2.4269 -4.00199 2.36712 -3.71506 2.28344 -3.39228L0.812951 1.89191C0.597758 2.59726 0.514072 2.669 -0.155417 2.77659L-0.155417 2.96787L2.76164 2.96787L2.76164 2.77659C2.03238 2.68095 1.94869 2.62117 1.94869 2.22665C1.94869 2.1071 1.98456 1.95169 2.09215 1.53325L2.76164 -0.965376L3.53873 -0.9056L5.00922 2.96787L6.77858 2.96787ZM6.77858 2.96787M3.68219 -4.14545C3.75392 -4.39651 3.90934 -4.4802 4.29191 -4.4802C5.28418 -4.4802 5.77435 -4.0259 5.77435 -3.14122C5.77435 -1.95765 5.00922 -1.34794 3.51482 -1.34794C3.32354 -1.34794 3.19203 -1.3599 2.90511 -1.40772ZM2.90511 -1.40772"/>
   <path fill="#000" d="M7.43213 4.76114M8.69938 1.09489L7.46401 1.53324L7.46401 1.65279L7.52777 1.64482C7.62341 1.62888 7.72702 1.62091 7.79876 1.62091C7.99004 1.62091 8.06177 1.74844 8.06177 2.09912L8.06177 3.94819C8.06177 4.52203 7.98207 4.60971 7.43213 4.64159L7.43213 4.76114L9.32105 4.76114L9.32105 4.64159C8.79502 4.60174 8.73126 4.52203 8.73126 3.94819L8.73126 1.1188ZM8.73126 1.1188M8.32478 -0.682449C8.10959 -0.682449 7.92628 -0.499137 7.92628 -0.275973C7.92628 -0.0528103 8.10162 0.130502 8.32478 0.130502C8.55592 0.130502 8.73923 -0.0448402 8.73923 -0.275973C8.73923 -0.499137 8.55592 -0.682449 8.32478 -0.682449ZM8.32478 -0.682449"/>
   <path fill="#000" d="M9.64782 4.76114M9.64782 1.58903C9.69564 1.56512 9.77534 1.55715 9.86301 1.55715C10.0862 1.55715 10.1579 1.6767 10.1579 2.06724L10.1579 4.04383C10.1579 4.49812 10.0702 4.60971 9.66376 4.64159L9.66376 4.76114L11.3534 4.76114L11.3534 4.64159C10.9469 4.60971 10.8274 4.51406 10.8274 4.22714L10.8274 1.98754C11.21 1.62888 11.3853 1.53324 11.6483 1.53324C12.0389 1.53324 12.2301 1.78032 12.2301 2.30634L12.2301 3.9721C12.2301 4.47421 12.1265 4.60971 11.728 4.64159L11.728 4.76114L13.3858 4.76114L13.3858 4.64159C12.9953 4.60174 12.8996 4.50609 12.8996 4.11556L12.8996 2.2904C12.8996 1.54121 12.5489 1.09489 11.9592 1.09489C11.5925 1.09489 11.3455 1.23038 10.8035 1.74046L10.8035 1.11083L10.7477 1.09489C10.3572 1.23835 10.0862 1.32602 9.64782 1.45354ZM9.64782 1.45354"/>
   <path fill="#000" d="M13.609 4.76114M15.5377 1.17459L14.7328 1.17459L14.7328 0.250054C14.7328 0.170353 14.7248 0.146443 14.677 0.146443C14.6212 0.218174 14.5733 0.289905 14.5176 0.369606C14.2147 0.807962 13.872 1.19053 13.7445 1.22241C13.6568 1.2782 13.609 1.33399 13.609 1.37384C13.609 1.39775 13.6169 1.41369 13.6408 1.42963L14.0633 1.42963L14.0633 3.82863C14.0633 4.49812 14.3024 4.84084 14.7726 4.84084C15.1631 4.84084 15.466 4.64956 15.729 4.23511L15.6254 4.14744C15.458 4.34669 15.3225 4.42639 15.1472 4.42639C14.8523 4.42639 14.7328 4.2112 14.7328 3.70908L14.7328 1.42963L15.5377 1.42963ZM15.5377 1.42963"/>
  </g>
 </g>
 <path stroke-width="0.566929" d="M64.5295 -75.0866C64.5295 -75.0866 19.7953 -70.1161 21.0809 -46.213" stroke="#000"/>
 <g stroke-linecap="butt" stroke-dasharray="none">
  <path fill="#000" d="M23.8197 -47.8874C22.8992 -45.9295 22.2739 -43.6707 22.0098 -41.0709C20.3582 -43.096 19.2031 -45.1353 18.4696 -47.1707L21.0809 -46.213Z"/>
 </g>
 <g transform="matrix(1.400000,-0.000000,-0.000000,1.400000,64.529494,-75.086610)">
  <g transform="matrix(1.000000,0.000000,0.000000,1.000000,0.000000,-0.000000)">
   <path fill="#000" d="M0.143462 3.999M6.52752 -2.20574L6.49166 -3.91533L0.143462 -3.91533L0.143462 -3.68818C0.980324 -3.6284 1.18356 -3.47298 1.18356 -2.61221L1.18356 2.56438C1.18356 3.46101 1.08792 3.72403 0.143462 3.77185L0.143462 3.999L3.49091 3.999L3.49091 3.77185C2.64209 3.73598 2.40299 3.56861 2.40299 2.69588L2.40299 -3.05455C2.40299 -3.36539 2.46276 -3.46103 2.78555 -3.46103L4.41146 -3.46103C5.49938 -3.46103 6.0254 -3.41321 6.22864 -2.20574ZM6.22864 -2.20574"/>
  </g>
 </g>
 <path stroke-width="0.566929" d="M-52.1904 -87.0131C-52.1904 -87.0131 -19.7762 -74.5461 -22.7645 -49.6121" stroke="#000"/>
 <g stroke-linecap="butt" stroke-dasharray="none">
  <path fill="#000" d="M-20.0366 -50.4502C-20.9913 -48.4466 -22.2447 -46.4544 -23.844 -44.4934C-24.0997 -47.0109 -24.6222 -49.3058 -25.3638 -51.3978L-22.7645 -49.6121Z"/>
 </g>
 <g transform="matrix(1.400000,-0.000000,-0.000000,1.400000,-52.190416,-87.013119)">
  <g transform="matrix(1.000000,0.000000,0.000000,1.000000,0.000000,-0.000000)">
   <path fill="#000" d="M-15.2428 4.88965M-8.78704 2.49862L-9.00223 2.43884C-9.2772 3.52676 -9.81518 3.80173 -10.9031 3.80173L-13.9158 3.80173L-11.1661 0.561882L-13.5811 -2.53451L-10.8792 -2.53451C-9.79127 -2.53451 -9.44457 -2.10412 -9.37284 -1.04011L-9.15765 -1.04011L-9.31307 -3.02467L-15.2428 -3.02467L-15.2428 -2.82143L-12.1943 1.08791L-15.2428 4.67446L-15.2428 4.88965L-9.12178 4.88965ZM-9.12178 4.88965"/>
   <path fill="#000" d="M-8.32478 0.54994M-8.32478 -4.41544L-8.27696 -4.41544C-8.18929 -4.42341 -8.09364 -4.43138 -8.02988 -4.43138C-7.77484 -4.43138 -7.69514 -4.3198 -7.69514 -3.9452L-7.69514 -0.14346C-7.69514 0.286926 -7.80672 0.390537 -8.30884 0.430388L-8.30884 0.54994L-6.42789 0.54994L-6.42789 0.430388C-6.93001 0.398508 -7.02565 0.318806 -7.02565 -0.11955L-7.02565 -4.87771L-7.05753 -4.89365C-7.47198 -4.75815 -7.77484 -4.67845 -8.32478 -4.54296ZM-8.32478 -4.54296"/>
   <path fill="#000" d="M-5.96563 0.54994M-2.73773 0.0239123C-2.87322 0.135494 -2.96886 0.175344 -3.08842 0.175344C-3.27173 0.175344 -3.32752 0.0637628 -3.32752 -0.286922L-3.32752 -1.84109C-3.32752 -2.25554 -3.36737 -2.48667 -3.48692 -2.67796C-3.66226 -2.96488 -4.00498 -3.11631 -4.47521 -3.11631C-5.22441 -3.11631 -5.81419 -2.72578 -5.81419 -2.22366C-5.81419 -2.04035 -5.65479 -1.88094 -5.47148 -1.88094C-5.2802 -1.88094 -5.11282 -2.04035 -5.11282 -2.21569C-5.11282 -2.24757 -5.12079 -2.28742 -5.12876 -2.34321C-5.1447 -2.41494 -5.15267 -2.4787 -5.15267 -2.53449C-5.15267 -2.74969 -4.89763 -2.92503 -4.57883 -2.92503C-4.18829 -2.92503 -3.9731 -2.6939 -3.9731 -2.26351L-3.9731 -1.77733C-5.20049 -1.28319 -5.33599 -1.21943 -5.6787 -0.916561C-5.85404 -0.757159 -5.96563 -0.486175 -5.96563 -0.223161C-5.96563 0.278956 -5.61494 0.629641 -5.12876 0.629641C-4.77808 0.629641 -4.4513 0.462268 -3.96513 0.0478226C-3.92528 0.462268 -3.78181 0.629641 -3.45504 0.629641C-3.18406 0.629641 -3.01668 0.533999 -2.73773 0.231135ZM-2.73773 0.231135M-3.9731 -0.430384C-3.9731 -0.183311 -4.01295 -0.11158 -4.18032 -0.0159383C-4.3716 0.0956433 -4.59477 0.167374 -4.76214 0.167374C-5.04109 0.167374 -5.26426 -0.10361 -5.26426 -0.446324L-5.26426 -0.478205C-5.26426 -0.948441 -4.93748 -1.23537 -3.9731 -1.58605ZM-3.9731 -1.58605"/>
   <path fill="#000" d="M-2.61818 0.54994M-0.689409 -3.03661L-1.49439 -3.03661L-1.49439 -3.96114C-1.49439 -4.04084 -1.50236 -4.06476 -1.55018 -4.06476C-1.60597 -3.99302 -1.65379 -3.92129 -1.70958 -3.84159C-2.01245 -3.40324 -2.35516 -3.02067 -2.48268 -2.98879C-2.57036 -2.933 -2.61818 -2.87721 -2.61818 -2.83736C-2.61818 -2.81345 -2.61021 -2.79751 -2.5863 -2.78157L-2.16388 -2.78157L-2.16388 -0.382563C-2.16388 0.286926 -1.92478 0.629641 -1.45454 0.629641C-1.064 0.629641 -0.76114 0.438358 -0.498127 0.0239123L-0.601738 -0.063759C-0.76911 0.135494 -0.904602 0.215195 -1.07994 0.215195C-1.37484 0.215195 -1.49439 1.94583e-06 -1.49439 -0.502115L-1.49439 -2.78157L-0.689409 -2.78157ZM-0.689409 -2.78157"/>
  </g>
 </g>
</svg>
