<?xml version="1.0" encoding="utf-8"?>
<svg xmlns="http://www.w3.org/2000/svg" height="193.638pt" stroke-width="0.566929" fill="none" viewBox="-161.352 -96.8189 322.704 193.638" y="-96.8189pt" version="1.1" width="322.704pt" stroke-miterlimit="10.000000" x="-161.352pt">
 <path d="M-1.25884e-14 -80.1759L-8.43957 -80.3626L-16.8791 -80.0598L-25.3187 -79.2673L-33.7583 -77.9852L-42.1978 -76.2135L-50.6374 -73.9522L-59.077 -71.2012L-67.5165 -67.9607L-75.9561 -64.2305L-84.3957 -60.0107L-92.8352 -55.3013L-101.275 -50.1023L-109.714 -44.4137L-118.154 -38.2354L-126.594 -31.5676L-135.033 -24.4101L-143.473 -16.763L-151.912 -8.62632L-160.352 6.29418e-15L-160.352 6.29418e-15L-151.912 8.62632L-143.473 16.763L-135.033 24.4101L-126.594 31.5676L-118.154 38.2354L-109.714 44.4137L-101.275 50.1023L-92.8352 55.3013L-84.3957 60.0107L-75.9561 64.2305L-67.5165 67.9607L-59.077 71.2012L-50.6374 73.9522L-42.1978 76.2135L-33.7583 77.9852L-25.3187 79.2673L-16.8791 80.0598L-8.43957 80.3626L1.25884e-14 80.1759L1.25884e-14 80.1759L8.43957 71.5496L16.8791 63.4129L25.3187 55.7658L33.7583 48.6083L42.1978 41.9404L50.6374 35.7622L59.077 30.0736L67.5165 24.8746L75.9561 20.1652L84.3957 15.9454L92.8352 12.2152L101.275 8.97466L109.714 6.22372L118.154 3.96239L126.594 2.19068L135.033 0.908591L143.473 0.116112L151.912 -0.186751L160.352 -6.29418e-15L160.352 -6.29418e-15L151.912 0.186751L143.473 -0.116112L135.033 -0.908591L126.594 -2.19068L118.154 -3.96239L109.714 -6.22372L101.275 -8.97466L92.8352 -12.2152L84.3957 -15.9454L75.9561 -20.1652L67.5165 -24.8746L59.077 -30.0736L50.6374 -35.7622L42.1978 -41.9404L33.7583 -48.6083L25.3187 -55.7658L16.8791 -63.4129L8.43957 -71.5496L-1.25884e-14 -80.1759Z" opacity="0.150000" fill="#00f"/>
 <path d="M11.4143 -95.7088L2.53284 -95.8189L-6.37724 -95.4146L-15.3156 -94.4943L-24.2815 -93.0569L-33.2737 -91.1013L-42.2905 -88.6272L-51.3296 -85.6344L-60.3884 -82.1234L-69.4639 -78.095L-78.5527 -73.5506L-87.6512 -68.492L-96.7555 -62.9215L-105.862 -56.8415L-114.967 -50.2548L-124.066 -43.1644L-133.157 -35.5734L-142.237 -27.4847L-151.303 -18.9012L-160.352 -9.82575L-160.352 -9.82575L-152.522 -1.64856L-144.708 6.04138L-136.909 13.2468L-129.121 19.9707L-121.341 26.2161L-113.567 31.9859L-105.794 37.2832L-98.0193 42.1106L-90.2386 46.4708L-82.4483 50.366L-74.6446 53.798L-66.8244 56.768L-58.9843 59.2771L-51.122 61.3257L-43.235 62.9136L-35.3218 64.0403L-27.381 64.7049L-19.412 64.9063L-11.4143 64.643L-11.4143 64.643L-2.53284 55.4837L6.37724 46.8225L15.3156 38.6632L24.2815 31.0095L33.2737 23.8654L42.2905 17.2347L51.3296 11.1211L60.3884 5.52775L69.4639 0.457696L78.5527 -4.0867L87.6512 -8.10361L96.7555 -11.5919L105.862 -14.551L114.967 -16.9811L124.066 -18.8829L133.157 -20.2578L142.237 -21.1074L151.303 -21.434L160.352 -21.2401L160.352 -21.2401L152.522 -21.0605L144.708 -21.3396L136.909 -22.0749L129.121 -23.2643L121.341 -24.9059L113.567 -26.9984L105.794 -29.5412L98.0193 -32.534L90.2386 -35.9775L82.4483 -39.8726L74.6446 -44.2214L66.8244 -49.0261L58.9843 -54.2897L51.122 -60.0155L43.235 -66.2071L35.3218 -72.8684L27.381 -80.0032L19.412 -87.6154L11.4143 -95.7088Z" opacity="0.150000" fill="#00bf28"/>
 <path d="M-11.4143 -64.643L-19.412 -64.9063L-27.381 -64.7049L-35.3218 -64.0403L-43.235 -62.9136L-51.122 -61.3257L-58.9843 -59.2771L-66.8244 -56.768L-74.6446 -53.798L-82.4483 -50.366L-90.2386 -46.4708L-98.0193 -42.1106L-105.794 -37.2832L-113.567 -31.9859L-121.341 -26.2161L-129.121 -19.9707L-136.909 -13.2468L-144.708 -6.04138L-152.522 1.64856L-160.352 9.82575L-160.352 9.82575L-151.303 18.9012L-142.237 27.4847L-133.157 35.5734L-124.066 43.1644L-114.967 50.2548L-105.862 56.8415L-96.7555 62.9215L-87.6512 68.492L-78.5527 73.5506L-69.4639 78.095L-60.3884 82.1234L-51.3296 85.6344L-42.2905 88.6272L-33.2737 91.1013L-24.2815 93.0569L-15.3156 94.4943L-6.37724 95.4146L2.53284 95.8189L11.4143 95.7088L11.4143 95.7088L19.412 87.6154L27.381 80.0032L35.3218 72.8684L43.235 66.2071L51.122 60.0155L58.9843 54.2897L66.8244 49.0261L74.6446 44.2214L82.4483 39.8726L90.2386 35.9775L98.0193 32.534L105.794 29.5412L113.567 26.9984L121.341 24.9059L129.121 23.2643L136.909 22.0749L144.708 21.3396L152.522 21.0605L160.352 21.2401L160.352 21.2401L151.303 21.434L142.237 21.1074L133.157 20.2578L124.066 18.8829L114.967 16.9811L105.862 14.551L96.7555 11.5919L87.6512 8.10361L78.5527 4.0867L69.4639 -0.457696L60.3884 -5.52775L51.3296 -11.1211L42.2905 -17.2347L33.2737 -23.8654L24.2815 -31.0095L15.3156 -38.6632L6.37724 -46.8225L-2.53284 -55.4837L-11.4143 -64.643Z" opacity="0.150000" fill="#00bf28"/>
</svg>
