<?xml version="1.0" encoding="utf-8"?>
<svg xmlns="http://www.w3.org/2000/svg" height="97.0018pt" stroke-width="0.566929" fill="none" viewBox="-57.7862 -48.5009 115.657 97.0018" y="-48.5009pt" version="1.1" width="115.657pt" stroke-miterlimit="10.000000" x="-57.7862pt">
 <path d="M-43.3879 9.2549L-48.7272 5.73911L-52.8046 1.20589L-55.5143 -4.16391L-56.7862 -10.1328L-56.5874 -16.4228L-54.9231 -22.7356L-51.8362 -28.7738L-47.4068 -34.263L-41.7496 -38.9705L-35.0111 -42.7207L-27.3659 -45.4056L-19.0118 -46.9884L-10.1654 -47.5009L-1.05573 -47.0357L8.08131 -45.7323L17.0091 -43.7611L25.4963 -41.3041L33.3231 -38.5372L40.287 -35.6142L46.2074 -32.654L50.931 -29.7333L54.3356 -26.8844L56.3329 -24.0992L56.8713 -21.3374L55.9366 -18.5395L53.5533 -15.6415L49.7829 -12.591L44.7232 -9.36104L38.5052 -5.96249L31.29 -2.45066L23.2643 1.07253L14.6361 4.46231L5.62883 7.54038L-3.52422 10.1088L-12.586 11.9673L-21.3218 12.9323L-29.5054 12.8555L-36.9248 11.6403L-43.3879 9.2549Z" stroke="#00bf28" stroke-width="1.603518"/>
 <path d="M-56.6929 15.6291L-55.1516 22.1201L-52.1058 28.3522L-47.6388 34.0258L-41.8723 38.8863L-34.9636 42.7419L-27.1012 45.4752L-18.4996 47.0479L-9.3933 47.4976L-0.0308086 46.9286L9.33252 45.4957L18.4413 43.3855L27.047 40.795L34.915 37.9112L41.8305 34.8934L47.6051 31.8602L52.0811 28.882L55.1364 25.981L56.6878 23.1363L56.6929 20.2959" stroke="#00bf28" stroke-width="1.603518"/>
 <path d="M-56.6929 -15.6291L-56.6929 15.6291" stroke="#00bf28" stroke-width="1.603518"/>
 <path d="M56.6929 -20.2959L56.6929 20.2959" stroke="#00bf28" stroke-width="1.603518"/>
 <path d="M-56.6929 -2.50103e-07L-55.9197 6.45914L-53.6211 12.5967L-49.8599 18.1155L-44.7387 22.7652L-38.3971 26.3598L-31.0081 28.7889L-22.7733 30.0227L-13.9173 30.1079L-4.68166 29.1588L4.68166 27.3405L13.9173 24.8502L22.7733 21.8952L31.0081 18.6725L38.3971 15.3506L44.7387 12.0563L49.8599 8.86736L53.6211 5.81149L55.9197 2.87221L56.6929 -2.30318e-08" stroke="#00f" stroke-width="0.566929"/>
 <g stroke-width="0.566929">
  <path d="M-10.1654 -47.5009L-6.79657 -45.0613L-3.43133 -42.7081L-0.0694212 -40.4409L3.28947 -38.2593L6.64566 -36.163L9.9995 -34.1518L13.3513 -32.2252L16.7015 -30.383L20.0505 -28.6251L23.3985 -26.951L26.7461 -25.3608L30.0935 -23.8541L33.4411 -22.4309L36.7895 -21.0911L40.1388 -19.8346L43.4895 -18.6614L46.8419 -17.5715L50.1964 -16.5648L53.5533 -15.6415L55.969 24.7913" stroke="#00bf28"/>
 </g>
 <g stroke-width="0.566929">
  <path d="M-36.788 -41.88L-32.9013 -38.9219L-29.0192 -36.08L-25.1413 -33.3536L-21.267 -30.7422L-17.3958 -28.2451L-13.5273 -25.862L-9.6609 -23.5923L-5.79595 -21.4356L-1.93188 -19.3915L1.93188 -17.4596L5.79595 -15.6397L9.6609 -13.9314L13.5273 -12.3347L17.3958 -10.8493L21.267 -9.47519L25.1413 -8.21235L29.0192 -7.0608L32.9013 -6.02062L36.788 -5.09196L43.3879 34.133" stroke="#00bf28"/>
 </g>
 <g stroke-width="0.566929">
  <path d="M-53.5533 -25.8069L-50.1964 -23.3614L-46.8419 -21.0028L-43.4895 -18.7308L-40.1388 -16.5452L-36.7895 -14.4455L-33.4411 -12.4314L-30.0935 -10.5028L-26.7461 -8.65924L-23.3985 -6.90057L-20.0505 -5.22655L-16.7015 -3.63699L-13.3513 -2.13172L-9.9995 -0.710622L-6.64566 0.626421L-3.28947 1.87948L0.0694212 3.04861L3.43133 4.13382L6.79657 5.1351L10.1654 6.05241L19.181 43.1853" stroke="#00bf28"/>
 </g>
 <g stroke-width="0.566929">
  <path d="M-43.3879 9.2549L-43.3879 9.2549L-43.3879 9.2549L-43.3879 9.2549L-43.3879 9.2549L-43.3879 9.2549L-43.3879 9.2549L-43.3879 9.2549L-43.3879 9.2549L-43.3879 9.2549L-43.3879 9.2549L-43.3879 9.2549L-43.3879 9.2549L-43.3879 9.2549L-43.3879 9.2549L-43.3879 9.2549L-43.3879 9.2549L-43.3879 9.2549L-43.3879 9.2549L-43.3879 9.2549L-36.788 41.88" stroke="#00bf28"/>
 </g>
 <g stroke-width="0.566929">
  <path d="M19.181 -43.1853L15.241 -42.1006L11.2973 -40.9163L7.35035 -39.6323L3.40036 -38.2486L-0.552326 -36.7653L-4.50737 -35.1823L-8.46441 -33.4998L-12.4231 -31.7178L-16.383 -29.8365L-20.3439 -27.8561L-24.3052 -25.7767L-28.2667 -23.5986L-32.2279 -21.322L-36.1885 -18.9472L-40.148 -16.4744L-44.1062 -13.904L-48.0626 -11.2363L-52.017 -8.4716L-55.969 -5.61028L-53.5533 25.8069" stroke="#00bf28"/>
 </g>
 <g stroke-width="0.566929">
  <path d="M43.3879 -34.133L38.835 -33.0451L34.2776 -31.824L29.7159 -30.4694L25.1506 -28.9813L20.5822 -27.3596L16.0111 -25.6045L11.438 -23.7159L6.8634 -21.694L2.2879 -19.5389L-2.2879 -17.251L-6.8634 -14.8305L-11.438 -12.2779L-16.0111 -9.59334L-20.5822 -6.77744L-25.1506 -3.83064L-29.7159 -0.753445L-34.2776 2.45359L-38.835 5.7899L-43.3879 9.2549L-36.788 41.88" stroke="#00bf28"/>
 </g>
 <g stroke-width="0.566929">
  <path d="M55.969 -24.7913L52.017 -23.7126L48.0626 -22.5336L44.1062 -21.2544L40.148 -19.8748L36.1885 -18.3949L32.2279 -16.8147L28.2667 -15.1342L24.3052 -13.3536L20.3439 -11.4731L16.383 -9.49266L12.4231 -7.41259L8.46441 -5.23309L4.50737 -2.9544L0.552326 -0.576807L-3.40036 1.8994L-7.35035 4.47391L-11.2973 7.14637L-15.241 9.91644L-19.181 12.7837L-10.1654 47.5009" stroke="#00bf28"/>
 </g>
</svg>
