<?xml version="1.0" encoding="utf-8"?>
<svg xmlns="http://www.w3.org/2000/svg" viewBox="-57.8648 -48.5009 115.736 96.9985" height="96.9985pt" y="-48.5009pt" version="1.1" fill="none" width="115.736pt" stroke-width="0.566929" stroke-miterlimit="10.000000" x="-57.8648pt">
 <path d="M-43.3879 9.2549L-48.7272 5.73911L-52.8046 1.20589L-55.5143 -4.16391L-56.7862 -10.1328L-56.5874 -16.4228L-54.9231 -22.7356L-51.8362 -28.7738L-47.4068 -34.263L-41.7496 -38.9705L-35.0111 -42.7207L-27.3659 -45.4056L-19.0118 -46.9884L-10.1654 -47.5009L-1.05573 -47.0357L8.08131 -45.7323L17.0091 -43.7611L25.4963 -41.3041L33.3231 -38.5372L40.287 -35.6142L46.2074 -32.654L50.931 -29.7333L54.3356 -26.8844L56.3329 -24.0992L56.8713 -21.3374L55.9366 -18.5395L53.5533 -15.6415L49.7829 -12.591L44.7232 -9.36104L38.5052 -5.96249L31.29 -2.45066L23.2643 1.07253L14.6361 4.46231L5.62883 7.54038L-3.52422 10.1088L-12.586 11.9673L-21.3218 12.9323L-29.5054 12.8555L-36.9248 11.6403L-43.3879 9.2549Z" stroke="#00bf28" stroke-width="1.603518"/>
 <path d="M-56.6929 15.6291L-55.1516 22.1201L-52.1058 28.3522L-47.6388 34.0258L-41.8723 38.8863L-34.9636 42.7419L-27.1012 45.4752L-18.4996 47.0479L-9.3933 47.4976L-0.0308083 46.9286L9.33252 45.4957L18.4413 43.3855L27.047 40.795L34.915 37.9112L41.8305 34.8934L47.6051 31.8602L52.0811 28.882L55.1364 25.981L56.6878 23.1363L56.6929 20.2959" stroke="#00bf28" stroke-width="1.603518"/>
 <path d="M-56.6929 -15.6291L-56.6929 15.6291" stroke="#00bf28" stroke-width="1.603518"/>
 <path d="M56.6929 -20.2959L56.6929 20.2959" stroke="#00bf28" stroke-width="1.603518"/>
 <path d="M-56.6929 1.41459e-07L-55.9197 6.45914L-53.6211 12.5967L-49.8599 18.1155L-44.7387 22.7652L-38.3971 26.3598L-31.0081 28.7889L-22.7733 30.0227L-13.9173 30.1079L-4.68166 29.1588L4.68166 27.3405L13.9173 24.8502L22.7733 21.8952L31.0081 18.6725L38.3971 15.3506L44.7387 12.0563L49.8599 8.86736L53.6211 5.81149L55.9197 2.87221L56.6929 -1.5585e-09" stroke="#00f" stroke-width="0.566929"/>
 <g stroke-width="0.566929">
  <path d="M1.50507 -46.7489L4.4032 -44.7419L7.29878 -42.7985L10.192 -40.9185L13.0831 -39.1017L15.9722 -37.3479L18.8596 -35.6569L21.7456 -34.0286L24.6302 -32.4627L27.5138 -30.9591L30.3966 -29.5177L33.2789 -28.1384L36.1608 -26.821L39.0426 -25.5654L41.9247 -24.3717L44.8071 -23.2397L47.6901 -22.1694L50.5741 -21.1608L53.4591 -20.2139L56.3454 -19.3288L56.8648 21.2558" stroke="#00bf28"/>
 </g>
 <g stroke-width="0.566929">
  <path d="M-20.2215 -46.8319L-16.5538 -44.1008L-12.8905 -41.4724L-9.23117 -38.9464L-5.57542 -36.5221L-1.92283 -34.1992L1.72704 -31.9772L5.37466 -29.8558L9.02049 -27.8345L12.665 -25.9131L16.3088 -24.0913L19.9522 -22.3687L23.5958 -20.7452L27.2401 -19.2207L30.8856 -17.795L34.5327 -16.4681L38.1819 -15.2398L41.8337 -14.1103L45.4885 -13.0796L49.1467 -12.1478L53.1691 27.9884" stroke="#00bf28"/>
 </g>
 <g stroke-width="0.566929">
  <path d="M-36.788 -41.88L-32.9013 -38.9219L-29.0192 -36.08L-25.1413 -33.3536L-21.267 -30.7422L-17.3958 -28.2451L-13.5273 -25.862L-9.6609 -23.5923L-5.79595 -21.4356L-1.93188 -19.3915L1.93188 -17.4596L5.79595 -15.6397L9.6609 -13.9314L13.5273 -12.3347L17.3958 -10.8493L21.267 -9.47519L25.1413 -8.21235L29.0192 -7.0608L32.9013 -6.02062L36.788 -5.09196L43.3879 34.133" stroke="#00bf28"/>
 </g>
 <g stroke-width="0.566929">
  <path d="M-49.1467 -32.3693L-45.4885 -29.6334L-41.8337 -27.0008L-38.1819 -24.471L-34.5327 -22.0435L-30.8856 -19.7178L-27.2401 -17.4937L-23.5958 -15.3706L-19.9522 -13.3482L-16.3088 -11.4262L-12.665 -9.60436L-9.02049 -7.88236L-5.37466 -6.26001L-1.72704 -4.73715L1.92283 -3.31365L5.57542 -1.98943L9.23117 -0.764455L12.8905 0.361281L16.5538 1.38773L20.2215 2.31482L28.6438 40.251" stroke="#00bf28"/>
 </g>
 <g stroke-width="0.566929">
  <path d="M-56.3454 -17.8237L-53.4591 -15.8107L-50.5741 -13.8621L-47.6901 -11.9774L-44.8071 -10.1566L-41.9247 -8.39947L-39.0426 -6.70579L-36.1608 -5.0754L-33.2789 -3.50815L-30.3966 -2.00389L-27.5138 -0.56249L-24.6302 0.816179L-21.7456 2.13222L-18.8596 3.38571L-15.9722 4.57675L-13.0831 5.70538L-10.192 6.77164L-7.29878 7.77558L-4.4032 8.71719L-1.50507 9.59649L7.81406 45.7812" stroke="#00bf28"/>
 </g>
 <g stroke-width="0.566929">
  <path d="M-43.3879 9.2549L-43.3879 9.2549L-43.3879 9.2549L-43.3879 9.2549L-43.3879 9.2549L-43.3879 9.2549L-43.3879 9.2549L-43.3879 9.2549L-43.3879 9.2549L-43.3879 9.2549L-43.3879 9.2549L-43.3879 9.2549L-43.3879 9.2549L-43.3879 9.2549L-43.3879 9.2549L-43.3879 9.2549L-43.3879 9.2549L-43.3879 9.2549L-43.3879 9.2549L-43.3879 9.2549L-36.788 41.88" stroke="#00bf28"/>
 </g>
 <g stroke-width="0.566929">
  <path d="M7.81406 -45.7812L4.42171 -44.7392L1.02681 -43.6237L-2.37045 -42.4344L-5.76985 -41.1714L-9.17119 -39.8348L-12.5743 -38.4246L-15.9788 -36.9409L-19.3847 -35.3837L-22.7915 -33.7532L-26.1992 -32.0493L-29.6075 -30.2723L-33.016 -28.4223L-36.4246 -26.4995L-39.8331 -24.5039L-43.2412 -22.4358L-46.6486 -20.2953L-50.0551 -18.0827L-53.4606 -15.7981L-56.8648 -13.4418L-56.3454 17.8237" stroke="#00bf28"/>
 </g>
 <g stroke-width="0.566929">
  <path d="M28.6438 -40.251L24.3545 -39.1581L20.061 -37.947L15.7634 -36.6175L11.4622 -35.1697L7.15792 -33.6035L2.8509 -31.919L-1.45838 -30.1162L-5.76945 -28.1953L-10.0818 -26.1565L-14.395 -23.9999L-18.7085 -21.7258L-23.0218 -19.3345L-27.3344 -16.8263L-31.6458 -14.2016L-35.9556 -11.4608L-40.2632 -8.60422L-44.5683 -5.63235L-48.8704 -2.54564L-53.1691 0.65543L-49.1467 32.3693" stroke="#00bf28"/>
 </g>
 <g stroke-width="0.566929">
  <path d="M43.3879 -34.133L38.835 -33.0451L34.2776 -31.824L29.7159 -30.4694L25.1506 -28.9813L20.5822 -27.3596L16.0111 -25.6045L11.438 -23.7159L6.8634 -21.694L2.2879 -19.5389L-2.2879 -17.251L-6.8634 -14.8305L-11.438 -12.2779L-16.0111 -9.59334L-20.5822 -6.77744L-25.1506 -3.83064L-29.7159 -0.753445L-34.2776 2.45359L-38.835 5.7899L-43.3879 9.2549L-36.788 41.88" stroke="#00bf28"/>
 </g>
 <g stroke-width="0.566929">
  <path d="M53.1691 -27.9884L48.8704 -26.9002L44.5683 -25.6933L40.2632 -24.3676L35.9556 -22.923L31.6458 -21.3596L27.3344 -19.6772L23.0218 -17.8761L18.7085 -15.9564L14.395 -13.9181L10.0818 -11.7615L5.76945 -9.48685L1.45838 -7.09445L-2.8509 -4.58461L-7.15792 -1.9577L-11.4622 0.785877L-15.7634 3.64571L-20.061 6.62134L-24.3545 9.7123L-28.6438 12.9181L-20.2215 46.8319" stroke="#00bf28"/>
 </g>
 <g stroke-width="0.566929">
  <path d="M56.8648 -21.2558L53.4606 -20.2198L50.0551 -19.1095L46.6486 -17.9249L43.2412 -16.6659L39.8331 -15.3327L36.4246 -13.9252L33.016 -12.4435L29.6075 -10.8877L26.1992 -9.25777L22.7915 -7.55394L19.3847 -5.77627L15.9788 -3.92491L12.5743 -2.00002L9.17119 -0.00174069L5.76985 2.06973L2.37045 4.21421L-1.02681 6.43149L-4.42171 8.72136L-7.81406 11.0836L1.50507 46.7489" stroke="#00bf28"/>
 </g>
</svg>
