<?xml version="1.0" encoding="utf-8"?>
<svg xmlns="http://www.w3.org/2000/svg" viewBox="-161.352 -96.8189 322.704 193.638" height="193.638pt" y="-96.8189pt" version="1.1" fill="none" width="322.704pt" stroke-width="0.566929" stroke-miterlimit="10.000000" x="-161.352pt">
 <path d="M11.4143 -95.7088L2.53284 -95.8189L-6.37724 -95.4146L-15.3156 -94.4943L-24.2815 -93.0569L-33.2737 -91.1013L-42.2905 -88.6272L-51.3296 -85.6344L-60.3884 -82.1234L-69.4639 -78.095L-78.5527 -73.5506L-87.6512 -68.492L-96.7555 -62.9215L-105.862 -56.8415L-114.967 -50.2548L-124.066 -43.1644L-133.157 -35.5734L-142.237 -27.4847L-151.303 -18.9012L-160.352 -9.82575L-160.352 -9.82575L-152.522 -1.64856L-144.708 6.04138L-136.909 13.2468L-129.121 19.9707L-121.341 26.2161L-113.567 31.9859L-105.794 37.2832L-98.0193 42.1106L-90.2386 46.4708L-82.4483 50.366L-74.6446 53.798L-66.8244 56.768L-58.9843 59.2771L-51.122 61.3257L-43.235 62.9136L-35.3218 64.0403L-27.381 64.7049L-19.412 64.9063L-11.4143 64.643L-11.4143 64.643L-2.53284 55.4837L6.37724 46.8225L15.3156 38.6632L24.2815 31.0095L33.2737 23.8654L42.2905 17.2347L51.3296 11.1211L60.3884 5.52775L69.4639 0.457696L78.5527 -4.0867L87.6512 -8.10361L96.7555 -11.5919L105.862 -14.551L114.967 -16.9811L124.066 -18.8829L133.157 -20.2578L142.237 -21.1074L151.303 -21.434L160.352 -21.2401L160.352 -21.2401L152.522 -21.0605L144.708 -21.3396L136.909 -22.0749L129.121 -23.2643L121.341 -24.9059L113.567 -26.9984L105.794 -29.5412L98.0193 -32.534L90.2386 -35.9775L82.4483 -39.8726L74.6446 -44.2214L66.8244 -49.0261L58.9843 -54.2897L51.122 -60.0155L43.235 -66.2071L35.3218 -72.8684L27.381 -80.0032L19.412 -87.6154L11.4143 -95.7088" stroke="#00bf28" stroke-width="1.603518"/>
 <path d="M-160.352 9.82575L-151.303 18.9012L-142.237 27.4847L-133.157 35.5734L-124.066 43.1644L-114.967 50.2548L-105.862 56.8415L-96.7555 62.9215L-87.6512 68.492L-78.5527 73.5506L-69.4639 78.095L-60.3884 82.1234L-51.3296 85.6344L-42.2905 88.6272L-33.2737 91.1013L-24.2815 93.0569L-15.3156 94.4943L-6.37724 95.4146L2.53284 95.8189L11.4143 95.7088L11.4143 95.7088L-11.4143 64.643L-11.4143 64.643L-19.412 64.9063L-27.381 64.7049L-35.3218 64.0403L-43.235 62.9136L-51.122 61.3257L-58.9843 59.2771L-66.8244 56.768L-74.6446 53.798L-82.4483 50.366L-90.2386 46.4708L-98.0193 42.1106L-105.794 37.2832L-113.567 31.9859L-121.341 26.2161L-129.121 19.9707L-136.909 13.2468L-144.708 6.04138L-152.522 -1.64856L-160.352 -9.82575L-160.352 -9.82575L-160.352 9.82575" stroke="#00bf28" stroke-width="1.603518"/>
 <path d="M160.352 21.2401L152.522 21.0605L144.708 21.3396L136.909 22.0749L129.121 23.2643L121.341 24.9059L113.567 26.9984L105.794 29.5412L98.0193 32.534L90.2386 35.9775L82.4483 39.8726L74.6446 44.2214L66.8244 49.0261L58.9843 54.2897L51.122 60.0155L43.235 66.2071L35.3218 72.8684L27.381 80.0032L19.412 87.6154L11.4143 95.7088L11.4143 95.7088L-11.4143 64.643L-11.4143 64.643L-2.53284 55.4837L6.37724 46.8225L15.3156 38.6632L24.2815 31.0095L33.2737 23.8654L42.2905 17.2347L51.3296 11.1211L60.3884 5.52775L69.4639 0.457696L78.5527 -4.0867L87.6512 -8.10361L96.7555 -11.5919L105.862 -14.551L114.967 -16.9811L124.066 -18.8829L133.157 -20.2578L142.237 -21.1074L151.303 -21.434L160.352 -21.2401L160.352 -21.2401L160.352 21.2401" stroke="#00bf28" stroke-width="1.603518"/>
 <g stroke-width="0.566929">
  <path d="M11.4143 -95.7088L19.412 -87.6154L27.381 -80.0032L35.3218 -72.8684L43.235 -66.2071L51.122 -60.0155L58.9843 -54.2897L66.8244 -49.0261L74.6446 -44.2214L82.4483 -39.8726L90.2386 -35.9775L98.0193 -32.534L105.794 -29.5412L113.567 -26.9984L121.341 -24.9059L129.121 -23.2643L136.909 -22.0749L144.708 -21.3396L152.522 -21.0605L160.352 -21.2401L160.352 21.2401" stroke="#00bf28"/>
 </g>
 <g stroke-width="0.566929">
  <path d="M-2.66124 -95.6457L5.31905 -87.5682L13.2701 -79.9723L21.1922 -72.8538L29.0863 -66.2088L36.9539 -60.0329L44.7967 -54.322L52.6173 -49.0722L60.4186 -44.2798L68.2039 -39.9417L75.9769 -36.0552L83.7415 -32.6184L91.5017 -29.63L99.2617 -27.0895L107.025 -24.9972L114.796 -23.3538L122.578 -22.1609L130.374 -21.4205L138.186 -21.1349L146.016 -21.3069L147.962 21.1678" stroke="#00bf28"/>
 </g>
 <g stroke-width="0.566929">
  <path d="M-16.8081 -94.2907L-8.84618 -86.2258L-0.914008 -78.6429L6.98899 -71.5378L14.8638 -64.9062L22.7121 -58.7434L30.536 -53.0451L38.3381 -47.807L46.1217 -43.0252L53.8903 -38.6963L61.648 -34.8174L69.3989 -31.3865L77.1474 -28.4023L84.8977 -25.8642L92.6538 -23.7726L100.42 -22.1282L108.199 -20.933L115.994 -20.1889L123.808 -19.8987L131.643 -20.0651L135.61 22.2417" stroke="#00bf28"/>
 </g>
 <g stroke-width="0.566929">
  <path d="M-31.0233 -91.6388L-23.0806 -83.5825L-15.1678 -76.0087L-7.28404 -68.9132L0.57177 -62.2912L8.40145 -56.1382L16.2074 -50.4493L23.9925 -45.2202L31.7602 -40.4467L39.5145 -36.1252L47.2595 -32.2527L54.9997 -28.8269L62.7397 -25.8466L70.4837 -23.3112L78.236 -21.2209L86.0006 -19.5768L93.7808 -18.3808L101.58 -17.635L109.399 -17.3424L117.242 -17.506L123.285 24.4532" stroke="#00bf28"/>
 </g>
 <g stroke-width="0.566929">
  <path d="M-45.3011 -87.6872L-37.3781 -79.6348L-29.4845 -72.0655L-21.6197 -64.975L-13.7822 -58.3585L-5.96991 -52.2111L1.81969 -46.528L9.58982 -41.3047L17.3442 -36.5367L25.0869 -32.2204L32.8225 -28.3527L40.5554 -24.9311L48.2905 -21.9544L56.0321 -19.4218L63.7846 -17.3338L71.5517 -15.6915L79.3369 -14.4967L87.143 -13.7518L94.9723 -13.4596L102.826 -13.6234L110.976 27.796" stroke="#00bf28"/>
 </g>
 <g stroke-width="0.566929">
  <path d="M-59.6328 -82.4358L-51.7291 -74.3822L-43.8543 -66.8124L-36.0074 -59.7219L-28.1867 -53.106L-20.3901 -46.9598L-12.6145 -41.2785L-4.85673 -36.0572L2.88728 -31.2917L10.6218 -26.9781L18.3515 -23.1133L26.081 -19.6948L33.8151 -16.7213L41.5583 -14.192L49.3149 -12.1074L57.0884 -10.4684L64.8823 -9.27704L72.6992 -8.53562L80.5411 -8.24704L88.4097 -8.4145L98.6674 32.2674" stroke="#00bf28"/>
 </g>
 <g stroke-width="0.566929">
  <path d="M-74.0069 -75.8872L-66.1216 -67.8273L-58.2642 -60.2518L-50.4335 -53.1563L-42.6276 -46.5361L-34.8441 -40.3864L-27.0797 -34.7024L-19.331 -29.4794L-11.5939 -24.713L-3.86384 -20.3995L3.86384 -16.5357L11.5939 -13.1191L19.331 -10.1483L27.0797 -7.62266L34.8441 -5.54234L42.6276 -3.90845L50.4335 -2.72273L58.2642 -1.98755L66.1216 -1.70571L74.0069 -1.88034L86.3449 37.8685" stroke="#00bf28"/>
 </g>
 <g stroke-width="0.566929">
  <path d="M-88.4097 -68.0473L-80.5411 -59.9762L-72.6992 -52.39L-64.8823 -45.2845L-57.0884 -38.6552L-49.3149 -32.4974L-41.5583 -26.8066L-33.8151 -21.578L-26.081 -16.8075L-18.3515 -12.4915L-10.6218 -8.62662L-2.88728 -5.21067L4.85673 -2.24207L12.6145 0.279884L20.3901 2.35502L28.1867 3.9824L36.0074 5.1604L43.8543 5.88681L51.7291 6.15896L59.6328 5.97391L73.9936 44.6043" stroke="#00bf28"/>
 </g>
 <g stroke-width="0.566929">
  <path d="M-102.826 -58.9246L-94.9723 -50.8377L-87.143 -43.2363L-79.3369 -36.1164L-71.5517 -29.4737L-63.7846 -23.3038L-56.0321 -17.6021L-48.2905 -12.3645L-40.5554 -7.58693L-32.8225 -3.26574L-25.0869 0.60203L-17.3442 4.0187L-9.58982 6.9858L-1.81969 9.50409L5.96991 11.5735L13.7822 13.1933L21.6197 14.3619L29.4845 15.0775L37.3781 15.3375L45.3011 15.1392L61.6 52.4839" stroke="#00bf28"/>
 </g>
 <g stroke-width="0.566929">
  <path d="M-117.242 -48.5293L-109.399 -40.4231L-101.58 -32.8028L-93.7808 -25.6648L-86.0006 -19.005L-78.236 -12.8194L-70.4837 -7.10379L-62.7397 -1.85415L-54.9997 2.93325L-47.2595 7.26179L-39.5145 11.1343L-31.7602 14.553L-23.9925 17.5194L-16.2074 20.0344L-8.40145 22.0979L-0.57177 23.7094L7.28404 24.8676L15.1678 25.5708L23.0806 25.817L31.0233 25.6035L49.1526 61.5195" stroke="#00bf28"/>
 </g>
 <g stroke-width="0.566929">
  <path d="M-131.643 -36.8732L-123.808 -28.7448L-115.994 -21.1029L-108.199 -13.944L-100.42 -7.2644L-92.6538 -1.06041L-84.8977 4.67176L-77.1474 9.9358L-69.3989 14.7351L-61.648 19.0729L-53.8903 22.9518L-46.1217 26.3738L-38.3381 29.3404L-30.536 31.8526L-22.7121 33.9104L-14.8638 35.5135L-6.98899 36.6609L0.914008 37.3511L8.84618 37.5823L16.8081 37.3523L36.6425 71.7254" stroke="#00bf28"/>
 </g>
 <g stroke-width="0.566929">
  <path d="M-146.016 -23.9682L-138.186 -15.8159L-130.374 -8.15042L-122.578 -0.968711L-114.796 5.73253L-107.025 11.9567L-99.2617 17.7072L-91.5017 22.9873L-83.7415 27.8002L-75.9769 32.1487L-68.2039 36.0352L-60.4186 39.4616L-52.6173 42.4295L-44.7967 44.9397L-36.9539 46.9924L-29.0863 48.5875L-21.1922 49.7242L-13.2701 50.4013L-5.31905 50.6174L2.66124 50.3706L24.0641 83.1167" stroke="#00bf28"/>
 </g>
 <g stroke-width="0.566929">
  <path d="M-160.352 -9.82575L-152.522 -1.64856L-144.708 6.04138L-136.909 13.2468L-129.121 19.9707L-121.341 26.2161L-113.567 31.9859L-105.794 37.2832L-98.0193 42.1106L-90.2386 46.4708L-82.4483 50.366L-74.6446 53.798L-66.8244 56.768L-58.9843 59.2771L-51.122 61.3257L-43.235 62.9136L-35.3218 64.0403L-27.381 64.7049L-19.412 64.9063L-11.4143 64.643L11.4143 95.7088" stroke="#00bf28"/>
 </g>
 <g stroke-width="0.566929">
  <path d="M11.4143 -95.7088L2.53284 -95.8189L-6.37724 -95.4146L-15.3156 -94.4943L-24.2815 -93.0569L-33.2737 -91.1013L-42.2905 -88.6272L-51.3296 -85.6344L-60.3884 -82.1234L-69.4639 -78.095L-78.5527 -73.5506L-87.6512 -68.492L-96.7555 -62.9215L-105.862 -56.8415L-114.967 -50.2548L-124.066 -43.1644L-133.157 -35.5734L-142.237 -27.4847L-151.303 -18.9012L-160.352 -9.82575L-160.352 9.82575" stroke="#00bf28"/>
 </g>
 <g stroke-width="0.566929">
  <path d="M24.0641 -83.1167L15.1652 -83.2434L6.23709 -82.8537L-2.71991 -81.9459L-11.7049 -80.5184L-20.7165 -78.5701L-29.7528 -76.1002L-38.8113 -73.1085L-47.8892 -69.5953L-56.983 -65.5614L-66.0892 -61.0083L-75.2037 -55.938L-84.3226 -50.3529L-93.4418 -44.2557L-102.557 -37.6497L-111.665 -30.5382L-120.763 -22.9245L-129.846 -14.812L-138.913 -6.20406L-147.962 2.89628L-146.016 23.9682" stroke="#00bf28"/>
 </g>
 <g stroke-width="0.566929">
  <path d="M36.6425 -71.7254L27.7253 -71.8689L18.7783 -71.4944L9.80218 -70.5996L0.797905 -69.1828L-8.23294 -67.2425L-17.2882 -64.7777L-26.3652 -61.788L-35.4608 -58.2735L-44.5713 -54.2352L-53.6927 -49.6745L-62.8209 -44.5935L-71.9516 -38.9948L-81.0805 -32.8816L-90.2035 -26.2572L-99.3167 -19.1255L-108.417 -11.4901L-117.501 -3.35491L-126.566 5.27657L-135.61 14.4009L-131.643 36.8732" stroke="#00bf28"/>
 </g>
 <g stroke-width="0.566929">
  <path d="M49.1526 -61.5195L40.2161 -61.6796L31.2498 -61.3199L22.2544 -60.4382L13.2311 -59.0323L4.18167 -57.1003L-4.89155 -54.6412L-13.9856 -51.6543L-23.097 -48.1396L-32.2219 -44.098L-41.356 -39.5309L-50.4949 -34.4406L-59.6341 -28.83L-68.7692 -22.7024L-77.896 -16.0615L-87.0105 -8.91144L-96.1095 -1.25626L-105.19 6.89989L-114.249 15.553L-123.285 24.6995L-117.242 48.5293" stroke="#00bf28"/>
 </g>
 <g stroke-width="0.566929">
  <path d="M61.6 -52.4839L52.644 -52.6592L43.6584 -52.3135L34.6441 -51.4441L25.6025 -50.0486L16.5356 -48.1249L7.44607 -45.6717L-1.66294 -42.6881L-10.7877 -39.1741L-19.9241 -35.1304L-29.0677 -30.5586L-38.2138 -25.461L-47.3579 -19.8406L-56.4954 -13.7009L-65.6221 -7.04604L-74.7341 0.119732L-83.8281 7.79197L-92.9011 15.9662L-101.951 24.6383L-110.976 33.804L-102.826 58.9246" stroke="#00bf28"/>
 </g>
 <g stroke-width="0.566929">
  <path d="M73.9936 -44.6043L65.0182 -44.7928L56.0139 -44.4592L46.9817 -43.6006L37.9232 -42.2144L28.8407 -40.2984L19.7371 -37.8509L10.6158 -34.871L1.48068 -31.3585L-7.66391 -27.3141L-16.8134 -22.7394L-25.963 -17.6366L-35.108 -12.0091L-44.2439 -5.86037L-53.3665 0.805232L-62.4721 7.98321L-71.5574 15.6689L-80.6196 23.8576L-89.6568 32.5448L-98.6674 41.7262L-88.4097 68.0473" stroke="#00bf28"/>
 </g>
 <g stroke-width="0.566929">
  <path d="M86.3449 -37.8685L77.351 -38.0673L68.3293 -37.7435L59.2808 -36.8937L50.2076 -35.5152L41.112 -33.6057L31.9972 -31.1634L22.8668 -28.1872L13.7248 -24.6768L4.57573 -20.6331L-4.57573 -16.0573L-13.7248 -10.952L-22.8668 -5.32037L-31.9972 0.833876L-41.112 7.50635L-50.2076 14.6924L-59.2808 22.3871L-68.3293 30.5858L-77.351 39.2837L-86.3449 48.4764L-74.0069 75.8872" stroke="#00bf28"/>
 </g>
 <g stroke-width="0.566929">
  <path d="M98.6674 -32.2674L89.6568 -32.4735L80.6196 -32.1563L71.5574 -31.3128L62.4721 -29.94L53.3665 -28.0355L44.2439 -25.5975L35.108 -22.6249L25.963 -19.1173L16.8134 -15.0754L7.66391 -10.5007L-1.48068 -5.3955L-10.6158 0.237019L-19.7371 6.39302L-28.8407 13.0681L-37.9232 20.2577L-46.9817 27.9567L-56.0139 36.1604L-65.0182 44.864L-73.9936 54.0631L-59.6328 82.4358" stroke="#00bf28"/>
 </g>
 <g stroke-width="0.566929">
  <path d="M110.976 -27.796L101.951 -28.0057L92.9011 -27.6921L83.8281 -26.8521L74.7341 -25.4827L65.6221 -23.5816L56.4954 -21.147L47.3579 -18.1776L38.2138 -14.6733L29.0677 -10.6345L19.9241 -6.0627L10.7877 -0.960214L1.66294 4.66986L-7.44607 10.8238L-16.5356 17.4972L-25.6025 24.6856L-34.6441 32.384L-43.6584 40.5876L-52.644 49.2918L-61.6 58.492L-45.3011 87.6872" stroke="#00bf28"/>
 </g>
 <g stroke-width="0.566929">
  <path d="M123.285 -24.4532L114.249 -24.6631L105.19 -24.35L96.1095 -23.5107L87.0105 -22.1426L77.896 -20.2432L68.7692 -17.8109L59.6341 -14.8444L50.4949 -11.3437L41.356 -7.30905L32.2219 -2.742L23.097 2.35528L13.9856 7.9798L4.89155 14.128L-4.18167 20.7956L-13.2311 27.9783L-22.2544 35.6713L-31.2498 43.8699L-40.2161 52.5695L-49.1526 61.7658L-31.0233 91.6388" stroke="#00bf28"/>
 </g>
 <g stroke-width="0.566929">
  <path d="M135.61 -22.2417L126.566 -22.4487L117.501 -22.1332L108.417 -21.2923L99.3167 -19.9234L90.2035 -18.0243L81.0805 -15.5934L71.9516 -12.6296L62.8209 -9.13267L53.6927 -5.1032L44.5713 -0.542476L35.4608 4.54741L26.3652 10.1636L17.2882 16.3028L8.23294 22.961L-0.797905 30.1339L-9.80218 37.8172L-18.7783 46.0063L-27.7253 54.6968L-36.6425 63.8845L-16.8081 94.2907" stroke="#00bf28"/>
 </g>
 <g stroke-width="0.566929">
  <path d="M147.962 -21.1678L138.913 -21.3693L129.846 -21.0491L120.763 -20.2046L111.665 -18.8333L102.557 -16.9332L93.4418 -14.5029L84.3226 -11.5415L75.2037 -8.04882L66.0892 -4.0253L56.983 0.527776L47.8892 5.60845L38.8113 11.2141L29.7528 17.3416L20.7165 23.9872L11.7049 31.147L2.71991 38.8169L-6.23709 46.9926L-15.1652 55.6701L-24.0641 64.8452L-2.66124 95.6457" stroke="#00bf28"/>
 </g>
 <g stroke-width="0.566929">
  <path d="M160.352 -21.2401L151.303 -21.434L142.237 -21.1074L133.157 -20.2578L124.066 -18.8829L114.967 -16.9811L105.862 -14.551L96.7555 -11.5919L87.6512 -8.10361L78.5527 -4.0867L69.4639 0.457696L60.3884 5.52775L51.3296 11.1211L42.2905 17.2347L33.2737 23.8654L24.2815 31.0095L15.3156 38.6632L6.37724 46.8225L-2.53284 55.4837L-11.4143 64.643L11.4143 95.7088" stroke="#00bf28"/>
 </g>
 <g stroke-width="0.566929">
  <path d="M-160.352 6.29418e-15L-151.912 8.62632L-143.473 16.763L-135.033 24.4101L-126.594 31.5676L-118.154 38.2354L-109.714 44.4137L-101.275 50.1023L-92.8352 55.3013L-84.3957 60.0107L-75.9561 64.2305L-67.5165 67.9607L-59.077 71.2012L-50.6374 73.9522L-42.1978 76.2135L-33.7583 77.9852L-25.3187 79.2673L-16.8791 80.0598L-8.43957 80.3626L1.25884e-14 80.1759" stroke="#00f"/>
 </g>
 <g stroke-width="0.566929">
  <path d="M160.352 -6.29418e-15L151.912 -0.186751L143.473 0.116112L135.033 0.908591L126.594 2.19068L118.154 3.96239L109.714 6.22372L101.275 8.97466L92.8352 12.2152L84.3957 15.9454L75.9561 20.1652L67.5165 24.8746L59.077 30.0736L50.6374 35.7622L42.1978 41.9404L33.7583 48.6083L25.3187 55.7658L16.8791 63.4129L8.43957 71.5496L1.25884e-14 80.1759" stroke="#00f"/>
 </g>
</svg>
