<?xml version="1.0" encoding="utf-8"?>
<svg xmlns="http://www.w3.org/2000/svg" x="-161.352pt" width="322.704pt" y="-96.8189pt" stroke-width="0.566929" viewBox="-161.352 -96.8189 322.704 193.638" stroke-miterlimit="10.000000" height="193.638pt" fill="none" version="1.1">
 <path d="M11.4143 -95.7088L2.53284 -95.8189L-6.37724 -95.4146L-15.3156 -94.4943L-24.2815 -93.0569L-33.2737 -91.1013L-42.2905 -88.6272L-51.3296 -85.6344L-60.3884 -82.1234L-69.4639 -78.095L-78.5527 -73.5506L-87.6512 -68.492L-96.7555 -62.9215L-105.862 -56.8415L-114.967 -50.2548L-124.066 -43.1644L-133.157 -35.5734L-142.237 -27.4847L-151.303 -18.9012L-160.352 -9.82575L-160.352 -9.82575L-152.522 -1.64856L-144.708 6.04138L-136.909 13.2468L-129.121 19.9707L-121.341 26.2161L-113.567 31.9859L-105.794 37.2832L-98.0193 42.1106L-90.2386 46.4708L-82.4483 50.366L-74.6446 53.798L-66.8244 56.768L-58.9843 59.2771L-51.122 61.3257L-43.235 62.9136L-35.3218 64.0403L-27.381 64.7049L-19.412 64.9063L-11.4143 64.643L-11.4143 64.643L-2.53284 55.4837L6.37724 46.8225L15.3156 38.6632L24.2815 31.0095L33.2737 23.8654L42.2905 17.2347L51.3296 11.1211L60.3884 5.52775L69.4639 0.457696L78.5527 -4.0867L87.6512 -8.10361L96.7555 -11.5919L105.862 -14.551L114.967 -16.9811L124.066 -18.8829L133.157 -20.2578L142.237 -21.1074L151.303 -21.434L160.352 -21.2401L160.352 -21.2401L152.522 -21.0605L144.708 -21.3396L136.909 -22.0749L129.121 -23.2643L121.341 -24.9059L113.567 -26.9984L105.794 -29.5412L98.0193 -32.534L90.2386 -35.9775L82.4483 -39.8726L74.6446 -44.2214L66.8244 -49.0261L58.9843 -54.2897L51.122 -60.0155L43.235 -66.2071L35.3218 -72.8684L27.381 -80.0032L19.412 -87.6154L11.4143 -95.7088" stroke="#00bf28" stroke-width="1.603518"/>
 <path d="M-160.352 9.82575L-151.303 18.9012L-142.237 27.4847L-133.157 35.5734L-124.066 43.1644L-114.967 50.2548L-105.862 56.8415L-96.7555 62.9215L-87.6512 68.492L-78.5527 73.5506L-69.4639 78.095L-60.3884 82.1234L-51.3296 85.6344L-42.2905 88.6272L-33.2737 91.1013L-24.2815 93.0569L-15.3156 94.4943L-6.37724 95.4146L2.53284 95.8189L11.4143 95.7088L11.4143 95.7088L-11.4143 64.643L-11.4143 64.643L-19.412 64.9063L-27.381 64.7049L-35.3218 64.0403L-43.235 62.9136L-51.122 61.3257L-58.9843 59.2771L-66.8244 56.768L-74.6446 53.798L-82.4483 50.366L-90.2386 46.4708L-98.0193 42.1106L-105.794 37.2832L-113.567 31.9859L-121.341 26.2161L-129.121 19.9707L-136.909 13.2468L-144.708 6.04138L-152.522 -1.64856L-160.352 -9.82575L-160.352 -9.82575L-160.352 9.82575" stroke="#00bf28" stroke-width="1.603518"/>
 <path d="M160.352 21.2401L152.522 21.0605L144.708 21.3396L136.909 22.0749L129.121 23.2643L121.341 24.9059L113.567 26.9984L105.794 29.5412L98.0193 32.534L90.2386 35.9775L82.4483 39.8726L74.6446 44.2214L66.8244 49.0261L58.9843 54.2897L51.122 60.0155L43.235 66.2071L35.3218 72.8684L27.381 80.0032L19.412 87.6154L11.4143 95.7088L11.4143 95.7088L-11.4143 64.643L-11.4143 64.643L-2.53284 55.4837L6.37724 46.8225L15.3156 38.6632L24.2815 31.0095L33.2737 23.8654L42.2905 17.2347L51.3296 11.1211L60.3884 5.52775L69.4639 0.457696L78.5527 -4.0867L87.6512 -8.10361L96.7555 -11.5919L105.862 -14.551L114.967 -16.9811L124.066 -18.8829L133.157 -20.2578L142.237 -21.1074L151.303 -21.434L160.352 -21.2401L160.352 -21.2401L160.352 21.2401" stroke="#00bf28" stroke-width="1.603518"/>
 <g stroke-width="0.566929">
  <path d="M11.4143 -95.7088L19.412 -87.6154L27.381 -80.0032L35.3218 -72.8684L43.235 -66.2071L51.122 -60.0155L58.9843 -54.2897L66.8244 -49.0261L74.6446 -44.2214L82.4483 -39.8726L90.2386 -35.9775L98.0193 -32.534L105.794 -29.5412L113.567 -26.9984L121.341 -24.9059L129.121 -23.2643L136.909 -22.0749L144.708 -21.3396L152.522 -21.0605L160.352 -21.2401L160.352 21.2401" stroke="#00bf28"/>
 </g>
 <g stroke-width="0.566929">
  <path d="M-9.72585 -95.13L-1.75465 -87.0593L6.18703 -79.4703L14.0996 -72.359L21.9841 -65.7211L29.842 -59.5521L37.6753 -53.8479L45.4865 -48.6042L53.2787 -43.8174L61.0554 -39.484L68.8205 -35.6015L76.5779 -32.1678L84.3319 -29.1815L92.0866 -26.6422L99.846 -24.5501L107.614 -22.9061L115.394 -21.7119L123.189 -20.9694L131.001 -20.6813L138.834 -20.8502L141.782 21.562" stroke="#00bf28"/>
 </g>
 <g stroke-width="0.566929">
  <path d="M-31.0233 -91.6388L-23.0806 -83.5825L-15.1678 -76.0087L-7.28404 -68.9132L0.57177 -62.2912L8.40145 -56.1382L16.2074 -50.4493L23.9925 -45.2202L31.7602 -40.4467L39.5145 -36.1252L47.2595 -32.2527L54.9997 -28.8269L62.7397 -25.8466L70.4837 -23.3112L78.236 -21.2209L86.0006 -19.5768L93.7808 -18.3808L101.58 -17.635L109.399 -17.3424L117.242 -17.506L123.285 24.4532" stroke="#00bf28"/>
 </g>
 <g stroke-width="0.566929">
  <path d="M-52.4609 -85.2239L-44.5476 -77.1715L-36.6636 -69.6026L-28.8079 -62.5128L-20.979 -55.8972L-13.1748 -49.751L-5.39252 -44.0693L2.37108 -38.8475L10.1199 -34.0811L17.858 -29.7665L25.5902 -25.9004L33.321 -22.4806L41.055 -19.5055L48.797 -16.9746L56.551 -14.8881L64.3208 -13.2473L72.1099 -12.0539L79.921 -11.3104L87.7562 -11.0196L95.6173 -11.1848L104.822 29.8907" stroke="#00bf28"/>
 </g>
 <g stroke-width="0.566929">
  <path d="M-74.0069 -75.8872L-66.1216 -67.8273L-58.2642 -60.2518L-50.4335 -53.1563L-42.6276 -46.5361L-34.8441 -40.3864L-27.0797 -34.7024L-19.331 -29.4794L-11.5939 -24.713L-3.86384 -20.3995L3.86384 -16.5357L11.5939 -13.1191L19.331 -10.1483L27.0797 -7.62266L34.8441 -5.54234L42.6276 -3.90845L50.4335 -2.72273L58.2642 -1.98755L66.1216 -1.70571L74.0069 -1.88034L86.3449 37.8685" stroke="#00bf28"/>
 </g>
 <g stroke-width="0.566929">
  <path d="M-95.6173 -63.6457L-87.7562 -55.5672L-79.921 -47.9739L-72.1099 -40.8617L-64.3208 -34.2262L-56.551 -28.0629L-48.797 -22.3671L-41.055 -17.1344L-33.321 -12.3607L-25.5902 -8.04239L-17.858 -4.17632L-10.1199 -0.760182L-2.37108 2.20758L5.39252 4.72767L13.1748 6.79999L20.979 8.42367L28.8079 9.59717L36.6636 10.3184L44.5476 10.5847L52.4609 10.3934L67.8029 48.4005" stroke="#00bf28"/>
 </g>
 <g stroke-width="0.566929">
  <path d="M-117.242 -48.5293L-109.399 -40.4231L-101.58 -32.8028L-93.7808 -25.6648L-86.0006 -19.005L-78.236 -12.8194L-70.4837 -7.10379L-62.7397 -1.85415L-54.9997 2.93325L-47.2595 7.26179L-39.5145 11.1343L-31.7602 14.553L-23.9925 17.5194L-16.2074 20.0344L-8.40145 22.0979L-0.57177 23.7094L7.28404 24.8676L15.1678 25.5708L23.0806 25.817L31.0233 25.6035L49.1526 61.5195" stroke="#00bf28"/>
 </g>
 <g stroke-width="0.566929">
  <path d="M-138.834 -30.5761L-131.001 -22.4359L-123.189 -14.7824L-115.394 -7.61224L-107.614 -0.922002L-99.846 5.2919L-92.0866 11.0331L-84.3319 16.305L-76.5779 21.1109L-68.8205 25.4539L-61.0554 29.3364L-53.2787 32.7605L-45.4865 35.7277L-37.6753 38.2387L-29.842 40.2939L-21.9841 41.8929L-14.0996 43.0349L-6.18703 43.7185L1.75465 43.9421L9.72585 43.7038L30.3621 77.2719" stroke="#00bf28"/>
 </g>
 <g stroke-width="0.566929">
  <path d="M-160.352 -9.82575L-152.522 -1.64856L-144.708 6.04138L-136.909 13.2468L-129.121 19.9707L-121.341 26.2161L-113.567 31.9859L-105.794 37.2832L-98.0193 42.1106L-90.2386 46.4708L-82.4483 50.366L-74.6446 53.798L-66.8244 56.768L-58.9843 59.2771L-51.122 61.3257L-43.235 62.9136L-35.3218 64.0403L-27.381 64.7049L-19.412 64.9063L-11.4143 64.643L11.4143 95.7088" stroke="#00bf28"/>
 </g>
 <g stroke-width="0.566929">
  <path d="M11.4143 -95.7088L2.53284 -95.8189L-6.37724 -95.4146L-15.3156 -94.4943L-24.2815 -93.0569L-33.2737 -91.1013L-42.2905 -88.6272L-51.3296 -85.6344L-60.3884 -82.1234L-69.4639 -78.095L-78.5527 -73.5506L-87.6512 -68.492L-96.7555 -62.9215L-105.862 -56.8415L-114.967 -50.2548L-124.066 -43.1644L-133.157 -35.5734L-142.237 -27.4847L-151.303 -18.9012L-160.352 -9.82575L-160.352 9.82575" stroke="#00bf28"/>
 </g>
 <g stroke-width="0.566929">
  <path d="M30.3621 -77.2719L21.4542 -77.407L12.5167 -77.0249L3.55018 -76.1236L-5.44446 -74.7014L-14.4657 -72.757L-23.5116 -70.2895L-32.5795 -67.2987L-41.6664 -63.7847L-50.7689 -59.7485L-59.8829 -55.1915L-69.0047 -50.1156L-78.1298 -44.5235L-87.2542 -38.4182L-96.3739 -31.8029L-105.485 -24.6811L-114.584 -17.0563L-123.668 -8.93232L-132.735 -0.31243L-141.782 8.80005L-138.834 30.5761" stroke="#00bf28"/>
 </g>
 <g stroke-width="0.566929">
  <path d="M49.1526 -61.5195L40.2161 -61.6796L31.2498 -61.3199L22.2544 -60.4382L13.2311 -59.0323L4.18167 -57.1003L-4.89155 -54.6412L-13.9856 -51.6543L-23.097 -48.1396L-32.2219 -44.098L-41.356 -39.5309L-50.4949 -34.4406L-59.6341 -28.83L-68.7692 -22.7024L-77.896 -16.0615L-87.0105 -8.91144L-96.1095 -1.25626L-105.19 6.89989L-114.249 15.553L-123.285 24.6995L-117.242 48.5293" stroke="#00bf28"/>
 </g>
 <g stroke-width="0.566929">
  <path d="M67.8029 -48.4005L58.8371 -48.5826L49.842 -48.2432L40.8186 -47.3795L31.7683 -45.9888L22.6934 -44.0691L13.5965 -41.6187L4.48098 -38.637L-4.64939 -35.1236L-13.7903 -31.0794L-22.9373 -26.5059L-32.0857 -21.4055L-41.2307 -15.7811L-50.3679 -9.63651L-59.4931 -2.97582L-68.6023 4.19654L-77.6924 11.876L-86.7604 20.058L-95.8043 28.7381L-104.822 37.9122L-95.6173 63.6457" stroke="#00bf28"/>
 </g>
 <g stroke-width="0.566929">
  <path d="M86.3449 -37.8685L77.351 -38.0673L68.3293 -37.7435L59.2808 -36.8937L50.2076 -35.5152L41.112 -33.6057L31.9972 -31.1634L22.8668 -28.1872L13.7248 -24.6768L4.57573 -20.6331L-4.57573 -16.0573L-13.7248 -10.952L-22.8668 -5.32037L-31.9972 0.833876L-41.112 7.50635L-50.2076 14.6924L-59.2808 22.3871L-68.3293 30.5858L-77.351 39.2837L-86.3449 48.4764L-74.0069 75.8872" stroke="#00bf28"/>
 </g>
 <g stroke-width="0.566929">
  <path d="M104.822 -29.8907L95.8043 -30.099L86.7604 -29.784L77.6924 -28.9426L68.6023 -27.5718L59.4931 -25.6692L50.3679 -23.233L41.2307 -20.2621L32.0857 -16.7561L22.9373 -12.7156L13.7903 -8.14208L4.64939 -3.03792L-4.48098 2.59378L-13.5965 8.74921L-22.6934 15.424L-31.7683 22.6135L-40.8186 30.3129L-49.842 38.5172L-58.8371 47.2217L-67.8029 56.422L-52.4609 85.2239" stroke="#00bf28"/>
 </g>
 <g stroke-width="0.566929">
  <path d="M123.285 -24.4532L114.249 -24.6631L105.19 -24.35L96.1095 -23.5107L87.0105 -22.1426L77.896 -20.2432L68.7692 -17.8109L59.6341 -14.8444L50.4949 -11.3437L41.356 -7.30905L32.2219 -2.742L23.097 2.35528L13.9856 7.9798L4.89155 14.128L-4.18167 20.7956L-13.2311 27.9783L-22.2544 35.6713L-31.2498 43.8699L-40.2161 52.5695L-49.1526 61.7658L-31.0233 91.6388" stroke="#00bf28"/>
 </g>
 <g stroke-width="0.566929">
  <path d="M141.782 -21.562L132.735 -21.7666L123.668 -21.449L114.584 -20.6065L105.485 -19.2366L96.3739 -17.3371L87.2542 -14.9066L78.1298 -11.944L69.0047 -8.44919L59.8829 -4.4226L50.7689 0.134446L41.6664 5.21992L32.5795 10.8311L23.5116 16.9647L14.4657 23.617L5.44446 30.7837L-3.55018 38.4607L-12.5167 46.6436L-21.4542 55.328L-30.3621 64.5099L-9.72585 95.13" stroke="#00bf28"/>
 </g>
 <g stroke-width="0.566929">
  <path d="M160.352 -21.2401L151.303 -21.434L142.237 -21.1074L133.157 -20.2578L124.066 -18.8829L114.967 -16.9811L105.862 -14.551L96.7555 -11.5919L87.6512 -8.10361L78.5527 -4.0867L69.4639 0.457696L60.3884 5.52775L51.3296 11.1211L42.2905 17.2347L33.2737 23.8654L24.2815 31.0095L15.3156 38.6632L6.37724 46.8225L-2.53284 55.4837L-11.4143 64.643L11.4143 95.7088" stroke="#00bf28"/>
 </g>
 <g stroke-width="0.566929">
  <path d="M-160.352 6.29418e-15L-151.912 8.62632L-143.473 16.763L-135.033 24.4101L-126.594 31.5676L-118.154 38.2354L-109.714 44.4137L-101.275 50.1023L-92.8352 55.3013L-84.3957 60.0107L-75.9561 64.2305L-67.5165 67.9607L-59.077 71.2012L-50.6374 73.9522L-42.1978 76.2135L-33.7583 77.9852L-25.3187 79.2673L-16.8791 80.0598L-8.43957 80.3626L1.25884e-14 80.1759" stroke="#00f"/>
 </g>
 <g stroke-width="0.566929">
  <path d="M160.352 -6.29418e-15L151.912 -0.186751L143.473 0.116112L135.033 0.908591L126.594 2.19068L118.154 3.96239L109.714 6.22372L101.275 8.97466L92.8352 12.2152L84.3957 15.9454L75.9561 20.1652L67.5165 24.8746L59.077 30.0736L50.6374 35.7622L42.1978 41.9404L33.7583 48.6083L25.3187 55.7658L16.8791 63.4129L8.43957 71.5496L1.25884e-14 80.1759" stroke="#00f"/>
 </g>
</svg>
