<?xml version="1.0" encoding="utf-8"?>
<svg xmlns="http://www.w3.org/2000/svg" height="193.638pt" stroke-width="0.566929" fill="none" viewBox="-161.352 -96.8189 322.704 193.638" y="-96.8189pt" version="1.1" width="322.704pt" stroke-miterlimit="10.000000" x="-161.352pt">
 <path d="M-1.25884e-14 -80.1759L-8.43957 -80.3626L-16.8791 -80.0598L-25.3187 -79.2673L-33.7583 -77.9852L-42.1978 -76.2135L-50.6374 -73.9522L-59.077 -71.2012L-67.5165 -67.9607L-75.9561 -64.2305L-84.3957 -60.0107L-92.8352 -55.3013L-101.275 -50.1023L-109.714 -44.4137L-118.154 -38.2354L-126.594 -31.5676L-135.033 -24.4101L-143.473 -16.763L-151.912 -8.62632L-160.352 6.29418e-15L-160.352 6.29418e-15L-151.912 8.62632L-143.473 16.763L-135.033 24.4101L-126.594 31.5676L-118.154 38.2354L-109.714 44.4137L-101.275 50.1023L-92.8352 55.3013L-84.3957 60.0107L-75.9561 64.2305L-67.5165 67.9607L-59.077 71.2012L-50.6374 73.9522L-42.1978 76.2135L-33.7583 77.9852L-25.3187 79.2673L-16.8791 80.0598L-8.43957 80.3626L1.25884e-14 80.1759L1.25884e-14 80.1759L8.43957 71.5496L16.8791 63.4129L25.3187 55.7658L33.7583 48.6083L42.1978 41.9404L50.6374 35.7622L59.077 30.0736L67.5165 24.8746L75.9561 20.1652L84.3957 15.9454L92.8352 12.2152L101.275 8.97466L109.714 6.22372L118.154 3.96239L126.594 2.19068L135.033 0.908591L143.473 0.116112L151.912 -0.186751L160.352 -6.29418e-15L160.352 -6.29418e-15L151.912 0.186751L143.473 -0.116112L135.033 -0.908591L126.594 -2.19068L118.154 -3.96239L109.714 -6.22372L101.275 -8.97466L92.8352 -12.2152L84.3957 -15.9454L75.9561 -20.1652L67.5165 -24.8746L59.077 -30.0736L50.6374 -35.7622L42.1978 -41.9404L33.7583 -48.6083L25.3187 -55.7658L16.8791 -63.4129L8.43957 -71.5496L-1.25884e-14 -80.1759L-40.0879 25.5674L-45.9994 21.8083L-50.7194 17.0809L-54.1259 11.5708L-56.1305 5.51947L-56.6814 -0.793222L-55.7643 -7.06824L-53.4029 -13.0093L-49.6584 -18.3444L-44.6277 -22.8448L-38.4413 -26.3404L-31.2592 -28.7297L-23.2675 -29.9835L-14.6732 -30.1423L-5.69889 -29.3077L3.42303 -27.629L12.4563 -25.2859L21.1669 -22.4704L29.3294 -19.3676L36.7322 -16.1399L43.1837 -12.9142L48.5167 -9.7739L52.5932 -6.75723L55.3076 -3.86028L56.5895 -1.04574L56.4058 1.74461L54.7611 4.57487L51.6983 7.49937L47.2964 10.5481L41.6696 13.7151L34.9636 16.9509L27.352 20.1608L19.0321 23.2081L10.2192 25.9235L1.14163 28.1183L-7.96549 29.602L-16.8663 30.2006L-25.3303 29.7754L-33.1383 28.2389L-40.0879 25.5674" opacity="0.150000" fill="#00f"/>
 <path d="M-11.4143 -64.643L-19.412 -64.9063L-27.381 -64.7049L-35.3218 -64.0403L-43.235 -62.9136L-51.122 -61.3257L-58.9843 -59.2771L-66.8244 -56.768L-74.6446 -53.798L-82.4483 -50.366L-90.2386 -46.4708L-98.0193 -42.1106L-105.794 -37.2832L-113.567 -31.9859L-121.341 -26.2161L-129.121 -19.9707L-136.909 -13.2468L-144.708 -6.04138L-152.522 1.64856L-160.352 9.82575L-160.352 9.82575L-151.303 18.9012L-142.237 27.4847L-133.157 35.5734L-124.066 43.1644L-114.967 50.2548L-105.862 56.8415L-96.7555 62.9215L-87.6512 68.492L-78.5527 73.5506L-69.4639 78.095L-60.3884 82.1234L-51.3296 85.6344L-42.2905 88.6272L-33.2737 91.1013L-24.2815 93.0569L-15.3156 94.4943L-6.37724 95.4146L2.53284 95.8189L11.4143 95.7088L11.4143 95.7088L19.412 87.6154L27.381 80.0032L35.3218 72.8684L43.235 66.2071L51.122 60.0155L58.9843 54.2897L66.8244 49.0261L74.6446 44.2214L82.4483 39.8726L90.2386 35.9775L98.0193 32.534L105.794 29.5412L113.567 26.9984L121.341 24.9059L129.121 23.2643L136.909 22.0749L144.708 21.3396L152.522 21.0605L160.352 21.2401L160.352 21.2401L151.303 21.434L142.237 21.1074L133.157 20.2578L124.066 18.8829L114.967 16.9811L105.862 14.551L96.7555 11.5919L87.6512 8.10361L78.5527 4.0867L69.4639 -0.457696L60.3884 -5.52775L51.3296 -11.1211L42.2905 -17.2347L33.2737 -23.8654L24.2815 -31.0095L15.3156 -38.6632L6.37724 -46.8225L-2.53284 -55.4837L-11.4143 -64.643L-36.788 41.88L-43.2715 37.8776L-48.6343 32.9558L-52.7375 27.3056L-55.4748 21.1717L-56.7754 14.8364L-56.6055 8.59908L-54.9695 2.75519L-51.9099 -2.42576L-47.5058 -6.71907L-41.8714 -9.96005L-35.1525 -12.0538L-27.5231 -12.9787L-19.181 -12.7837L-10.342 -11.5798L-1.23525 -9.52557L7.90354 -6.81073L16.8376 -3.63667L25.3356 -0.197922L33.1775 3.33444L40.16 6.82571L46.1024 10.1855L50.8508 13.3699L54.2822 16.3786L56.3077 19.2459L56.8749 22.0287L55.969 24.7913L53.6136 27.5897L49.8696 30.4573L44.834 33.3926L38.6372 36.3524L31.4398 39.2491L23.428 41.954L14.8095 44.3066L5.80748 46.1278L-3.34499 47.2366L-12.4108 47.469L-21.1552 46.6954L-29.3517 44.8375L-36.788 41.88" opacity="0.150000" fill="#00bf28"/>
 <path d="M11.4143 -95.7088L2.53284 -95.8189L-6.37724 -95.4146L-15.3156 -94.4943L-24.2815 -93.0569L-33.2737 -91.1013L-42.2905 -88.6272L-51.3296 -85.6344L-60.3884 -82.1234L-69.4639 -78.095L-78.5527 -73.5506L-87.6512 -68.492L-96.7555 -62.9215L-105.862 -56.8415L-114.967 -50.2548L-124.066 -43.1644L-133.157 -35.5734L-142.237 -27.4847L-151.303 -18.9012L-160.352 -9.82575L-160.352 -9.82575L-152.522 -1.64856L-144.708 6.04138L-136.909 13.2468L-129.121 19.9707L-121.341 26.2161L-113.567 31.9859L-105.794 37.2832L-98.0193 42.1106L-90.2386 46.4708L-82.4483 50.366L-74.6446 53.798L-66.8244 56.768L-58.9843 59.2771L-51.122 61.3257L-43.235 62.9136L-35.3218 64.0403L-27.381 64.7049L-19.412 64.9063L-11.4143 64.643L-11.4143 64.643L-2.53284 55.4837L6.37724 46.8225L15.3156 38.6632L24.2815 31.0095L33.2737 23.8654L42.2905 17.2347L51.3296 11.1211L60.3884 5.52775L69.4639 0.457696L78.5527 -4.0867L87.6512 -8.10361L96.7555 -11.5919L105.862 -14.551L114.967 -16.9811L124.066 -18.8829L133.157 -20.2578L142.237 -21.1074L151.303 -21.434L160.352 -21.2401L160.352 -21.2401L152.522 -21.0605L144.708 -21.3396L136.909 -22.0749L129.121 -23.2643L121.341 -24.9059L113.567 -26.9984L105.794 -29.5412L98.0193 -32.534L90.2386 -35.9775L82.4483 -39.8726L74.6446 -44.2214L66.8244 -49.0261L58.9843 -54.2897L51.122 -60.0155L43.235 -66.2071L35.3218 -72.8684L27.381 -80.0032L19.412 -87.6154L11.4143 -95.7088L-43.3879 9.2549L-48.7272 5.73911L-52.8046 1.20589L-55.5143 -4.16391L-56.7862 -10.1328L-56.5874 -16.4228L-54.9231 -22.7356L-51.8362 -28.7738L-47.4068 -34.263L-41.7496 -38.9705L-35.0111 -42.7207L-27.3659 -45.4056L-19.0118 -46.9884L-10.1654 -47.5009L-1.05573 -47.0357L8.08131 -45.7323L17.0091 -43.7611L25.4963 -41.3041L33.3231 -38.5372L40.287 -35.6142L46.2074 -32.654L50.931 -29.7333L54.3356 -26.8844L56.3329 -24.0992L56.8713 -21.3374L55.9366 -18.5395L53.5533 -15.6415L49.7829 -12.591L44.7232 -9.36104L38.5052 -5.96249L31.29 -2.45066L23.2643 1.07253L14.6361 4.46231L5.62883 7.54038L-3.52422 10.1088L-12.586 11.9673L-21.3218 12.9323L-29.5054 12.8555L-36.9248 11.6403L-43.3879 9.2549" opacity="0.150000" fill="#00bf28"/>
 <path d="M-40.0879 25.5674L-45.9994 21.8083L-50.7194 17.0809L-54.1259 11.5708L-56.1305 5.51947L-56.6814 -0.793222L-55.7643 -7.06824L-53.4029 -13.0093L-49.6584 -18.3444L-44.6277 -22.8448L-38.4413 -26.3404L-31.2592 -28.7297L-23.2675 -29.9835L-14.6732 -30.1423L-5.69889 -29.3077L3.42303 -27.629L12.4563 -25.2859L21.1669 -22.4704L29.3294 -19.3676L36.7322 -16.1399L43.1837 -12.9142L48.5167 -9.7739L52.5932 -6.75723L55.3076 -3.86028L56.5895 -1.04574L56.4058 1.74461L54.7611 4.57487L51.6983 7.49937L47.2964 10.5481L41.6696 13.7151L34.9636 16.9509L27.352 20.1608L19.0321 23.2081L10.2192 25.9235L1.14163 28.1183L-7.96549 29.602L-16.8663 30.2006L-25.3303 29.7754L-33.1383 28.2389L-40.0879 25.5674Z" opacity="0.500000" fill="#00f"/>
 <path d="M-43.3879 9.2549L-48.7272 5.73911L-52.8046 1.20589L-55.5143 -4.16391L-56.7862 -10.1328L-56.5874 -16.4228L-54.9231 -22.7356L-51.8362 -28.7738L-47.4068 -34.263L-41.7496 -38.9705L-35.0111 -42.7207L-27.3659 -45.4056L-19.0118 -46.9884L-10.1654 -47.5009L-1.05573 -47.0357L8.08131 -45.7323L17.0091 -43.7611L25.4963 -41.3041L33.3231 -38.5372L40.287 -35.6142L46.2074 -32.654L50.931 -29.7333L54.3356 -26.8844L56.3329 -24.0992L56.8713 -21.3374L55.9366 -18.5395L53.5533 -15.6415L49.7829 -12.591L44.7232 -9.36104L38.5052 -5.96249L31.29 -2.45066L23.2643 1.07253L14.6361 4.46231L5.62883 7.54038L-3.52422 10.1088L-12.586 11.9673L-21.3218 12.9323L-29.5054 12.8555L-36.9248 11.6403L-43.3879 9.2549Z" opacity="0.500000" fill="#00bf28"/>
 <path d="M-36.788 41.88L-43.2715 37.8776L-48.6343 32.9558L-52.7375 27.3056L-55.4748 21.1717L-56.7754 14.8364L-56.6055 8.59908L-54.9695 2.75519L-51.9099 -2.42576L-47.5058 -6.71907L-41.8714 -9.96005L-35.1525 -12.0538L-27.5231 -12.9787L-19.181 -12.7837L-10.342 -11.5798L-1.23525 -9.52557L7.90354 -6.81073L16.8376 -3.63667L25.3356 -0.197922L33.1775 3.33444L40.16 6.82571L46.1024 10.1855L50.8508 13.3699L54.2822 16.3786L56.3077 19.2459L56.8749 22.0287L55.969 24.7913L53.6136 27.5897L49.8696 30.4573L44.834 33.3926L38.6372 36.3524L31.4398 39.2491L23.428 41.954L14.8095 44.3066L5.80748 46.1278L-3.34499 47.2366L-12.4108 47.469L-21.1552 46.6954L-29.3517 44.8375L-36.788 41.88Z" opacity="0.500000" fill="#00bf28"/>
</svg>
