<?xml version="1.0" encoding="UTF-8" standalone="no"?>
<!-- Created with Inkscape (http://www.inkscape.org/) -->

<svg
   xmlns:dc="http://purl.org/dc/elements/1.1/"
   xmlns:cc="http://creativecommons.org/ns#"
   xmlns:rdf="http://www.w3.org/1999/02/22-rdf-syntax-ns#"
   xmlns:svg="http://www.w3.org/2000/svg"
   xmlns="http://www.w3.org/2000/svg"
   xmlns:sodipodi="http://sodipodi.sourceforge.net/DTD/sodipodi-0.dtd"
   xmlns:inkscape="http://www.inkscape.org/namespaces/inkscape"
   version="1.1"
   id="svg10"
   xml:space="preserve"
   width="435.86667"
   height="322.66666"
   viewBox="0 0 435.86667 322.66664"
   sodipodi:docname="adjacent_neighbors.svg"
   inkscape:version="0.92.2 (5c3e80d, 2017-08-06)"><metadata
     id="metadata16"><rdf:RDF><cc:Work
         rdf:about=""><dc:format>image/svg+xml</dc:format><dc:type
           rdf:resource="http://purl.org/dc/dcmitype/StillImage" /><dc:title></dc:title></cc:Work></rdf:RDF></metadata><defs
     id="defs14"><clipPath
       clipPathUnits="userSpaceOnUse"
       id="clipPath26"><path
         d="M 0,0.1 H 595.2 V 841.9 H 0 Z"
         id="path24"
         inkscape:connector-curvature="0"
         style="clip-rule:evenodd" /></clipPath><clipPath
       clipPathUnits="userSpaceOnUse"
       id="clipPath34"><path
         d="m 56.7,771.2 h 481.8 v 14.1 H 56.7 Z"
         id="path32"
         inkscape:connector-curvature="0"
         style="clip-rule:evenodd" /></clipPath><clipPath
       clipPathUnits="userSpaceOnUse"
       id="clipPath48"><path
         d="M 56.7,56.8 H 538.5 V 70.9 H 56.7 Z"
         id="path46"
         inkscape:connector-curvature="0"
         style="clip-rule:evenodd" /></clipPath></defs><sodipodi:namedview
     pagecolor="#ffffff"
     bordercolor="#666666"
     borderopacity="1"
     objecttolerance="10"
     gridtolerance="10"
     guidetolerance="10"
     inkscape:pageopacity="0"
     inkscape:pageshadow="2"
     inkscape:window-width="1366"
     inkscape:window-height="706"
     id="namedview12"
     showgrid="false"
     inkscape:zoom="1.3579472"
     inkscape:cx="322.13333"
     inkscape:cy="188.15182"
     inkscape:window-x="-8"
     inkscape:window-y="-8"
     inkscape:window-maximized="1"
     inkscape:current-layer="g18" /><g
     id="g18"
     inkscape:groupmode="layer"
     inkscape:label="adjacent_neighbors"
     transform="matrix(1.3333333,0,0,-1.3333333,-74.533331,1019.8666)"><g
       id="g20"><g
         id="g22"
         clip-path="url(#clipPath26)" /></g><g
       id="g28"><g
         id="g30"
         clip-path="url(#clipPath34)"><g
           id="g36" /><g
           id="g38" /><g
           id="g40" /></g></g><g
       id="g42"><g
         id="g44"
         clip-path="url(#clipPath48)"><g
           id="g50" /><g
           id="g52" /><g
           id="g54" /></g></g><path
       d="m 56.7,750 h 14.1 v 14.2 H 56.7 Z"
       style="fill:#fc5c00;fill-opacity:1;fill-rule:evenodd;stroke:none"
       id="path56"
       inkscape:connector-curvature="0" /><path
       d="m 70.7,750 h 14.2 v 14.2 H 70.7 Z"
       style="fill:#00a0fc;fill-opacity:1;fill-rule:evenodd;stroke:none"
       id="path58"
       inkscape:connector-curvature="0" /><path
       d="m 183.9,750 h 14.2 v 14.2 h -14.2 z"
       style="fill:#00a0fc;fill-opacity:1;fill-rule:evenodd;stroke:none"
       id="path60"
       inkscape:connector-curvature="0" /><path
       d="m 198,750 h 14.2 v 14.2 H 198 Z"
       style="fill:#fc5c00;fill-opacity:1;fill-rule:evenodd;stroke:none"
       id="path62"
       inkscape:connector-curvature="0" /><path
       d="m 56.7,735.9 h 14.1 v 14.2 H 56.7 Z"
       style="fill:#00a0fc;fill-opacity:1;fill-rule:evenodd;stroke:none"
       id="path64"
       inkscape:connector-curvature="0" /><path
       d="m 198,735.9 h 14.2 v 14.2 H 198 Z"
       style="fill:#00a0fc;fill-opacity:1;fill-rule:evenodd;stroke:none"
       id="path66"
       inkscape:connector-curvature="0" /><path
       d="m 226.3,707.6 h 14.2 v 14.2 h -14.2 z"
       style="fill:#00a0fc;fill-opacity:1;fill-rule:evenodd;stroke:none"
       id="path68"
       inkscape:connector-curvature="0" /><path
       d="M 367.8,707.6 H 382 v 14.2 h -14.2 z"
       style="fill:#00a0fc;fill-opacity:1;fill-rule:evenodd;stroke:none"
       id="path70"
       inkscape:connector-curvature="0" /><path
       d="m 226.3,693.4 h 14.2 v 14.2 h -14.2 z"
       style="fill:#fc5c00;fill-opacity:1;fill-rule:evenodd;stroke:none"
       id="path72"
       inkscape:connector-curvature="0" /><path
       d="m 240.5,693.4 h 14.2 v 14.2 h -14.2 z"
       style="fill:#00a0fc;fill-opacity:1;fill-rule:evenodd;stroke:none"
       id="path74"
       inkscape:connector-curvature="0" /><path
       d="m 353.6,693.4 h 14.2 v 14.2 h -14.2 z"
       style="fill:#00a0fc;fill-opacity:1;fill-rule:evenodd;stroke:none"
       id="path76"
       inkscape:connector-curvature="0" /><path
       d="M 367.8,693.4 H 382 v 14.2 h -14.2 z"
       style="fill:#fc5c00;fill-opacity:1;fill-rule:evenodd;stroke:none"
       id="path78"
       inkscape:connector-curvature="0" /><path
       d="m 240.5,665.1 h 14.2 v 14.2 h -14.2 z"
       style="fill:#00a0fc;fill-opacity:1;fill-rule:evenodd;stroke:none"
       id="path80"
       inkscape:connector-curvature="0" /><path
       d="m 254.6,665.1 h 14.2 v 14.2 h -14.2 z"
       style="fill:#fc5c00;fill-opacity:1;fill-rule:evenodd;stroke:none"
       id="path82"
       inkscape:connector-curvature="0" /><path
       d="M 268.8,665.1 H 283 v 14.2 h -14.2 z"
       style="fill:#00a0fc;fill-opacity:1;fill-rule:evenodd;stroke:none"
       id="path84"
       inkscape:connector-curvature="0" /><path
       d="m 56.7,651 h 14.1 v 14.2 H 56.7 Z"
       style="fill:#00a0fc;fill-opacity:1;fill-rule:evenodd;stroke:none"
       id="path86"
       inkscape:connector-curvature="0" /><path
       d="m 198,651 h 14.2 v 14.2 H 198 Z"
       style="fill:#00a0fc;fill-opacity:1;fill-rule:evenodd;stroke:none"
       id="path88"
       inkscape:connector-curvature="0" /><path
       d="m 254.6,651 h 14.2 v 14.2 h -14.2 z"
       style="fill:#00a0fc;fill-opacity:1;fill-rule:evenodd;stroke:none"
       id="path90"
       inkscape:connector-curvature="0" /><path
       d="m 56.7,636.9 h 14.1 v 14.2 H 56.7 Z"
       style="fill:#fc5c00;fill-opacity:1;fill-rule:evenodd;stroke:none"
       id="path92"
       inkscape:connector-curvature="0" /><path
       d="m 70.7,636.9 h 14.2 v 14.2 H 70.7 Z"
       style="fill:#00a0fc;fill-opacity:1;fill-rule:evenodd;stroke:none"
       id="path94"
       inkscape:connector-curvature="0" /><path
       d="m 183.9,636.9 h 14.2 v 14.2 h -14.2 z"
       style="fill:#00a0fc;fill-opacity:1;fill-rule:evenodd;stroke:none"
       id="path96"
       inkscape:connector-curvature="0" /><path
       d="m 198,636.9 h 14.2 v 14.2 H 198 Z"
       style="fill:#fc5c00;fill-opacity:1;fill-rule:evenodd;stroke:none"
       id="path98"
       inkscape:connector-curvature="0" /><path
       d="m 56.7,622.7 h 14.1 v 14.2 H 56.7 Z"
       style="fill:#00a0fc;fill-opacity:1;fill-rule:evenodd;stroke:none"
       id="path100"
       inkscape:connector-curvature="0" /><path
       d="m 198,622.7 h 14.2 v 14.2 H 198 Z"
       style="fill:#00a0fc;fill-opacity:1;fill-rule:evenodd;stroke:none"
       id="path102"
       inkscape:connector-curvature="0" /><path
       d="m 339.5,622.7 h 14.2 v 14.2 h -14.2 z"
       style="fill:#00a0fc;fill-opacity:1;fill-rule:evenodd;stroke:none"
       id="path104"
       inkscape:connector-curvature="0" /><path
       d="m 325.3,608.6 h 14.2 v 14.2 h -14.2 z"
       style="fill:#00a0fc;fill-opacity:1;fill-rule:evenodd;stroke:none"
       id="path106"
       inkscape:connector-curvature="0" /><path
       d="m 339.5,608.6 h 14.2 v 14.2 h -14.2 z"
       style="fill:#fc5c00;fill-opacity:1;fill-rule:evenodd;stroke:none"
       id="path108"
       inkscape:connector-curvature="0" /><path
       d="m 353.6,608.6 h 14.2 v 14.2 h -14.2 z"
       style="fill:#00a0fc;fill-opacity:1;fill-rule:evenodd;stroke:none"
       id="path110"
       inkscape:connector-curvature="0" /><path
       d="m 84.9,566.1 h 14.2 v 14.2 H 84.9 Z"
       style="fill:#00a0fc;fill-opacity:1;fill-rule:evenodd;stroke:none"
       id="path112"
       inkscape:connector-curvature="0" /><path
       d="m 70.7,552 h 14.2 v 14.2 H 70.7 Z"
       style="fill:#00a0fc;fill-opacity:1;fill-rule:evenodd;stroke:none"
       id="path114"
       inkscape:connector-curvature="0" /><path
       d="m 84.9,552 h 14.2 v 14.2 H 84.9 Z"
       style="fill:#fc5c00;fill-opacity:1;fill-rule:evenodd;stroke:none"
       id="path116"
       inkscape:connector-curvature="0" /><path
       d="m 99,552 h 14.2 v 14.2 H 99 Z"
       style="fill:#00a0fc;fill-opacity:1;fill-rule:evenodd;stroke:none"
       id="path118"
       inkscape:connector-curvature="0" /><path
       d="M 84.9,537.8 H 99.1 V 552 H 84.9 Z"
       style="fill:#00a0fc;fill-opacity:1;fill-rule:evenodd;stroke:none"
       id="path120"
       inkscape:connector-curvature="0" /><path
       d="m 127.4,764.1 -0.8,-0.8 H 57.4 l -0.7,0.8 -0.8,0.8 h 72.3 z"
       style="fill:#000000;fill-opacity:1;fill-rule:evenodd;stroke:none"
       id="path122"
       inkscape:connector-curvature="0" /><path
       d="m 212.3,764.1 -0.8,-0.8 h -69.2 l -0.8,0.8 -0.7,0.8 H 213 Z"
       style="fill:#000000;fill-opacity:1;fill-rule:evenodd;stroke:none"
       id="path124"
       inkscape:connector-curvature="0" /><path
       d="m 297.1,764.1 -0.7,-0.8 h -69.2 l -0.8,0.8 -0.8,0.8 h 72.3 z"
       style="fill:#000000;fill-opacity:1;fill-rule:evenodd;stroke:none"
       id="path126"
       inkscape:connector-curvature="0" /><path
       d="m 382,764.1 -0.8,-0.8 H 312 l -0.7,0.8 -0.8,0.8 h 72.3 z"
       style="fill:#000000;fill-opacity:1;fill-rule:evenodd;stroke:none"
       id="path128"
       inkscape:connector-curvature="0" /><path
       d="m 127.4,750 -0.8,-0.3 H 57.5 l -0.8,0.3 0.8,0.2 h 69.1 z"
       style="fill:#000000;fill-opacity:1;fill-rule:evenodd;stroke:none"
       id="path130"
       inkscape:connector-curvature="0" /><path
       d="m 212.3,750 -0.8,-0.3 h -69.2 l -0.8,0.3 0.8,0.2 h 69.2 z"
       style="fill:#000000;fill-opacity:1;fill-rule:evenodd;stroke:none"
       id="path132"
       inkscape:connector-curvature="0" /><path
       d="m 297.1,750 -0.8,-0.3 h -69.1 l -0.8,0.3 0.8,0.2 h 69.1 z"
       style="fill:#000000;fill-opacity:1;fill-rule:evenodd;stroke:none"
       id="path134"
       inkscape:connector-curvature="0" /><path
       d="m 382,750 -0.8,-0.3 h -69.1 l -0.8,0.3 0.8,0.2 h 69.1 z"
       style="fill:#000000;fill-opacity:1;fill-rule:evenodd;stroke:none"
       id="path136"
       inkscape:connector-curvature="0" /><path
       d="m 127.4,735.8 -0.8,-0.2 H 57.5 l -0.8,0.2 0.8,0.3 h 69.1 z"
       style="fill:#000000;fill-opacity:1;fill-rule:evenodd;stroke:none"
       id="path138"
       inkscape:connector-curvature="0" /><path
       d="m 212.3,735.8 -0.8,-0.2 h -69.2 l -0.8,0.2 0.8,0.3 h 69.2 z"
       style="fill:#000000;fill-opacity:1;fill-rule:evenodd;stroke:none"
       id="path140"
       inkscape:connector-curvature="0" /><path
       d="m 297.1,735.8 -0.8,-0.2 h -69.1 l -0.8,0.2 0.8,0.3 h 69.1 z"
       style="fill:#000000;fill-opacity:1;fill-rule:evenodd;stroke:none"
       id="path142"
       inkscape:connector-curvature="0" /><path
       d="m 382,735.8 -0.8,-0.2 h -69.1 l -0.8,0.2 0.8,0.3 h 69.1 z"
       style="fill:#000000;fill-opacity:1;fill-rule:evenodd;stroke:none"
       id="path144"
       inkscape:connector-curvature="0" /><path
       d="m 127.4,721.7 -0.8,-0.3 H 57.5 l -0.8,0.3 0.8,0.2 h 69.1 z"
       style="fill:#000000;fill-opacity:1;fill-rule:evenodd;stroke:none"
       id="path146"
       inkscape:connector-curvature="0" /><path
       d="m 212.3,721.7 -0.8,-0.3 h -69.2 l -0.8,0.3 0.8,0.2 h 69.2 z"
       style="fill:#000000;fill-opacity:1;fill-rule:evenodd;stroke:none"
       id="path148"
       inkscape:connector-curvature="0" /><path
       d="m 297.1,721.7 -0.8,-0.3 h -69.1 l -0.8,0.3 0.8,0.2 h 69.1 z"
       style="fill:#000000;fill-opacity:1;fill-rule:evenodd;stroke:none"
       id="path150"
       inkscape:connector-curvature="0" /><path
       d="m 382,721.7 -0.8,-0.3 h -69.1 l -0.8,0.3 0.8,0.2 h 69.1 z"
       style="fill:#000000;fill-opacity:1;fill-rule:evenodd;stroke:none"
       id="path152"
       inkscape:connector-curvature="0" /><path
       d="m 127.4,707.5 -0.8,-0.2 H 57.5 l -0.8,0.2 0.8,0.3 h 69.1 z"
       style="fill:#000000;fill-opacity:1;fill-rule:evenodd;stroke:none"
       id="path154"
       inkscape:connector-curvature="0" /><path
       d="m 212.3,707.5 -0.8,-0.2 h -69.2 l -0.8,0.2 0.8,0.3 h 69.2 z"
       style="fill:#000000;fill-opacity:1;fill-rule:evenodd;stroke:none"
       id="path156"
       inkscape:connector-curvature="0" /><path
       d="m 297.1,707.5 -0.8,-0.2 h -69.1 l -0.8,0.2 0.8,0.3 h 69.1 z"
       style="fill:#000000;fill-opacity:1;fill-rule:evenodd;stroke:none"
       id="path158"
       inkscape:connector-curvature="0" /><path
       d="m 382,707.5 -0.8,-0.2 h -69.1 l -0.8,0.2 0.8,0.3 h 69.1 z"
       style="fill:#000000;fill-opacity:1;fill-rule:evenodd;stroke:none"
       id="path160"
       inkscape:connector-curvature="0" /><path
       d="m 127.4,693.4 0.8,-0.8 H 55.9 l 0.8,0.8 0.7,0.7 h 69.2 z"
       style="fill:#000000;fill-opacity:1;fill-rule:evenodd;stroke:none"
       id="path162"
       inkscape:connector-curvature="0" /><path
       d="m 212.3,693.4 0.7,-0.8 h -72.2 l 0.7,0.8 0.8,0.7 h 69.2 z"
       style="fill:#000000;fill-opacity:1;fill-rule:evenodd;stroke:none"
       id="path164"
       inkscape:connector-curvature="0" /><path
       d="m 297.1,693.4 0.8,-0.8 h -72.3 l 0.8,0.8 0.8,0.7 h 69.2 z"
       style="fill:#000000;fill-opacity:1;fill-rule:evenodd;stroke:none"
       id="path166"
       inkscape:connector-curvature="0" /><path
       d="m 382,693.4 0.8,-0.8 h -72.3 l 0.8,0.8 0.7,0.7 h 69.2 z"
       style="fill:#000000;fill-opacity:1;fill-rule:evenodd;stroke:none"
       id="path168"
       inkscape:connector-curvature="0" /><path
       d="m 127.4,679.2 -0.8,-0.7 H 57.4 l -0.7,0.7 -0.8,0.8 h 72.3 z"
       style="fill:#000000;fill-opacity:1;fill-rule:evenodd;stroke:none"
       id="path170"
       inkscape:connector-curvature="0" /><path
       d="m 212.3,679.2 -0.8,-0.7 h -69.2 l -0.8,0.7 -0.7,0.8 H 213 Z"
       style="fill:#000000;fill-opacity:1;fill-rule:evenodd;stroke:none"
       id="path172"
       inkscape:connector-curvature="0" /><path
       d="m 297.1,679.2 -0.7,-0.7 h -69.2 l -0.8,0.7 -0.8,0.8 h 72.3 z"
       style="fill:#000000;fill-opacity:1;fill-rule:evenodd;stroke:none"
       id="path174"
       inkscape:connector-curvature="0" /><path
       d="m 382,679.2 -0.8,-0.7 H 312 l -0.7,0.7 -0.8,0.8 h 72.3 z"
       style="fill:#000000;fill-opacity:1;fill-rule:evenodd;stroke:none"
       id="path176"
       inkscape:connector-curvature="0" /><path
       d="m 127.4,665.1 -0.8,-0.3 H 57.5 l -0.8,0.3 0.8,0.2 h 69.1 z"
       style="fill:#000000;fill-opacity:1;fill-rule:evenodd;stroke:none"
       id="path178"
       inkscape:connector-curvature="0" /><path
       d="m 212.3,665.1 -0.8,-0.3 h -69.2 l -0.8,0.3 0.8,0.2 h 69.2 z"
       style="fill:#000000;fill-opacity:1;fill-rule:evenodd;stroke:none"
       id="path180"
       inkscape:connector-curvature="0" /><path
       d="m 297.1,665.1 -0.8,-0.3 h -69.1 l -0.8,0.3 0.8,0.2 h 69.1 z"
       style="fill:#000000;fill-opacity:1;fill-rule:evenodd;stroke:none"
       id="path182"
       inkscape:connector-curvature="0" /><path
       d="m 382,665.1 -0.8,-0.3 h -69.1 l -0.8,0.3 0.8,0.2 h 69.1 z"
       style="fill:#000000;fill-opacity:1;fill-rule:evenodd;stroke:none"
       id="path184"
       inkscape:connector-curvature="0" /><path
       d="m 127.4,650.9 -0.8,-0.2 H 57.5 l -0.8,0.2 0.8,0.3 h 69.1 z"
       style="fill:#000000;fill-opacity:1;fill-rule:evenodd;stroke:none"
       id="path186"
       inkscape:connector-curvature="0" /><path
       d="m 212.3,650.9 -0.8,-0.2 h -69.2 l -0.8,0.2 0.8,0.3 h 69.2 z"
       style="fill:#000000;fill-opacity:1;fill-rule:evenodd;stroke:none"
       id="path188"
       inkscape:connector-curvature="0" /><path
       d="m 297.1,650.9 -0.8,-0.2 h -69.1 l -0.8,0.2 0.8,0.3 h 69.1 z"
       style="fill:#000000;fill-opacity:1;fill-rule:evenodd;stroke:none"
       id="path190"
       inkscape:connector-curvature="0" /><path
       d="m 382,650.9 -0.8,-0.2 h -69.1 l -0.8,0.2 0.8,0.3 h 69.1 z"
       style="fill:#000000;fill-opacity:1;fill-rule:evenodd;stroke:none"
       id="path192"
       inkscape:connector-curvature="0" /><path
       d="m 127.4,636.8 -0.8,-0.3 H 57.5 l -0.8,0.3 0.8,0.3 h 69.1 z"
       style="fill:#000000;fill-opacity:1;fill-rule:evenodd;stroke:none"
       id="path194"
       inkscape:connector-curvature="0" /><path
       d="m 212.3,636.8 -0.8,-0.3 h -69.2 l -0.8,0.3 0.8,0.3 h 69.2 z"
       style="fill:#000000;fill-opacity:1;fill-rule:evenodd;stroke:none"
       id="path196"
       inkscape:connector-curvature="0" /><path
       d="m 297.1,636.8 -0.8,-0.3 h -69.1 l -0.8,0.3 0.8,0.3 h 69.1 z"
       style="fill:#000000;fill-opacity:1;fill-rule:evenodd;stroke:none"
       id="path198"
       inkscape:connector-curvature="0" /><path
       d="m 382,636.8 -0.8,-0.3 h -69.1 l -0.8,0.3 0.8,0.3 h 69.1 z"
       style="fill:#000000;fill-opacity:1;fill-rule:evenodd;stroke:none"
       id="path200"
       inkscape:connector-curvature="0" /><path
       d="m 127.4,622.7 -0.8,-0.3 H 57.5 l -0.8,0.3 0.8,0.2 h 69.1 z"
       style="fill:#000000;fill-opacity:1;fill-rule:evenodd;stroke:none"
       id="path202"
       inkscape:connector-curvature="0" /><path
       d="m 212.3,622.7 -0.8,-0.3 h -69.2 l -0.8,0.3 0.8,0.2 h 69.2 z"
       style="fill:#000000;fill-opacity:1;fill-rule:evenodd;stroke:none"
       id="path204"
       inkscape:connector-curvature="0" /><path
       d="m 297.1,622.7 -0.8,-0.3 h -69.1 l -0.8,0.3 0.8,0.2 h 69.1 z"
       style="fill:#000000;fill-opacity:1;fill-rule:evenodd;stroke:none"
       id="path206"
       inkscape:connector-curvature="0" /><path
       d="m 382,622.7 -0.8,-0.3 h -69.1 l -0.8,0.3 0.8,0.2 h 69.1 z"
       style="fill:#000000;fill-opacity:1;fill-rule:evenodd;stroke:none"
       id="path208"
       inkscape:connector-curvature="0" /><path
       d="m 127.4,608.5 0.8,-0.8 H 55.9 l 0.8,0.8 0.7,0.8 h 69.2 z"
       style="fill:#000000;fill-opacity:1;fill-rule:evenodd;stroke:none"
       id="path210"
       inkscape:connector-curvature="0" /><path
       d="m 212.3,608.5 0.7,-0.8 h -72.2 l 0.7,0.8 0.8,0.8 h 69.2 z"
       style="fill:#000000;fill-opacity:1;fill-rule:evenodd;stroke:none"
       id="path212"
       inkscape:connector-curvature="0" /><path
       d="m 297.1,608.5 0.8,-0.8 h -72.3 l 0.8,0.8 0.8,0.8 h 69.2 z"
       style="fill:#000000;fill-opacity:1;fill-rule:evenodd;stroke:none"
       id="path214"
       inkscape:connector-curvature="0" /><path
       d="m 382,608.5 0.8,-0.8 h -72.3 l 0.8,0.8 0.7,0.8 h 69.2 z"
       style="fill:#000000;fill-opacity:1;fill-rule:evenodd;stroke:none"
       id="path216"
       inkscape:connector-curvature="0" /><path
       d="m 127.4,594.4 -0.8,-0.8 H 57.4 l -0.7,0.8 -0.8,0.7 h 72.3 z"
       style="fill:#000000;fill-opacity:1;fill-rule:evenodd;stroke:none"
       id="path218"
       inkscape:connector-curvature="0" /><path
       d="M 127.4,580.2 126.6,580 H 57.5 l -0.8,0.2 0.8,0.3 h 69.1 z"
       style="fill:#000000;fill-opacity:1;fill-rule:evenodd;stroke:none"
       id="path220"
       inkscape:connector-curvature="0" /><path
       d="m 127.4,566.1 -0.8,-0.3 H 57.5 l -0.8,0.3 0.8,0.2 h 69.1 z"
       style="fill:#000000;fill-opacity:1;fill-rule:evenodd;stroke:none"
       id="path222"
       inkscape:connector-curvature="0" /><path
       d="m 127.4,551.9 -0.8,-0.2 H 57.5 l -0.8,0.2 0.8,0.3 h 69.1 z"
       style="fill:#000000;fill-opacity:1;fill-rule:evenodd;stroke:none"
       id="path224"
       inkscape:connector-curvature="0" /><path
       d="m 127.4,537.8 -0.8,-0.3 H 57.5 l -0.8,0.3 0.8,0.2 h 69.1 z"
       style="fill:#000000;fill-opacity:1;fill-rule:evenodd;stroke:none"
       id="path226"
       inkscape:connector-curvature="0" /><path
       d="m 127.4,523.6 0.8,-0.7 H 55.9 l 0.8,0.7 0.7,0.8 h 69.2 z"
       style="fill:#000000;fill-opacity:1;fill-rule:evenodd;stroke:none"
       id="path228"
       inkscape:connector-curvature="0" /><path
       d="m 56.7,764.1 0.7,-0.8 v -69.2 l -0.7,-0.7 -0.8,-0.8 v 72.3 z"
       style="fill:#000000;fill-opacity:1;fill-rule:evenodd;stroke:none"
       id="path230"
       inkscape:connector-curvature="0" /><path
       d="m 56.7,679.2 0.7,-0.7 v -69.2 l -0.7,-0.8 -0.8,-0.8 V 680 Z"
       style="fill:#000000;fill-opacity:1;fill-rule:evenodd;stroke:none"
       id="path232"
       inkscape:connector-curvature="0" /><path
       d="m 56.7,594.4 0.7,-0.8 v -69.2 l -0.7,-0.8 -0.8,-0.7 v 72.2 z"
       style="fill:#000000;fill-opacity:1;fill-rule:evenodd;stroke:none"
       id="path234"
       inkscape:connector-curvature="0" /><path
       d="m 70.8,764.1 0.3,-0.8 v -69.1 l -0.3,-0.8 -0.2,0.8 v 69.1 z"
       style="fill:#000000;fill-opacity:1;fill-rule:evenodd;stroke:none"
       id="path236"
       inkscape:connector-curvature="0" /><path
       d="m 70.8,679.2 0.3,-0.8 v -69.1 l -0.3,-0.8 -0.2,0.8 v 69.1 z"
       style="fill:#000000;fill-opacity:1;fill-rule:evenodd;stroke:none"
       id="path238"
       inkscape:connector-curvature="0" /><path
       d="m 70.8,594.4 0.3,-0.8 v -69.2 l -0.3,-0.8 -0.2,0.8 v 69.2 z"
       style="fill:#000000;fill-opacity:1;fill-rule:evenodd;stroke:none"
       id="path240"
       inkscape:connector-curvature="0" /><path
       d="m 85,764.1 0.2,-0.8 v -69.1 l -0.2,-0.8 -0.3,0.8 v 69.1 z"
       style="fill:#000000;fill-opacity:1;fill-rule:evenodd;stroke:none"
       id="path242"
       inkscape:connector-curvature="0" /><path
       d="m 85,679.2 0.2,-0.8 v -69.1 l -0.2,-0.8 -0.3,0.8 v 69.1 z"
       style="fill:#000000;fill-opacity:1;fill-rule:evenodd;stroke:none"
       id="path244"
       inkscape:connector-curvature="0" /><path
       d="m 85,594.4 0.2,-0.8 v -69.2 l -0.2,-0.8 -0.3,0.8 v 69.2 z"
       style="fill:#000000;fill-opacity:1;fill-rule:evenodd;stroke:none"
       id="path246"
       inkscape:connector-curvature="0" /><path
       d="m 99.1,764.1 0.3,-0.8 v -69.1 l -0.3,-0.8 -0.3,0.8 v 69.1 z"
       style="fill:#000000;fill-opacity:1;fill-rule:evenodd;stroke:none"
       id="path248"
       inkscape:connector-curvature="0" /><path
       d="m 99.1,679.2 0.3,-0.8 v -69.1 l -0.3,-0.8 -0.3,0.8 v 69.1 z"
       style="fill:#000000;fill-opacity:1;fill-rule:evenodd;stroke:none"
       id="path250"
       inkscape:connector-curvature="0" /><path
       d="m 99.1,594.4 0.3,-0.8 v -69.2 l -0.3,-0.8 -0.3,0.8 v 69.2 z"
       style="fill:#000000;fill-opacity:1;fill-rule:evenodd;stroke:none"
       id="path252"
       inkscape:connector-curvature="0" /><path
       d="m 113.2,764.1 0.3,-0.8 v -69.1 l -0.3,-0.8 -0.2,0.8 v 69.1 z"
       style="fill:#000000;fill-opacity:1;fill-rule:evenodd;stroke:none"
       id="path254"
       inkscape:connector-curvature="0" /><path
       d="m 113.2,679.2 0.3,-0.8 v -69.1 l -0.3,-0.8 -0.2,0.8 v 69.1 z"
       style="fill:#000000;fill-opacity:1;fill-rule:evenodd;stroke:none"
       id="path256"
       inkscape:connector-curvature="0" /><path
       d="m 113.2,594.4 0.3,-0.8 v -69.2 l -0.3,-0.8 -0.2,0.8 v 69.2 z"
       style="fill:#000000;fill-opacity:1;fill-rule:evenodd;stroke:none"
       id="path258"
       inkscape:connector-curvature="0" /><path
       d="m 127.4,764.1 0.8,0.8 v -72.3 l -0.8,0.8 -0.8,0.7 v 69.2 z"
       style="fill:#000000;fill-opacity:1;fill-rule:evenodd;stroke:none"
       id="path260"
       inkscape:connector-curvature="0" /><path
       d="m 127.4,679.2 0.8,0.8 v -72.3 l -0.8,0.8 -0.8,0.8 v 69.2 z"
       style="fill:#000000;fill-opacity:1;fill-rule:evenodd;stroke:none"
       id="path262"
       inkscape:connector-curvature="0" /><path
       d="m 127.4,594.4 0.8,0.7 v -72.2 l -0.8,0.7 -0.8,0.8 v 69.2 z"
       style="fill:#000000;fill-opacity:1;fill-rule:evenodd;stroke:none"
       id="path264"
       inkscape:connector-curvature="0" /><path
       d="m 141.5,764.1 0.8,-0.8 v -69.2 l -0.8,-0.7 -0.7,-0.8 v 72.3 z"
       style="fill:#000000;fill-opacity:1;fill-rule:evenodd;stroke:none"
       id="path266"
       inkscape:connector-curvature="0" /><path
       d="m 141.5,679.2 0.8,-0.7 v -69.2 l -0.8,-0.8 -0.7,-0.8 V 680 Z"
       style="fill:#000000;fill-opacity:1;fill-rule:evenodd;stroke:none"
       id="path268"
       inkscape:connector-curvature="0" /><path
       d="m 155.7,764.1 0.2,-0.8 v -69.1 l -0.2,-0.8 -0.3,0.8 v 69.1 z"
       style="fill:#000000;fill-opacity:1;fill-rule:evenodd;stroke:none"
       id="path270"
       inkscape:connector-curvature="0" /><path
       d="m 155.7,679.2 0.2,-0.8 v -69.1 l -0.2,-0.8 -0.3,0.8 v 69.1 z"
       style="fill:#000000;fill-opacity:1;fill-rule:evenodd;stroke:none"
       id="path272"
       inkscape:connector-curvature="0" /><path
       d="m 169.8,764.1 0.3,-0.8 v -69.1 l -0.3,-0.8 -0.2,0.8 v 69.1 z"
       style="fill:#000000;fill-opacity:1;fill-rule:evenodd;stroke:none"
       id="path274"
       inkscape:connector-curvature="0" /><path
       d="m 169.8,679.2 0.3,-0.8 v -69.1 l -0.3,-0.8 -0.2,0.8 v 69.1 z"
       style="fill:#000000;fill-opacity:1;fill-rule:evenodd;stroke:none"
       id="path276"
       inkscape:connector-curvature="0" /><path
       d="m 184,764.1 0.2,-0.8 v -69.1 l -0.2,-0.8 -0.3,0.8 v 69.1 z"
       style="fill:#000000;fill-opacity:1;fill-rule:evenodd;stroke:none"
       id="path278"
       inkscape:connector-curvature="0" /><path
       d="m 184,679.2 0.2,-0.8 v -69.1 l -0.2,-0.8 -0.3,0.8 v 69.1 z"
       style="fill:#000000;fill-opacity:1;fill-rule:evenodd;stroke:none"
       id="path280"
       inkscape:connector-curvature="0" /><path
       d="m 198.1,764.1 0.3,-0.8 v -69.1 l -0.3,-0.8 -0.2,0.8 v 69.1 z"
       style="fill:#000000;fill-opacity:1;fill-rule:evenodd;stroke:none"
       id="path282"
       inkscape:connector-curvature="0" /><path
       d="m 198.1,679.2 0.3,-0.8 v -69.1 l -0.3,-0.8 -0.2,0.8 v 69.1 z"
       style="fill:#000000;fill-opacity:1;fill-rule:evenodd;stroke:none"
       id="path284"
       inkscape:connector-curvature="0" /><path
       d="m 212.3,764.1 0.7,0.8 v -72.3 l -0.7,0.8 -0.8,0.7 v 69.2 z"
       style="fill:#000000;fill-opacity:1;fill-rule:evenodd;stroke:none"
       id="path286"
       inkscape:connector-curvature="0" /><path
       d="m 212.3,679.2 0.7,0.8 v -72.3 l -0.7,0.8 -0.8,0.8 v 69.2 z"
       style="fill:#000000;fill-opacity:1;fill-rule:evenodd;stroke:none"
       id="path288"
       inkscape:connector-curvature="0" /><path
       d="m 226.4,764.1 0.8,-0.8 v -69.2 l -0.8,-0.7 -0.8,-0.8 v 72.3 z"
       style="fill:#000000;fill-opacity:1;fill-rule:evenodd;stroke:none"
       id="path290"
       inkscape:connector-curvature="0" /><path
       d="m 226.4,679.2 0.8,-0.7 v -69.2 l -0.8,-0.8 -0.8,-0.8 V 680 Z"
       style="fill:#000000;fill-opacity:1;fill-rule:evenodd;stroke:none"
       id="path292"
       inkscape:connector-curvature="0" /><path
       d="m 240.5,764.1 0.3,-0.8 v -69.1 l -0.3,-0.8 -0.2,0.8 v 69.1 z"
       style="fill:#000000;fill-opacity:1;fill-rule:evenodd;stroke:none"
       id="path294"
       inkscape:connector-curvature="0" /><path
       d="m 240.5,679.2 0.3,-0.8 v -69.1 l -0.3,-0.8 -0.2,0.8 v 69.1 z"
       style="fill:#000000;fill-opacity:1;fill-rule:evenodd;stroke:none"
       id="path296"
       inkscape:connector-curvature="0" /><path
       d="m 254.7,764.1 0.2,-0.8 v -69.1 l -0.2,-0.8 -0.3,0.8 v 69.1 z"
       style="fill:#000000;fill-opacity:1;fill-rule:evenodd;stroke:none"
       id="path298"
       inkscape:connector-curvature="0" /><path
       d="m 254.7,679.2 0.2,-0.8 v -69.1 l -0.2,-0.8 -0.3,0.8 v 69.1 z"
       style="fill:#000000;fill-opacity:1;fill-rule:evenodd;stroke:none"
       id="path300"
       inkscape:connector-curvature="0" /><path
       d="m 268.8,764.1 0.3,-0.8 v -69.1 l -0.3,-0.8 -0.2,0.8 v 69.1 z"
       style="fill:#000000;fill-opacity:1;fill-rule:evenodd;stroke:none"
       id="path302"
       inkscape:connector-curvature="0" /><path
       d="m 268.8,679.2 0.3,-0.8 v -69.1 l -0.3,-0.8 -0.2,0.8 v 69.1 z"
       style="fill:#000000;fill-opacity:1;fill-rule:evenodd;stroke:none"
       id="path304"
       inkscape:connector-curvature="0" /><path
       d="m 283,764.1 0.2,-0.8 v -69.1 l -0.2,-0.8 -0.3,0.8 v 69.1 z"
       style="fill:#000000;fill-opacity:1;fill-rule:evenodd;stroke:none"
       id="path306"
       inkscape:connector-curvature="0" /><path
       d="m 283,679.2 0.2,-0.8 v -69.1 l -0.2,-0.8 -0.3,0.8 v 69.1 z"
       style="fill:#000000;fill-opacity:1;fill-rule:evenodd;stroke:none"
       id="path308"
       inkscape:connector-curvature="0" /><path
       d="m 297.1,764.1 0.8,0.8 v -72.3 l -0.8,0.8 -0.7,0.7 v 69.2 z"
       style="fill:#000000;fill-opacity:1;fill-rule:evenodd;stroke:none"
       id="path310"
       inkscape:connector-curvature="0" /><path
       d="m 297.1,679.2 0.8,0.8 v -72.3 l -0.8,0.8 -0.7,0.8 v 69.2 z"
       style="fill:#000000;fill-opacity:1;fill-rule:evenodd;stroke:none"
       id="path312"
       inkscape:connector-curvature="0" /><path
       d="m 311.3,764.1 0.7,-0.8 v -69.2 l -0.7,-0.7 -0.8,-0.8 v 72.3 z"
       style="fill:#000000;fill-opacity:1;fill-rule:evenodd;stroke:none"
       id="path314"
       inkscape:connector-curvature="0" /><path
       d="m 311.3,679.2 0.7,-0.7 v -69.2 l -0.7,-0.8 -0.8,-0.8 V 680 Z"
       style="fill:#000000;fill-opacity:1;fill-rule:evenodd;stroke:none"
       id="path316"
       inkscape:connector-curvature="0" /><path
       d="m 325.4,764.1 0.3,-0.8 v -69.1 l -0.3,-0.8 -0.2,0.8 v 69.1 z"
       style="fill:#000000;fill-opacity:1;fill-rule:evenodd;stroke:none"
       id="path318"
       inkscape:connector-curvature="0" /><path
       d="m 325.4,679.2 0.3,-0.8 v -69.1 l -0.3,-0.8 -0.2,0.8 v 69.1 z"
       style="fill:#000000;fill-opacity:1;fill-rule:evenodd;stroke:none"
       id="path320"
       inkscape:connector-curvature="0" /><path
       d="m 339.6,764.1 0.2,-0.8 v -69.1 l -0.2,-0.8 -0.3,0.8 v 69.1 z"
       style="fill:#000000;fill-opacity:1;fill-rule:evenodd;stroke:none"
       id="path322"
       inkscape:connector-curvature="0" /><path
       d="m 339.6,679.2 0.2,-0.8 v -69.1 l -0.2,-0.8 -0.3,0.8 v 69.1 z"
       style="fill:#000000;fill-opacity:1;fill-rule:evenodd;stroke:none"
       id="path324"
       inkscape:connector-curvature="0" /><path
       d="m 353.7,764.1 0.3,-0.8 v -69.1 l -0.3,-0.8 -0.2,0.8 v 69.1 z"
       style="fill:#000000;fill-opacity:1;fill-rule:evenodd;stroke:none"
       id="path326"
       inkscape:connector-curvature="0" /><path
       d="m 353.7,679.2 0.3,-0.8 v -69.1 l -0.3,-0.8 -0.2,0.8 v 69.1 z"
       style="fill:#000000;fill-opacity:1;fill-rule:evenodd;stroke:none"
       id="path328"
       inkscape:connector-curvature="0" /><path
       d="m 367.9,764.1 0.2,-0.8 v -69.1 l -0.2,-0.8 -0.3,0.8 v 69.1 z"
       style="fill:#000000;fill-opacity:1;fill-rule:evenodd;stroke:none"
       id="path330"
       inkscape:connector-curvature="0" /><path
       d="m 367.9,679.2 0.2,-0.8 v -69.1 l -0.2,-0.8 -0.3,0.8 v 69.1 z"
       style="fill:#000000;fill-opacity:1;fill-rule:evenodd;stroke:none"
       id="path332"
       inkscape:connector-curvature="0" /><path
       d="m 382,764.1 0.8,0.8 v -72.3 l -0.8,0.8 -0.8,0.7 v 69.2 z"
       style="fill:#000000;fill-opacity:1;fill-rule:evenodd;stroke:none"
       id="path334"
       inkscape:connector-curvature="0" /><path
       d="m 382,679.2 0.8,0.8 v -72.3 l -0.8,0.8 -0.8,0.8 v 69.2 z"
       style="fill:#000000;fill-opacity:1;fill-rule:evenodd;stroke:none"
       id="path336"
       inkscape:connector-curvature="0" /></g></svg>