<?xml version="1.0" encoding="UTF-8" standalone="no"?>
<!-- Created with Inkscape (http://www.inkscape.org/) -->

<svg
   xmlns:dc="http://purl.org/dc/elements/1.1/"
   xmlns:cc="http://creativecommons.org/ns#"
   xmlns:rdf="http://www.w3.org/1999/02/22-rdf-syntax-ns#"
   xmlns:svg="http://www.w3.org/2000/svg"
   xmlns="http://www.w3.org/2000/svg"
   xmlns:sodipodi="http://sodipodi.sourceforge.net/DTD/sodipodi-0.dtd"
   xmlns:inkscape="http://www.inkscape.org/namespaces/inkscape"
   id="svg4136"
   version="1.1"
   inkscape:version="0.91 r13725"
   xml:space="preserve"
   width="408.625"
   height="196.5"
   viewBox="0 0 408.625 196.5"
   sodipodi:docname="periodic_neighbors.svg"><metadata
     id="metadata4142"><rdf:RDF><cc:Work
         rdf:about=""><dc:format>image/svg+xml</dc:format><dc:type
           rdf:resource="http://purl.org/dc/dcmitype/StillImage" /><dc:title></dc:title></cc:Work></rdf:RDF></metadata><defs
     id="defs4140"><clipPath
       clipPathUnits="userSpaceOnUse"
       id="clipPath4150"><path
         d="M 0,0 612,0 612,792 0,792 0,0 Z"
         id="path4152"
         inkscape:connector-curvature="0"
         style="clip-rule:evenodd" /></clipPath><clipPath
       clipPathUnits="userSpaceOnUse"
       id="clipPath4158"><path
         d="m 56.7,721.2 498.5,0 0,14.1 -498.5,0 0,-14.1 z"
         id="path4160"
         inkscape:connector-curvature="0"
         style="clip-rule:evenodd" /></clipPath><clipPath
       clipPathUnits="userSpaceOnUse"
       id="clipPath4172"><path
         d="m 56.7,56.7 498.5,0 0,14.1 -498.5,0 0,-14.1 z"
         id="path4174"
         inkscape:connector-curvature="0"
         style="clip-rule:evenodd" /></clipPath></defs><sodipodi:namedview
     pagecolor="#ffffff"
     bordercolor="#666666"
     borderopacity="1"
     objecttolerance="10"
     gridtolerance="10"
     guidetolerance="10"
     inkscape:pageopacity="0"
     inkscape:pageshadow="2"
     inkscape:window-width="1920"
     inkscape:window-height="1137"
     id="namedview4138"
     showgrid="false"
     inkscape:zoom="0.94949495"
     inkscape:cx="312.625"
     inkscape:cy="-202.125"
     inkscape:window-x="-8"
     inkscape:window-y="-8"
     inkscape:window-maximized="1"
     inkscape:current-layer="g4144"
     fit-margin-top="0"
     fit-margin-left="0"
     fit-margin-right="0"
     fit-margin-bottom="0" /><g
     id="g4144"
     inkscape:groupmode="layer"
     inkscape:label="periodic_neighbors"
     transform="matrix(1.25,0,0,-1.25,-69.875,893.625)"><g
       id="g4146"><g
         id="g4148"
         clip-path="url(#clipPath4150)" /></g><g
       id="g4154"><g
         id="g4156"
         clip-path="url(#clipPath4158)"><g
           id="g4162" /><g
           id="g4164" /><g
           id="g4166" /></g></g><g
       id="g4168"><g
         id="g4170"
         clip-path="url(#clipPath4172)"><g
           id="g4176" /><g
           id="g4178" /><g
           id="g4180" /></g></g><path
       d="m 56.7,700 14.1,0 0,14.2 -14.1,0 0,-14.2 z"
       style="fill:#fc5c00;fill-opacity:1;fill-rule:evenodd;stroke:none"
       id="path4182"
       inkscape:connector-curvature="0" /><path
       d="m 113.2,700 14.2,0 0,14.2 -14.2,0 0,-14.2 z"
       style="fill:#00a0fc;fill-opacity:1;fill-rule:evenodd;stroke:none"
       id="path4184"
       inkscape:connector-curvature="0" /><path
       d="m 141.4,700 14.2,0 0,14.2 -14.2,0 0,-14.2 z"
       style="fill:#00a0fc;fill-opacity:1;fill-rule:evenodd;stroke:none"
       id="path4186"
       inkscape:connector-curvature="0" /><path
       d="m 198,700 14.2,0 0,14.2 -14.2,0 0,-14.2 z"
       style="fill:#fc5c00;fill-opacity:1;fill-rule:evenodd;stroke:none"
       id="path4188"
       inkscape:connector-curvature="0" /><path
       d="m 226.3,700 14.2,0 0,14.2 -14.2,0 0,-14.2 z"
       style="fill:#00a0fc;fill-opacity:1;fill-rule:evenodd;stroke:none"
       id="path4190"
       inkscape:connector-curvature="0" /><path
       d="m 367.8,700 14.2,0 0,14.2 -14.2,0 0,-14.2 z"
       style="fill:#00a0fc;fill-opacity:1;fill-rule:evenodd;stroke:none"
       id="path4192"
       inkscape:connector-curvature="0" /><path
       d="m 56.7,643.4 14.1,0 0,14.2 -14.1,0 0,-14.2 z"
       style="fill:#00a0fc;fill-opacity:1;fill-rule:evenodd;stroke:none"
       id="path4194"
       inkscape:connector-curvature="0" /><path
       d="m 198,643.4 14.2,0 0,14.2 -14.2,0 0,-14.2 z"
       style="fill:#00a0fc;fill-opacity:1;fill-rule:evenodd;stroke:none"
       id="path4196"
       inkscape:connector-curvature="0" /><path
       d="m 226.3,643.4 14.2,0 0,14.2 -14.2,0 0,-14.2 z"
       style="fill:#fc5c00;fill-opacity:1;fill-rule:evenodd;stroke:none"
       id="path4198"
       inkscape:connector-curvature="0" /><path
       d="m 282.9,643.4 14.2,0 0,14.2 -14.2,0 0,-14.2 z"
       style="fill:#00a0fc;fill-opacity:1;fill-rule:evenodd;stroke:none"
       id="path4200"
       inkscape:connector-curvature="0" /><path
       d="m 311.2,643.4 14.2,0 0,14.2 -14.2,0 0,-14.2 z"
       style="fill:#00a0fc;fill-opacity:1;fill-rule:evenodd;stroke:none"
       id="path4202"
       inkscape:connector-curvature="0" /><path
       d="m 367.8,643.4 14.2,0 0,14.2 -14.2,0 0,-14.2 z"
       style="fill:#fc5c00;fill-opacity:1;fill-rule:evenodd;stroke:none"
       id="path4204"
       inkscape:connector-curvature="0" /><path
       d="m 254.6,615.1 14.2,0 0,14.2 -14.2,0 0,-14.2 z"
       style="fill:#fc5c00;fill-opacity:1;fill-rule:evenodd;stroke:none"
       id="path4206"
       inkscape:connector-curvature="0" /><path
       d="m 339.5,615.1 14.2,0 0,14.2 -14.2,0 0,-14.2 z"
       style="fill:#00a0fc;fill-opacity:1;fill-rule:evenodd;stroke:none"
       id="path4208"
       inkscape:connector-curvature="0" /><path
       d="m 56.7,586.9 14.1,0 0,14.2 -14.1,0 0,-14.2 z"
       style="fill:#fc5c00;fill-opacity:1;fill-rule:evenodd;stroke:none"
       id="path4210"
       inkscape:connector-curvature="0" /><path
       d="m 113.2,586.9 14.2,0 0,14.2 -14.2,0 0,-14.2 z"
       style="fill:#00a0fc;fill-opacity:1;fill-rule:evenodd;stroke:none"
       id="path4212"
       inkscape:connector-curvature="0" /><path
       d="m 141.4,586.9 14.2,0 0,14.2 -14.2,0 0,-14.2 z"
       style="fill:#00a0fc;fill-opacity:1;fill-rule:evenodd;stroke:none"
       id="path4214"
       inkscape:connector-curvature="0" /><path
       d="m 198,586.9 14.2,0 0,14.2 -14.2,0 0,-14.2 z"
       style="fill:#fc5c00;fill-opacity:1;fill-rule:evenodd;stroke:none"
       id="path4216"
       inkscape:connector-curvature="0" /><path
       d="m 254.6,558.6 14.2,0 0,14.2 -14.2,0 0,-14.2 z"
       style="fill:#00a0fc;fill-opacity:1;fill-rule:evenodd;stroke:none"
       id="path4218"
       inkscape:connector-curvature="0" /><path
       d="m 339.5,558.6 14.2,0 0,14.2 -14.2,0 0,-14.2 z"
       style="fill:#fc5c00;fill-opacity:1;fill-rule:evenodd;stroke:none"
       id="path4220"
       inkscape:connector-curvature="0" /><path
       d="m 127.4,714.1 -0.8,-0.8 -69.2,0 -0.7,0.8 -0.8,0.8 72.3,0 -0.8,-0.8 z"
       style="fill:#000000;fill-opacity:1;fill-rule:evenodd;stroke:none"
       id="path4222"
       inkscape:connector-curvature="0" /><path
       d="m 212.3,714.1 -0.8,-0.8 -69.2,0 -0.8,0.8 -0.7,0.8 72.2,0 -0.7,-0.8 z"
       style="fill:#000000;fill-opacity:1;fill-rule:evenodd;stroke:none"
       id="path4224"
       inkscape:connector-curvature="0" /><path
       d="m 297.1,714.1 -0.7,-0.8 -69.2,0 -0.8,0.8 -0.8,0.8 72.3,0 -0.8,-0.8 z"
       style="fill:#000000;fill-opacity:1;fill-rule:evenodd;stroke:none"
       id="path4226"
       inkscape:connector-curvature="0" /><path
       d="m 382,714.1 -0.8,-0.8 -69.2,0 -0.7,0.8 -0.8,0.8 72.3,0 -0.8,-0.8 z"
       style="fill:#000000;fill-opacity:1;fill-rule:evenodd;stroke:none"
       id="path4228"
       inkscape:connector-curvature="0" /><path
       d="m 127.4,700 -0.8,-0.3 -69.1,0 -0.8,0.3 0.8,0.2 69.1,0 0.8,-0.2 z"
       style="fill:#000000;fill-opacity:1;fill-rule:evenodd;stroke:none"
       id="path4230"
       inkscape:connector-curvature="0" /><path
       d="m 212.3,700 -0.8,-0.3 -69.2,0 -0.8,0.3 0.8,0.2 69.2,0 0.8,-0.2 z"
       style="fill:#000000;fill-opacity:1;fill-rule:evenodd;stroke:none"
       id="path4232"
       inkscape:connector-curvature="0" /><path
       d="m 297.1,700 -0.8,-0.3 -69.1,0 -0.8,0.3 0.8,0.2 69.1,0 0.8,-0.2 z"
       style="fill:#000000;fill-opacity:1;fill-rule:evenodd;stroke:none"
       id="path4234"
       inkscape:connector-curvature="0" /><path
       d="m 382,700 -0.8,-0.3 -69.1,0 -0.8,0.3 0.8,0.2 69.1,0 0.8,-0.2 z"
       style="fill:#000000;fill-opacity:1;fill-rule:evenodd;stroke:none"
       id="path4236"
       inkscape:connector-curvature="0" /><path
       d="m 127.4,685.8 -0.8,-0.2 -69.1,0 -0.8,0.2 0.8,0.3 69.1,0 0.8,-0.3 z"
       style="fill:#000000;fill-opacity:1;fill-rule:evenodd;stroke:none"
       id="path4238"
       inkscape:connector-curvature="0" /><path
       d="m 212.3,685.8 -0.8,-0.2 -69.2,0 -0.8,0.2 0.8,0.3 69.2,0 0.8,-0.3 z"
       style="fill:#000000;fill-opacity:1;fill-rule:evenodd;stroke:none"
       id="path4240"
       inkscape:connector-curvature="0" /><path
       d="m 297.1,685.8 -0.8,-0.2 -69.1,0 -0.8,0.2 0.8,0.3 69.1,0 0.8,-0.3 z"
       style="fill:#000000;fill-opacity:1;fill-rule:evenodd;stroke:none"
       id="path4242"
       inkscape:connector-curvature="0" /><path
       d="m 382,685.8 -0.8,-0.2 -69.1,0 -0.8,0.2 0.8,0.3 69.1,0 0.8,-0.3 z"
       style="fill:#000000;fill-opacity:1;fill-rule:evenodd;stroke:none"
       id="path4244"
       inkscape:connector-curvature="0" /><path
       d="m 127.4,671.7 -0.8,-0.3 -69.1,0 -0.8,0.3 0.8,0.2 69.1,0 0.8,-0.2 z"
       style="fill:#000000;fill-opacity:1;fill-rule:evenodd;stroke:none"
       id="path4246"
       inkscape:connector-curvature="0" /><path
       d="m 212.3,671.7 -0.8,-0.3 -69.2,0 -0.8,0.3 0.8,0.2 69.2,0 0.8,-0.2 z"
       style="fill:#000000;fill-opacity:1;fill-rule:evenodd;stroke:none"
       id="path4248"
       inkscape:connector-curvature="0" /><path
       d="m 297.1,671.7 -0.8,-0.3 -69.1,0 -0.8,0.3 0.8,0.2 69.1,0 0.8,-0.2 z"
       style="fill:#000000;fill-opacity:1;fill-rule:evenodd;stroke:none"
       id="path4250"
       inkscape:connector-curvature="0" /><path
       d="m 382,671.7 -0.8,-0.3 -69.1,0 -0.8,0.3 0.8,0.2 69.1,0 0.8,-0.2 z"
       style="fill:#000000;fill-opacity:1;fill-rule:evenodd;stroke:none"
       id="path4252"
       inkscape:connector-curvature="0" /><path
       d="m 127.4,657.5 -0.8,-0.2 -69.1,0 -0.8,0.2 0.8,0.3 69.1,0 0.8,-0.3 z"
       style="fill:#000000;fill-opacity:1;fill-rule:evenodd;stroke:none"
       id="path4254"
       inkscape:connector-curvature="0" /><path
       d="m 212.3,657.5 -0.8,-0.2 -69.2,0 -0.8,0.2 0.8,0.3 69.2,0 0.8,-0.3 z"
       style="fill:#000000;fill-opacity:1;fill-rule:evenodd;stroke:none"
       id="path4256"
       inkscape:connector-curvature="0" /><path
       d="m 297.1,657.5 -0.8,-0.2 -69.1,0 -0.8,0.2 0.8,0.3 69.1,0 0.8,-0.3 z"
       style="fill:#000000;fill-opacity:1;fill-rule:evenodd;stroke:none"
       id="path4258"
       inkscape:connector-curvature="0" /><path
       d="m 382,657.5 -0.8,-0.2 -69.1,0 -0.8,0.2 0.8,0.3 69.1,0 0.8,-0.3 z"
       style="fill:#000000;fill-opacity:1;fill-rule:evenodd;stroke:none"
       id="path4260"
       inkscape:connector-curvature="0" /><path
       d="m 127.4,643.4 0.8,-0.8 -72.3,0 0.8,0.8 0.7,0.7 69.2,0 0.8,-0.7 z"
       style="fill:#000000;fill-opacity:1;fill-rule:evenodd;stroke:none"
       id="path4262"
       inkscape:connector-curvature="0" /><path
       d="m 212.3,643.4 0.7,-0.8 -72.2,0 0.7,0.8 0.8,0.7 69.2,0 0.8,-0.7 z"
       style="fill:#000000;fill-opacity:1;fill-rule:evenodd;stroke:none"
       id="path4264"
       inkscape:connector-curvature="0" /><path
       d="m 297.1,643.4 0.8,-0.8 -72.3,0 0.8,0.8 0.8,0.7 69.2,0 0.7,-0.7 z"
       style="fill:#000000;fill-opacity:1;fill-rule:evenodd;stroke:none"
       id="path4266"
       inkscape:connector-curvature="0" /><path
       d="m 382,643.4 0.8,-0.8 -72.3,0 0.8,0.8 0.7,0.7 69.2,0 0.8,-0.7 z"
       style="fill:#000000;fill-opacity:1;fill-rule:evenodd;stroke:none"
       id="path4268"
       inkscape:connector-curvature="0" /><path
       d="m 127.4,629.2 -0.8,-0.7 -69.2,0 -0.7,0.7 -0.8,0.8 72.3,0 -0.8,-0.8 z"
       style="fill:#000000;fill-opacity:1;fill-rule:evenodd;stroke:none"
       id="path4270"
       inkscape:connector-curvature="0" /><path
       d="m 212.3,629.2 -0.8,-0.7 -69.2,0 -0.8,0.7 -0.7,0.8 72.2,0 -0.7,-0.8 z"
       style="fill:#000000;fill-opacity:1;fill-rule:evenodd;stroke:none"
       id="path4272"
       inkscape:connector-curvature="0" /><path
       d="m 297.1,629.2 -0.7,-0.7 -69.2,0 -0.8,0.7 -0.8,0.8 72.3,0 -0.8,-0.8 z"
       style="fill:#000000;fill-opacity:1;fill-rule:evenodd;stroke:none"
       id="path4274"
       inkscape:connector-curvature="0" /><path
       d="m 382,629.2 -0.8,-0.7 -69.2,0 -0.7,0.7 -0.8,0.8 72.3,0 -0.8,-0.8 z"
       style="fill:#000000;fill-opacity:1;fill-rule:evenodd;stroke:none"
       id="path4276"
       inkscape:connector-curvature="0" /><path
       d="m 127.4,615.1 -0.8,-0.3 -69.1,0 -0.8,0.3 0.8,0.2 69.1,0 0.8,-0.2 z"
       style="fill:#000000;fill-opacity:1;fill-rule:evenodd;stroke:none"
       id="path4278"
       inkscape:connector-curvature="0" /><path
       d="m 212.3,615.1 -0.8,-0.3 -69.2,0 -0.8,0.3 0.8,0.2 69.2,0 0.8,-0.2 z"
       style="fill:#000000;fill-opacity:1;fill-rule:evenodd;stroke:none"
       id="path4280"
       inkscape:connector-curvature="0" /><path
       d="m 297.1,615.1 -0.8,-0.3 -69.1,0 -0.8,0.3 0.8,0.2 69.1,0 0.8,-0.2 z"
       style="fill:#000000;fill-opacity:1;fill-rule:evenodd;stroke:none"
       id="path4282"
       inkscape:connector-curvature="0" /><path
       d="m 382,615.1 -0.8,-0.3 -69.1,0 -0.8,0.3 0.8,0.2 69.1,0 0.8,-0.2 z"
       style="fill:#000000;fill-opacity:1;fill-rule:evenodd;stroke:none"
       id="path4284"
       inkscape:connector-curvature="0" /><path
       d="m 127.4,600.9 -0.8,-0.2 -69.1,0 -0.8,0.2 0.8,0.3 69.1,0 0.8,-0.3 z"
       style="fill:#000000;fill-opacity:1;fill-rule:evenodd;stroke:none"
       id="path4286"
       inkscape:connector-curvature="0" /><path
       d="m 212.3,600.9 -0.8,-0.2 -69.2,0 -0.8,0.2 0.8,0.3 69.2,0 0.8,-0.3 z"
       style="fill:#000000;fill-opacity:1;fill-rule:evenodd;stroke:none"
       id="path4288"
       inkscape:connector-curvature="0" /><path
       d="m 297.1,600.9 -0.8,-0.2 -69.1,0 -0.8,0.2 0.8,0.3 69.1,0 0.8,-0.3 z"
       style="fill:#000000;fill-opacity:1;fill-rule:evenodd;stroke:none"
       id="path4290"
       inkscape:connector-curvature="0" /><path
       d="m 382,600.9 -0.8,-0.2 -69.1,0 -0.8,0.2 0.8,0.3 69.1,0 0.8,-0.3 z"
       style="fill:#000000;fill-opacity:1;fill-rule:evenodd;stroke:none"
       id="path4292"
       inkscape:connector-curvature="0" /><path
       d="m 127.4,586.8 -0.8,-0.3 -69.1,0 -0.8,0.3 0.8,0.3 69.1,0 0.8,-0.3 z"
       style="fill:#000000;fill-opacity:1;fill-rule:evenodd;stroke:none"
       id="path4294"
       inkscape:connector-curvature="0" /><path
       d="m 212.3,586.8 -0.8,-0.3 -69.2,0 -0.8,0.3 0.8,0.3 69.2,0 0.8,-0.3 z"
       style="fill:#000000;fill-opacity:1;fill-rule:evenodd;stroke:none"
       id="path4296"
       inkscape:connector-curvature="0" /><path
       d="m 297.1,586.8 -0.8,-0.3 -69.1,0 -0.8,0.3 0.8,0.3 69.1,0 0.8,-0.3 z"
       style="fill:#000000;fill-opacity:1;fill-rule:evenodd;stroke:none"
       id="path4298"
       inkscape:connector-curvature="0" /><path
       d="m 382,586.8 -0.8,-0.3 -69.1,0 -0.8,0.3 0.8,0.3 69.1,0 0.8,-0.3 z"
       style="fill:#000000;fill-opacity:1;fill-rule:evenodd;stroke:none"
       id="path4300"
       inkscape:connector-curvature="0" /><path
       d="m 127.4,572.7 -0.8,-0.3 -69.1,0 -0.8,0.3 0.8,0.2 69.1,0 0.8,-0.2 z"
       style="fill:#000000;fill-opacity:1;fill-rule:evenodd;stroke:none"
       id="path4302"
       inkscape:connector-curvature="0" /><path
       d="m 212.3,572.7 -0.8,-0.3 -69.2,0 -0.8,0.3 0.8,0.2 69.2,0 0.8,-0.2 z"
       style="fill:#000000;fill-opacity:1;fill-rule:evenodd;stroke:none"
       id="path4304"
       inkscape:connector-curvature="0" /><path
       d="m 297.1,572.7 -0.8,-0.3 -69.1,0 -0.8,0.3 0.8,0.2 69.1,0 0.8,-0.2 z"
       style="fill:#000000;fill-opacity:1;fill-rule:evenodd;stroke:none"
       id="path4306"
       inkscape:connector-curvature="0" /><path
       d="m 382,572.7 -0.8,-0.3 -69.1,0 -0.8,0.3 0.8,0.2 69.1,0 0.8,-0.2 z"
       style="fill:#000000;fill-opacity:1;fill-rule:evenodd;stroke:none"
       id="path4308"
       inkscape:connector-curvature="0" /><path
       d="m 127.4,558.5 0.8,-0.8 -72.3,0 0.8,0.8 0.7,0.8 69.2,0 0.8,-0.8 z"
       style="fill:#000000;fill-opacity:1;fill-rule:evenodd;stroke:none"
       id="path4310"
       inkscape:connector-curvature="0" /><path
       d="m 212.3,558.5 0.7,-0.8 -72.2,0 0.7,0.8 0.8,0.8 69.2,0 0.8,-0.8 z"
       style="fill:#000000;fill-opacity:1;fill-rule:evenodd;stroke:none"
       id="path4312"
       inkscape:connector-curvature="0" /><path
       d="m 297.1,558.5 0.8,-0.8 -72.3,0 0.8,0.8 0.8,0.8 69.2,0 0.7,-0.8 z"
       style="fill:#000000;fill-opacity:1;fill-rule:evenodd;stroke:none"
       id="path4314"
       inkscape:connector-curvature="0" /><path
       d="m 382,558.5 0.8,-0.8 -72.3,0 0.8,0.8 0.7,0.8 69.2,0 0.8,-0.8 z"
       style="fill:#000000;fill-opacity:1;fill-rule:evenodd;stroke:none"
       id="path4316"
       inkscape:connector-curvature="0" /><path
       d="m 56.7,714.1 0.7,-0.8 0,-69.2 -0.7,-0.7 -0.8,-0.8 0,72.3 0.8,-0.8 z"
       style="fill:#000000;fill-opacity:1;fill-rule:evenodd;stroke:none"
       id="path4318"
       inkscape:connector-curvature="0" /><path
       d="m 56.7,629.2 0.7,-0.7 0,-69.2 -0.7,-0.8 -0.8,-0.8 0,72.3 0.8,-0.8 z"
       style="fill:#000000;fill-opacity:1;fill-rule:evenodd;stroke:none"
       id="path4320"
       inkscape:connector-curvature="0" /><path
       d="m 70.8,714.1 0.3,-0.8 0,-69.1 -0.3,-0.8 -0.2,0.8 0,69.1 0.2,0.8 z"
       style="fill:#000000;fill-opacity:1;fill-rule:evenodd;stroke:none"
       id="path4322"
       inkscape:connector-curvature="0" /><path
       d="m 70.8,629.2 0.3,-0.8 0,-69.1 -0.3,-0.8 -0.2,0.8 0,69.1 0.2,0.8 z"
       style="fill:#000000;fill-opacity:1;fill-rule:evenodd;stroke:none"
       id="path4324"
       inkscape:connector-curvature="0" /><path
       d="m 85,714.1 0.2,-0.8 0,-69.1 -0.2,-0.8 -0.3,0.8 0,69.1 0.3,0.8 z"
       style="fill:#000000;fill-opacity:1;fill-rule:evenodd;stroke:none"
       id="path4326"
       inkscape:connector-curvature="0" /><path
       d="m 85,629.2 0.2,-0.8 0,-69.1 -0.2,-0.8 -0.3,0.8 0,69.1 0.3,0.8 z"
       style="fill:#000000;fill-opacity:1;fill-rule:evenodd;stroke:none"
       id="path4328"
       inkscape:connector-curvature="0" /><path
       d="m 99.1,714.1 0.3,-0.8 0,-69.1 -0.3,-0.8 -0.3,0.8 0,69.1 0.3,0.8 z"
       style="fill:#000000;fill-opacity:1;fill-rule:evenodd;stroke:none"
       id="path4330"
       inkscape:connector-curvature="0" /><path
       d="m 99.1,629.2 0.3,-0.8 0,-69.1 -0.3,-0.8 -0.3,0.8 0,69.1 0.3,0.8 z"
       style="fill:#000000;fill-opacity:1;fill-rule:evenodd;stroke:none"
       id="path4332"
       inkscape:connector-curvature="0" /><path
       d="m 113.2,714.1 0.3,-0.8 0,-69.1 -0.3,-0.8 -0.2,0.8 0,69.1 0.2,0.8 z"
       style="fill:#000000;fill-opacity:1;fill-rule:evenodd;stroke:none"
       id="path4334"
       inkscape:connector-curvature="0" /><path
       d="m 113.2,629.2 0.3,-0.8 0,-69.1 -0.3,-0.8 -0.2,0.8 0,69.1 0.2,0.8 z"
       style="fill:#000000;fill-opacity:1;fill-rule:evenodd;stroke:none"
       id="path4336"
       inkscape:connector-curvature="0" /><path
       d="m 127.4,714.1 0.8,0.8 0,-72.3 -0.8,0.8 -0.8,0.7 0,69.2 0.8,0.8 z"
       style="fill:#000000;fill-opacity:1;fill-rule:evenodd;stroke:none"
       id="path4338"
       inkscape:connector-curvature="0" /><path
       d="m 127.4,629.2 0.8,0.8 0,-72.3 -0.8,0.8 -0.8,0.8 0,69.2 0.8,0.7 z"
       style="fill:#000000;fill-opacity:1;fill-rule:evenodd;stroke:none"
       id="path4340"
       inkscape:connector-curvature="0" /><path
       d="m 141.5,714.1 0.8,-0.8 0,-69.2 -0.8,-0.7 -0.7,-0.8 0,72.3 0.7,-0.8 z"
       style="fill:#000000;fill-opacity:1;fill-rule:evenodd;stroke:none"
       id="path4342"
       inkscape:connector-curvature="0" /><path
       d="m 141.5,629.2 0.8,-0.7 0,-69.2 -0.8,-0.8 -0.7,-0.8 0,72.3 0.7,-0.8 z"
       style="fill:#000000;fill-opacity:1;fill-rule:evenodd;stroke:none"
       id="path4344"
       inkscape:connector-curvature="0" /><path
       d="m 155.7,714.1 0.2,-0.8 0,-69.1 -0.2,-0.8 -0.3,0.8 0,69.1 0.3,0.8 z"
       style="fill:#000000;fill-opacity:1;fill-rule:evenodd;stroke:none"
       id="path4346"
       inkscape:connector-curvature="0" /><path
       d="m 155.7,629.2 0.2,-0.8 0,-69.1 -0.2,-0.8 -0.3,0.8 0,69.1 0.3,0.8 z"
       style="fill:#000000;fill-opacity:1;fill-rule:evenodd;stroke:none"
       id="path4348"
       inkscape:connector-curvature="0" /><path
       d="m 169.8,714.1 0.3,-0.8 0,-69.1 -0.3,-0.8 -0.2,0.8 0,69.1 0.2,0.8 z"
       style="fill:#000000;fill-opacity:1;fill-rule:evenodd;stroke:none"
       id="path4350"
       inkscape:connector-curvature="0" /><path
       d="m 169.8,629.2 0.3,-0.8 0,-69.1 -0.3,-0.8 -0.2,0.8 0,69.1 0.2,0.8 z"
       style="fill:#000000;fill-opacity:1;fill-rule:evenodd;stroke:none"
       id="path4352"
       inkscape:connector-curvature="0" /><path
       d="m 184,714.1 0.2,-0.8 0,-69.1 -0.2,-0.8 -0.3,0.8 0,69.1 0.3,0.8 z"
       style="fill:#000000;fill-opacity:1;fill-rule:evenodd;stroke:none"
       id="path4354"
       inkscape:connector-curvature="0" /><path
       d="m 184,629.2 0.2,-0.8 0,-69.1 -0.2,-0.8 -0.3,0.8 0,69.1 0.3,0.8 z"
       style="fill:#000000;fill-opacity:1;fill-rule:evenodd;stroke:none"
       id="path4356"
       inkscape:connector-curvature="0" /><path
       d="m 198.1,714.1 0.3,-0.8 0,-69.1 -0.3,-0.8 -0.2,0.8 0,69.1 0.2,0.8 z"
       style="fill:#000000;fill-opacity:1;fill-rule:evenodd;stroke:none"
       id="path4358"
       inkscape:connector-curvature="0" /><path
       d="m 198.1,629.2 0.3,-0.8 0,-69.1 -0.3,-0.8 -0.2,0.8 0,69.1 0.2,0.8 z"
       style="fill:#000000;fill-opacity:1;fill-rule:evenodd;stroke:none"
       id="path4360"
       inkscape:connector-curvature="0" /><path
       d="m 212.3,714.1 0.7,0.8 0,-72.3 -0.7,0.8 -0.8,0.7 0,69.2 0.8,0.8 z"
       style="fill:#000000;fill-opacity:1;fill-rule:evenodd;stroke:none"
       id="path4362"
       inkscape:connector-curvature="0" /><path
       d="m 212.3,629.2 0.7,0.8 0,-72.3 -0.7,0.8 -0.8,0.8 0,69.2 0.8,0.7 z"
       style="fill:#000000;fill-opacity:1;fill-rule:evenodd;stroke:none"
       id="path4364"
       inkscape:connector-curvature="0" /><path
       d="m 226.4,714.1 0.8,-0.8 0,-69.2 -0.8,-0.7 -0.8,-0.8 0,72.3 0.8,-0.8 z"
       style="fill:#000000;fill-opacity:1;fill-rule:evenodd;stroke:none"
       id="path4366"
       inkscape:connector-curvature="0" /><path
       d="m 226.4,629.2 0.8,-0.7 0,-69.2 -0.8,-0.8 -0.8,-0.8 0,72.3 0.8,-0.8 z"
       style="fill:#000000;fill-opacity:1;fill-rule:evenodd;stroke:none"
       id="path4368"
       inkscape:connector-curvature="0" /><path
       d="m 240.5,714.1 0.3,-0.8 0,-69.1 -0.3,-0.8 -0.2,0.8 0,69.1 0.2,0.8 z"
       style="fill:#000000;fill-opacity:1;fill-rule:evenodd;stroke:none"
       id="path4370"
       inkscape:connector-curvature="0" /><path
       d="m 240.5,629.2 0.3,-0.8 0,-69.1 -0.3,-0.8 -0.2,0.8 0,69.1 0.2,0.8 z"
       style="fill:#000000;fill-opacity:1;fill-rule:evenodd;stroke:none"
       id="path4372"
       inkscape:connector-curvature="0" /><path
       d="m 254.7,714.1 0.2,-0.8 0,-69.1 -0.2,-0.8 -0.3,0.8 0,69.1 0.3,0.8 z"
       style="fill:#000000;fill-opacity:1;fill-rule:evenodd;stroke:none"
       id="path4374"
       inkscape:connector-curvature="0" /><path
       d="m 254.7,629.2 0.2,-0.8 0,-69.1 -0.2,-0.8 -0.3,0.8 0,69.1 0.3,0.8 z"
       style="fill:#000000;fill-opacity:1;fill-rule:evenodd;stroke:none"
       id="path4376"
       inkscape:connector-curvature="0" /><path
       d="m 268.8,714.1 0.3,-0.8 0,-69.1 -0.3,-0.8 -0.2,0.8 0,69.1 0.2,0.8 z"
       style="fill:#000000;fill-opacity:1;fill-rule:evenodd;stroke:none"
       id="path4378"
       inkscape:connector-curvature="0" /><path
       d="m 268.8,629.2 0.3,-0.8 0,-69.1 -0.3,-0.8 -0.2,0.8 0,69.1 0.2,0.8 z"
       style="fill:#000000;fill-opacity:1;fill-rule:evenodd;stroke:none"
       id="path4380"
       inkscape:connector-curvature="0" /><path
       d="m 283,714.1 0.2,-0.8 0,-69.1 -0.2,-0.8 -0.3,0.8 0,69.1 0.3,0.8 z"
       style="fill:#000000;fill-opacity:1;fill-rule:evenodd;stroke:none"
       id="path4382"
       inkscape:connector-curvature="0" /><path
       d="m 283,629.2 0.2,-0.8 0,-69.1 -0.2,-0.8 -0.3,0.8 0,69.1 0.3,0.8 z"
       style="fill:#000000;fill-opacity:1;fill-rule:evenodd;stroke:none"
       id="path4384"
       inkscape:connector-curvature="0" /><path
       d="m 297.1,714.1 0.8,0.8 0,-72.3 -0.8,0.8 -0.7,0.7 0,69.2 0.7,0.8 z"
       style="fill:#000000;fill-opacity:1;fill-rule:evenodd;stroke:none"
       id="path4386"
       inkscape:connector-curvature="0" /><path
       d="m 297.1,629.2 0.8,0.8 0,-72.3 -0.8,0.8 -0.7,0.8 0,69.2 0.7,0.7 z"
       style="fill:#000000;fill-opacity:1;fill-rule:evenodd;stroke:none"
       id="path4388"
       inkscape:connector-curvature="0" /><path
       d="m 311.3,714.1 0.7,-0.8 0,-69.2 -0.7,-0.7 -0.8,-0.8 0,72.3 0.8,-0.8 z"
       style="fill:#000000;fill-opacity:1;fill-rule:evenodd;stroke:none"
       id="path4390"
       inkscape:connector-curvature="0" /><path
       d="m 311.3,629.2 0.7,-0.7 0,-69.2 -0.7,-0.8 -0.8,-0.8 0,72.3 0.8,-0.8 z"
       style="fill:#000000;fill-opacity:1;fill-rule:evenodd;stroke:none"
       id="path4392"
       inkscape:connector-curvature="0" /><path
       d="m 325.4,714.1 0.3,-0.8 0,-69.1 -0.3,-0.8 -0.2,0.8 0,69.1 0.2,0.8 z"
       style="fill:#000000;fill-opacity:1;fill-rule:evenodd;stroke:none"
       id="path4394"
       inkscape:connector-curvature="0" /><path
       d="m 325.4,629.2 0.3,-0.8 0,-69.1 -0.3,-0.8 -0.2,0.8 0,69.1 0.2,0.8 z"
       style="fill:#000000;fill-opacity:1;fill-rule:evenodd;stroke:none"
       id="path4396"
       inkscape:connector-curvature="0" /><path
       d="m 339.6,714.1 0.2,-0.8 0,-69.1 -0.2,-0.8 -0.3,0.8 0,69.1 0.3,0.8 z"
       style="fill:#000000;fill-opacity:1;fill-rule:evenodd;stroke:none"
       id="path4398"
       inkscape:connector-curvature="0" /><path
       d="m 339.6,629.2 0.2,-0.8 0,-69.1 -0.2,-0.8 -0.3,0.8 0,69.1 0.3,0.8 z"
       style="fill:#000000;fill-opacity:1;fill-rule:evenodd;stroke:none"
       id="path4400"
       inkscape:connector-curvature="0" /><path
       d="m 353.7,714.1 0.3,-0.8 0,-69.1 -0.3,-0.8 -0.2,0.8 0,69.1 0.2,0.8 z"
       style="fill:#000000;fill-opacity:1;fill-rule:evenodd;stroke:none"
       id="path4402"
       inkscape:connector-curvature="0" /><path
       d="m 353.7,629.2 0.3,-0.8 0,-69.1 -0.3,-0.8 -0.2,0.8 0,69.1 0.2,0.8 z"
       style="fill:#000000;fill-opacity:1;fill-rule:evenodd;stroke:none"
       id="path4404"
       inkscape:connector-curvature="0" /><path
       d="m 367.9,714.1 0.2,-0.8 0,-69.1 -0.2,-0.8 -0.3,0.8 0,69.1 0.3,0.8 z"
       style="fill:#000000;fill-opacity:1;fill-rule:evenodd;stroke:none"
       id="path4406"
       inkscape:connector-curvature="0" /><path
       d="m 367.9,629.2 0.2,-0.8 0,-69.1 -0.2,-0.8 -0.3,0.8 0,69.1 0.3,0.8 z"
       style="fill:#000000;fill-opacity:1;fill-rule:evenodd;stroke:none"
       id="path4408"
       inkscape:connector-curvature="0" /><path
       d="m 382,714.1 0.8,0.8 0,-72.3 -0.8,0.8 -0.8,0.7 0,69.2 0.8,0.8 z"
       style="fill:#000000;fill-opacity:1;fill-rule:evenodd;stroke:none"
       id="path4410"
       inkscape:connector-curvature="0" /><path
       d="m 382,629.2 0.8,0.8 0,-72.3 -0.8,0.8 -0.8,0.8 0,69.2 0.8,0.7 z"
       style="fill:#000000;fill-opacity:1;fill-rule:evenodd;stroke:none"
       id="path4412"
       inkscape:connector-curvature="0" /></g></svg>